<?xml version="1.0" encoding="utf-8"?>
<!-- Generator: Adobe Illustrator 15.0.2, SVG Export Plug-In . SVG Version: 6.00 Build 0)  -->
<!DOCTYPE svg PUBLIC "-//W3C//DTD SVG 1.1//EN" "http://www.w3.org/Graphics/SVG/1.1/DTD/svg11.dtd">
<svg version="1.1" id="Layer_1" xmlns="http://www.w3.org/2000/svg" xmlns:xlink="http://www.w3.org/1999/xlink" x="0px" y="0px"
	 width="128px" height="128px" viewBox="-85.5 164.5 128 128" enable-background="new -85.5 164.5 128 128" xml:space="preserve">
<g id="Layer_1_1_" display="none">
</g>
<g id="Layer_2">
</g>
<g id="Layer_3">
	<g>
		<polygon fill="#770606" points="4.328,164.5 38.233,199.8 38.233,252.552 -21.314,292.5 -21.314,292.5 -81.233,252.552 
			-81.233,199.8 -44.443,164.5 		"/>
		<g>
			<g>
				<g>
					<path fill="#FFFFFF" d="M-11.011,259.459c2.698-5.814,5.487-11.829,9.393-17.033c1.874-2.496,4.563-4.848,7.167-7.121
						c2.968-2.604,6.044-5.289,7.911-8.188c2.926-4.552,2.125-9.257,1.277-14.233c-0.574-3.374-1.168-6.863-0.714-10.601
						l0.222-1.853l0.915,1.627c0.015,0.024,1.626,2.881,4.428,7.082c0.621,0.924,1.213,1.791,1.776,2.615
						c2.778,4.064,4.974,7.271,6.367,12.232c1.385,4.938-1.728,11.584-4.474,17.447l-0.159,0.342
						c-1.139,2.425-1.998,3.467-2.904,4.57c-0.77,0.932-1.568,1.899-2.607,3.881l-1.196,2.278l0.043-2.573
						c0.039-2.371-0.591-4.298-1.835-5.561c-1.066-1.089-2.528-1.637-4.337-1.637c-0.465,0-0.954,0.039-1.459,0.113
						c-4.255,0.629-8.296,6.069-11.859,10.871c-2.922,3.934-5.445,7.334-7.945,8.176l-1.348,0.453
						C-12.352,262.35-11.259,259.996-11.011,259.459z"/>
				</g>
				<g>
					<g>
						<path fill="#770606" d="M14.628,202.355c0,0,1.602,2.849,4.454,7.121c3.7,5.553,6.42,8.83,8.059,14.678
							c1.357,4.812-1.922,11.646-4.6,17.363c-2.094,4.475-3.241,4.127-5.496,8.426c0.082-4.645-2.343-7.817-6.783-7.817
							c-0.495,0-1.007,0.037-1.542,0.116c-7.924,1.175-14.526,17.266-19.911,19.072c2.954-6.342,5.848-12.901,10.068-18.523
							c3.956-5.273,11.539-9.811,15.1-15.352C19.011,219.604,13.509,211.615,14.628,202.355 M13.863,198.504l-0.448,3.703
							c-0.461,3.826,0.141,7.359,0.72,10.773c0.863,5.072,1.609,9.449-1.189,13.801c-1.817,2.83-4.857,5.492-7.8,8.06
							c-2.624,2.296-5.339,4.671-7.25,7.22c-3.945,5.254-6.749,11.299-9.456,17.145c-0.249,0.533-0.497,1.066-0.745,1.6
							l-1.202,2.578l2.698-0.908c2.686-0.898,5.261-4.369,8.245-8.389c3.495-4.707,7.454-10.04,11.456-10.633
							c0.474-0.07,0.934-0.107,1.371-0.107c1.639,0,2.952,0.492,3.903,1.459c1.123,1.146,1.698,2.916,1.66,5.118l-0.093,5.152
							l2.396-4.56c1.011-1.927,1.752-2.822,2.537-3.773c0.895-1.086,1.819-2.204,2.989-4.7l0.155-0.343
							c2.796-5.961,5.965-12.719,4.515-17.874c-1.422-5.06-3.641-8.306-6.452-12.411c-0.566-0.832-1.152-1.688-1.771-2.613
							c-2.789-4.18-4.389-7.017-4.403-7.044L13.863,198.504L13.863,198.504z"/>
					</g>
				</g>
			</g>
			<g>
				<g>
					<g>
						<path fill="#FFFFFF" d="M-2.418,221.959c-4.174,0-7.237-2.881-7.369-3.004l-2.594-2.596l-0.037-0.053
							c-0.204-0.306-4.944-7.55-0.561-11.608c0.539-0.503,2.716-1.652,6.239-3.487c2.281-1.191,5.411-2.824,5.781-3.191
							c0.78-0.883,1.602-1.33,2.441-1.33c2.243,0,3.833,3.182,5.104,5.744c0.357,0.715,0.696,1.39,0.995,1.89
							c0.969,1.606,0.983,5.069,0.039,8.422c-0.633,2.245-2.233,6.291-5.83,8.163C0.45,221.604-0.965,221.959-2.418,221.959
							L-2.418,221.959z"/>
					</g>
					<g>
						<path fill="#770606" d="M1.483,197.296c2.435,0,4.243,5.126,5.576,7.341c1.674,2.778,0.233,12.723-5.552,15.729
							c-1.367,0.712-2.694,0.981-3.926,0.981c-3.979,0-6.944-2.834-6.944-2.834l-2.544-2.543c0,0-4.737-7.05-0.658-10.826
							c1.05-0.972,11.35-5.912,12.058-6.715C0.2,197.63,0.861,197.296,1.483,197.296 M1.483,196.074
							c-1.009,0-1.976,0.507-2.872,1.511c-0.515,0.411-3.471,1.952-5.637,3.082c-3.895,2.028-5.791,3.048-6.367,3.581
							c-4.03,3.727-1.067,9.785,0.078,11.764l-0.096,0.182l0.641,0.641l2.544,2.545l0.011,0.012l0.009,0.014
							c0.135,0.127,3.372,3.17,7.787,3.17c1.548,0,3.059-0.379,4.493-1.122c3.8-1.978,5.478-6.198,6.135-8.539
							c1.001-3.556,0.961-7.134-0.106-8.901c-0.285-0.479-0.617-1.146-0.97-1.851C5.785,199.448,4.105,196.074,1.483,196.074
							L1.483,196.074z"/>
					</g>
				</g>
				<g>
					<path fill="#FFFFFF" d="M-8.174,211.674c1.694,4.562,7.702,7.479,11.157,2.305c2.157-3.229,0.176-7.508-2.82-9.797
						l-10.578-1.386L-8.174,211.674z"/>
					<path fill="#770606" d="M-1.633,217.948L-1.633,217.948c-3.196,0-6.428-2.46-7.685-5.849l-0.041-0.125l-2.685-10.627
						l12.685,1.662l0.259,0.2c3.5,2.667,5.611,7.683,3.096,11.448C2.583,216.781,0.582,217.948-1.633,217.948z M-7.004,211.309
						c0.915,2.396,3.213,4.195,5.371,4.195c1.415,0,2.622-0.74,3.6-2.204c1.663-2.487,0.157-5.934-2.296-7.95l-8.459-1.106
						L-7.004,211.309z"/>
				</g>
			</g>
			<g>
				<g>
					<path fill="#FFFFFF" d="M-29.979,261.896c-2.503-0.842-5.027-4.242-7.947-8.179c-3.563-4.8-7.602-10.241-11.859-10.87
						c-0.503-0.074-0.992-0.115-1.457-0.115c-1.809,0-3.27,0.549-4.337,1.638c-1.242,1.264-1.877,3.188-1.835,5.56l0.045,2.574
						l-1.198-2.277c-1.037-1.981-1.836-2.951-2.607-3.881c-0.909-1.104-1.768-2.148-2.906-4.57l-0.159-0.346
						c-2.749-5.863-5.865-12.508-4.477-17.443c1.396-4.963,3.59-8.172,6.368-12.233c0.563-0.821,1.155-1.688,1.775-2.614
						c2.801-4.203,4.411-7.06,4.428-7.086l0.914-1.626l0.224,1.854c0.451,3.738-0.143,7.229-0.715,10.603
						c-0.848,4.978-1.648,9.681,1.278,14.233c1.862,2.894,4.938,5.583,7.911,8.188c2.602,2.273,5.292,4.623,7.165,7.121
						c3.907,5.204,6.695,11.219,9.392,17.033c0.25,0.535,1.343,2.889,1.343,2.889L-29.979,261.896z"/>
				</g>
				<g>
					<g>
						<path fill="#770606" d="M-55.61,202.355c1.119,9.26-4.384,17.248,0.654,25.088c3.561,5.541,11.145,10.072,15.1,15.35
							c4.221,5.622,7.113,12.182,10.069,18.521c-5.385-1.805-11.99-17.896-19.911-19.07c-0.54-0.081-1.056-0.118-1.545-0.118
							c-4.44,0-6.865,3.174-6.783,7.817c-2.256-4.299-3.402-3.951-5.499-8.422c-2.68-5.723-5.954-12.551-4.6-17.362
							c1.644-5.849,4.361-9.126,8.063-14.679C-57.213,205.204-55.61,202.355-55.61,202.355 M-54.844,198.504l-1.83,3.252
							c-0.016,0.027-1.618,2.864-4.404,7.044c-0.616,0.927-1.204,1.781-1.771,2.613c-2.81,4.104-5.029,7.353-6.451,12.411
							c-1.451,5.154,1.716,11.912,4.511,17.874l0.158,0.343c1.17,2.494,2.093,3.611,2.987,4.701
							c0.785,0.951,1.529,1.854,2.537,3.775l2.394,4.561l-0.09-5.154c-0.04-2.203,0.535-3.974,1.659-5.115
							c0.95-0.97,2.263-1.461,3.901-1.461c0.435,0,0.894,0.037,1.366,0.106c4.007,0.592,7.964,5.926,11.458,10.633
							c2.982,4.017,5.558,7.487,8.243,8.39l2.699,0.908l-1.203-2.58c-0.246-0.529-0.494-1.062-0.742-1.598
							c-2.711-5.844-5.514-11.893-9.458-17.145c-1.909-2.549-4.625-4.922-7.249-7.219c-2.942-2.57-5.983-5.232-7.8-8.06
							c-2.799-4.354-2.054-8.731-1.19-13.8c0.582-3.416,1.183-6.948,0.72-10.776L-54.844,198.504L-54.844,198.504z"/>
					</g>
				</g>
			</g>
			<g>
				<g>
					<g>
						<path fill="#FFFFFF" d="M-38.567,221.959c-1.451,0-2.867-0.355-4.207-1.052c-3.6-1.87-5.2-5.919-5.833-8.166
							c-0.946-3.351-0.93-6.812,0.04-8.419c0.299-0.5,0.635-1.174,0.992-1.889c1.276-2.561,2.863-5.746,5.106-5.746
							c0.838,0,1.661,0.448,2.446,1.338c0.362,0.358,3.493,1.992,5.777,3.186c3.52,1.835,5.697,2.984,6.237,3.486
							c3.917,3.621,0.533,9.822-0.364,11.295l0.045,0.091l-2.865,2.867C-31.327,219.078-34.391,221.959-38.567,221.959z"/>
					</g>
					<g>
						<path fill="#770606" d="M-42.468,197.296c0.623,0,1.285,0.334,1.988,1.134c0.709,0.805,11.009,5.744,12.058,6.715
							c4.083,3.777-0.656,10.826-0.656,10.826l-2.544,2.545c0,0-2.968,2.834-6.946,2.834c-1.23,0-2.561-0.271-3.925-0.982
							c-5.784-3.008-7.225-12.951-5.553-15.729C-46.711,202.422-44.902,197.3-42.468,197.296 M-42.466,196.074v1.222V196.074
							L-42.466,196.074c-2.622,0-4.305,3.374-5.655,6.085c-0.351,0.704-0.682,1.37-0.968,1.849c-1.064,1.77-1.105,5.348-0.104,8.899
							c0.66,2.339,2.336,6.563,6.138,8.541c1.431,0.743,2.94,1.122,4.491,1.122c4.417,0,7.654-3.041,7.79-3.17l0.009-0.012
							l0.012-0.012l2.543-2.545l0.641-0.643l-0.096-0.183c0.445-0.771,1.164-2.149,1.64-3.753c0.998-3.374,0.458-6.141-1.564-8.012
							c-0.577-0.533-2.475-1.549-6.369-3.581c-2.166-1.13-5.123-2.671-5.636-3.082C-40.492,196.581-41.457,196.074-42.466,196.074
							L-42.466,196.074z"/>
					</g>
				</g>
				<g>
					<path fill="#FFFFFF" d="M-32.809,211.674c-1.694,4.562-7.701,7.479-11.157,2.305c-2.157-3.229-0.176-7.508,2.822-9.797
						l10.577-1.386L-32.809,211.674z"/>
					<path fill="#770606" d="M-39.35,217.948c-2.215,0-4.216-1.167-5.631-3.287c-2.517-3.767-0.403-8.783,3.094-11.448l0.26-0.197
						l12.686-1.664l-2.725,10.752C-32.921,215.488-36.155,217.948-39.35,217.948z M-40.651,205.35
						c-2.456,2.018-3.961,5.463-2.298,7.95c0.977,1.462,2.186,2.204,3.599,2.204c2.157,0,4.457-1.8,5.373-4.195l1.786-7.068
						L-40.651,205.35z"/>
				</g>
			</g>
			<g>
				<g>
					<path fill="#FFFFFF" d="M-20.491,255.866l-0.154,0.198l-0.482-0.623c-0.671-0.861-1.109-4.139-1.89-10.332
						c-0.861-6.848-1.935-15.373-3.575-18.088c-1.265-2.095-1.464-5.729-0.645-11.795l0.024-0.187l0.126-0.14
						c0.403-0.447,0.86-0.875,1.359-1.264c2.598-2.387,3.3-3.865,3.677-4.662c0.155-0.326,0.277-0.588,0.468-0.789
						c0.239-0.258,0.548-0.381,0.939-0.381c0.053,0,0.104,0.004,0.154,0.006c0.047-0.002,0.098-0.006,0.153-0.006
						c0.391,0,0.698,0.123,0.939,0.381c0.193,0.201,0.312,0.457,0.467,0.789c0.378,0.797,1.078,2.275,3.676,4.662
						c0.499,0.389,0.956,0.815,1.361,1.264l0.124,0.14l0.024,0.187c0.819,6.067,0.623,9.7-0.644,11.795
						c-1.641,2.715-2.715,11.24-3.574,18.088c-0.78,6.197-1.219,9.471-1.889,10.332l-0.481,0.623L-20.491,255.866z"/>
				</g>
				<g>
					<g>
						<path fill="#770606" d="M-20.338,208.415c0.228,0,0.372,0.062,0.494,0.188c0.489,0.521,0.564,2.174,4.194,5.5
							c0.505,0.393,0.933,0.797,1.298,1.203c0.637,4.707,0.83,9.101-0.559,11.396c-2.937,4.857-3.989,26.52-5.425,28.361
							c-0.051-0.065-0.102-0.162-0.153-0.28c-0.052,0.118-0.103,0.215-0.154,0.28c-1.434-1.844-2.488-23.504-5.424-28.361
							c-1.388-2.297-1.198-6.689-0.561-11.396c0.366-0.406,0.794-0.812,1.299-1.203c3.629-3.326,3.706-4.979,4.194-5.5
							c0.12-0.127,0.266-0.188,0.494-0.188c0.055,0,0.105,0.007,0.154,0.015C-20.443,208.422-20.395,208.415-20.338,208.415
							 M-20.338,207.191c-0.051,0-0.102,0.004-0.153,0.004c-0.052,0-0.103-0.004-0.154-0.004c-0.562,0-1.028,0.195-1.384,0.574
							c-0.256,0.276-0.404,0.588-0.575,0.944c-0.358,0.761-1.024,2.169-3.52,4.461c-0.52,0.408-0.996,0.853-1.418,1.322l-0.25,0.28
							l-0.052,0.369c-0.838,6.211-0.614,9.971,0.727,12.192c1.574,2.604,2.684,11.417,3.493,17.849
							c0.876,6.963,1.277,9.686,2.014,10.633l0.964,1.238l0.153-0.199l0.156,0.199l0.964-1.238c0.737-0.947,1.137-3.67,2.015-10.633
							c0.808-6.434,1.915-15.244,3.489-17.849c1.345-2.222,1.567-5.981,0.728-12.192l-0.05-0.369l-0.25-0.282
							c-0.424-0.468-0.902-0.912-1.42-1.32c-2.497-2.292-3.161-3.698-3.519-4.461c-0.17-0.356-0.319-0.67-0.576-0.944
							C-19.311,207.385-19.778,207.191-20.338,207.191L-20.338,207.191z"/>
					</g>
				</g>
			</g>
			<g>
				<g>
					<path fill="#FFFFFF" d="M-13.189,220.975c-0.989-6.729-5.44-10.211-7.12-11.52c-0.065-0.053-0.125-0.1-0.182-0.145
						c-0.058,0.045-0.118,0.092-0.184,0.145c-1.677,1.309-6.131,4.789-7.119,11.52l-0.99,6.748l-0.827-6.771
						c-0.644-5.269-4.227-11.724-10.58-13.423c-1.02-0.273-2.091-0.5-3.127-0.715c-2.004-0.418-4.077-0.855-6.028-1.678
						c-0.706-0.301-6.053-3.283-6.495-6.166c-0.131-0.854,0.172-1.639,0.853-2.216c0.256-0.223,6.508-5.61,13.098-8.976
						c0.146-0.073,0.313-0.113,0.491-0.113c1.38,0,10.914,4.081,14.867,7.348c1.933,1.602,3.158,4.598,4.06,7.209
						c-0.895-7.912-5.277-12.953-12.643-14.371l-3.933-0.758l3.873-1.029c0.33-0.086,8.119-2.142,12.34-2.142h4.689
						c4.224,0,12.011,2.056,12.341,2.142l3.871,1.029l-3.932,0.758c-7.369,1.418-11.75,6.459-12.643,14.366
						c0.907-2.606,2.129-5.604,4.059-7.204c3.952-3.267,13.487-7.348,14.871-7.348c0.178,0,0.346,0.04,0.493,0.113
						c6.589,3.363,12.839,8.753,13.104,8.982c0.672,0.569,0.978,1.354,0.846,2.207c-0.439,2.883-5.791,5.866-6.496,6.166
						c-1.95,0.822-4.024,1.26-6.032,1.678c-1.037,0.215-2.105,0.441-3.124,0.715c-6.352,1.701-9.935,8.154-10.582,13.424
						l-0.826,6.773L-13.189,220.975z"/>
				</g>
				<g>
					<g>
						<path fill="#770606" d="M-18.148,184.841c4.152,0,12.107,2.111,12.107,2.111c-8.541,1.646-14.059,8.222-13.522,19.967
							c0.026,0.007,0.046,0.015,0.07,0.015c0.985,0,2.193-8.371,5.626-11.211c3.948-3.264,13.235-7.138,14.285-7.138
							c0.035,0,0.058,0.004,0.074,0.013c6.566,3.352,12.922,8.857,12.922,8.857c2.485,2.111-4.028,6.252-5.408,6.838
							c-2.872,1.211-6.046,1.546-9.039,2.352c-6.254,1.674-10.497,7.996-11.254,14.194c-1.274-8.674-7.925-12.159-8.158-12.726
							c-0.02-0.043-0.036-0.248-0.049-0.58c-0.014,0.332-0.03,0.533-0.05,0.58c-0.233,0.566-6.885,4.052-8.158,12.726
							c-0.756-6.202-4.999-12.524-11.252-14.194c-2.993-0.806-6.165-1.143-9.036-2.352c-1.381-0.588-7.893-4.727-5.407-6.838
							c0,0,6.355-5.508,12.919-8.857c0.018-0.009,0.042-0.013,0.076-0.013c1.053,0,10.335,3.874,14.283,7.138
							c3.434,2.84,4.644,11.211,5.626,11.211c0.023,0,0.045-0.008,0.07-0.015c0.535-11.745-4.979-18.321-13.521-19.967
							c0,0,7.955-2.111,12.106-2.111h2.325h0.04H-18.148 M-18.148,183.008h-2.324h-0.04h-2.325c-4.341,0-12.243,2.081-12.576,2.17
							l-5.93,1.574c-0.019,0-0.04,0-0.057,0l0,0c-0.326,0-0.631,0.07-0.908,0.211c-0.061,0.035-0.12,0.062-0.18,0.094l-0.669,0.18
							l0.241,0.046c-6.409,3.396-12.333,8.491-12.675,8.78c-0.927,0.793-1.339,1.871-1.158,3.045
							c0.219,1.435,1.316,2.916,3.353,4.526c1.375,1.093,2.928,2.021,3.692,2.349c2.033,0.858,4.149,1.3,6.197,1.729
							c1.071,0.223,2.084,0.438,3.08,0.704c5.941,1.593,9.299,7.674,9.908,12.647l1.654,13.545l1.979-13.5
							c0.871-5.94,4.494-9.123,6.395-10.629c1.902,1.508,5.522,4.694,6.396,10.629l1.981,13.5l1.652-13.545
							c0.607-4.975,3.965-11.056,9.907-12.647c0.993-0.267,2.007-0.481,3.08-0.704c2.048-0.43,4.165-0.87,6.198-1.729
							c0.761-0.326,2.318-1.256,3.691-2.349c2.037-1.61,3.133-3.093,3.354-4.526c0.182-1.174-0.233-2.252-1.157-3.045
							c-0.343-0.289-6.265-5.385-12.676-8.78l0.241-0.046l-0.668-0.18c-0.061-0.029-0.12-0.059-0.179-0.094
							c-0.278-0.141-0.582-0.211-0.908-0.211c-0.022,0-0.041,0-0.059,0l-5.93-1.574C-5.904,185.089-13.808,183.008-18.148,183.008
							L-18.148,183.008z M-14.387,193.8c2.034-2.606,4.954-4.329,8.691-5.052l0.728-0.137c-0.609,0.271-1.125,0.507-1.448,0.654
							C-8.4,190.195-11.924,191.952-14.387,193.8L-14.387,193.8z M-26.597,193.8c-2.463-1.848-5.987-3.604-7.97-4.528
							c-0.322-0.152-0.836-0.39-1.448-0.662l0.726,0.138C-31.55,189.471-28.628,191.191-26.597,193.8L-26.597,193.8z"/>
					</g>
				</g>
			</g>
		</g>
	</g>
</g>
</svg>
