<?xml version="1.0" encoding="utf-8"?>
<!-- Generator: Adobe Illustrator 15.0.0, SVG Export Plug-In . SVG Version: 6.00 Build 0)  -->
<!DOCTYPE svg PUBLIC "-//W3C//DTD SVG 1.1//EN" "http://www.w3.org/Graphics/SVG/1.1/DTD/svg11.dtd">
<svg version="1.1" id="Layer_1" xmlns="http://www.w3.org/2000/svg" xmlns:xlink="http://www.w3.org/1999/xlink" x="0px" y="0px"
	 width="70px" height="70px" viewBox="0 0 70 70" enable-background="new 0 0 70 70" xml:space="preserve">
<g>
	<g>
		<path fill="#333333" d="M41.604,36.683c0,0,2.81-4.837,7.024-4.837c4.216,0,4.06-0.627,4.06-0.627S51.438,35.748,41.604,36.683z"
			/>
		<g>
			<path fill="#333333" d="M28.398,36.683c0,0-2.811-4.837-7.026-4.837c-4.215,0-4.06-0.627-4.06-0.627S18.562,35.748,28.398,36.683
				z"/>
		</g>
	</g>
	<g>
		<path fill="#333333" d="M17.068,43.386c-2.965-3.279-4.844-6.559-3.125-12.645c0,0-0.31,6.243,6.248,7.491
			c6.558,1.252,7.806,1.252,7.806,1.252l0.78,8.742c0,0-3.745,2.651-3.276,5.774c0.466,3.123,0.466,3.123,0.466,3.123l-3.861-1.562"
			/>
		<g>
			<path fill="#333333" d="M47.895,55.562l-3.863,1.562c0,0,0,0,0.468-3.123c0.47-3.123-3.276-5.774-3.276-5.774l0.783-8.742
				c0,0,1.246,0,7.805-1.252c6.559-1.248,6.246-7.491,6.246-7.491c1.715,6.086-0.156,9.364-3.121,12.645L47.895,55.562z"/>
		</g>
	</g>
	<path fill="#333333" d="M38.701,52.451c-1.924-0.297-2.571,0-3.702,0c-1.125,0-1.772-0.297-3.699,0
		c-1.924,0.297-1.924,2.514-1.924,2.514s-0.019,4.44,5.623,4.44c5.64,0,5.625-4.44,5.625-4.44S40.623,52.748,38.701,52.451z"/>
	<g>
		<path fill="#333333" d="M27.542,58.899c-0.084,0.019-0.174,0.035-0.261,0.06c0,0,1.746,7.835,2.297,7.896
			c0.551,0.062,0.781-0.642,0.781-0.642l0.662-5.052C29.346,60.656,28.255,59.845,27.542,58.899z"/>
		<path fill="#333333" d="M38.98,61.188l0.66,5.023c0,0,0.229,0.702,0.779,0.643c0.549-0.06,2.297-7.896,2.297-7.896
			c-0.056-0.016-0.113-0.027-0.17-0.041C41.822,59.877,40.703,60.69,38.98,61.188z"/>
	</g>
	<g>
		<g>
			<g>
				<path fill="#333333" d="M44.977,13.49c-0.439-0.729,14.367-8.901,16.688-9.567c2.314-0.669,1.997,6.954-1.048,11.22
					c-3.042,4.263-5.87,7.961-5.87,7.961c-2.585-2.017,0.232-3.515-3.244-7.097C48.025,12.425,45.415,14.218,44.977,13.49z"/>
			</g>
		</g>
		<g>
			<g>
				<path fill="#333333" d="M26.273,13.413c0.47-0.776-15.353-9.515-17.83-10.228c-2.478-0.709-2.137,7.432,1.113,11.988
					c3.25,4.555,6.274,8.508,6.274,8.508c2.767-2.156-0.247-3.754,3.466-7.58C23.012,12.271,25.802,14.189,26.273,13.413z"/>
			</g>
		</g>
	</g>
	<path fill="#333333" d="M42.994,10.288c0,0-5.492-0.12-6.217,7.86c-0.726,7.98-0.846,12.094-1.569,12.094h-0.416
		c-0.726,0-0.847-4.112-1.571-12.094c-0.724-7.981-6.215-7.86-6.215-7.86s4.159-2.541,8.151-2.541
		C39.148,7.749,42.994,10.288,42.994,10.288z"/>
</g>
</svg>