<?xml version="1.0" encoding="utf-8"?>
<!-- Generator: Adobe Illustrator 15.0.0, SVG Export Plug-In . SVG Version: 6.00 Build 0)  -->
<!DOCTYPE svg PUBLIC "-//W3C//DTD SVG 1.1//EN" "http://www.w3.org/Graphics/SVG/1.1/DTD/svg11.dtd">
<svg version="1.1" id="Layer_1" xmlns="http://www.w3.org/2000/svg" xmlns:xlink="http://www.w3.org/1999/xlink" x="0px" y="0px"
	 width="70px" height="70px" viewBox="-85 140.667 70 70" enable-background="new -85 140.667 70 70" xml:space="preserve">
<g>
	<g>
		<path fill="#333333" d="M-16.995,177.933c-1.138-4.052-3.025-6.327-5.588-10.17c-1.973-2.963-3.083-4.938-3.083-4.938
			c-0.774,6.415,3.038,11.95-0.454,17.386c-2.468,3.839-7.722,6.981-10.463,10.634c-2.927,3.895-4.93,8.439-6.976,12.831
			c3.733-1.248,8.309-12.398,13.794-13.213c0.374-0.054,0.731-0.081,1.069-0.081c3.081,0,4.76,2.2,4.703,5.42
			c1.565-2.981,2.356-2.738,3.81-5.84C-18.327,185.999-16.059,181.266-16.995,177.933z"/>
	</g>
	<g>
		<path fill="#333333" d="M-41.395,171.517c-0.507,0.825-0.898,1.52-1.18,2.397l0.286,0.197c0,0,2.056,1.918,4.813,1.918
			c0.851,0,1.776-0.211,2.719-0.699c3.386-1.761,4.617-6.962,4.219-9.691c-0.771,0.268-1.554,0.471-2.331,0.644
			c0.771,1.647,0.88,3.87-0.164,5.427c-0.979,1.471-2.367,2.633-3.899,2.633h-0.002C-38.609,174.342-40.295,173.009-41.395,171.517z
			"/>
	</g>
	<g>
		<path fill="#333333" d="M-34.44,170.407c0.75-1.12,0.559-2.523-0.126-3.752c-0.55,0.117-1.097,0.229-1.619,0.37
			c-1.693,0.453-3.063,1.442-4.14,2.677c0.759,1.312,2.11,2.234,3.393,2.234C-35.955,171.939-35.115,171.423-34.44,170.407z"/>
	</g>
	<g>
		<path fill="#333333" d="M-73.88,180.211c-3.491-5.436,0.321-10.971-0.451-17.386c0,0-1.112,1.975-3.086,4.938
			c-2.567,3.848-4.446,6.118-5.587,10.17c-0.94,3.333,1.331,8.066,3.188,12.029c1.454,3.102,2.246,2.858,3.809,5.84
			c-0.054-3.22,1.624-5.42,4.701-5.42c0.341,0,0.696,0.027,1.074,0.081c5.484,0.814,10.061,11.967,13.794,13.213
			c-2.051-4.392-4.055-8.937-6.979-12.831C-66.158,187.192-71.412,184.05-73.88,180.211z"/>
	</g>
	<g>
		<path fill="#333333" d="M-69.464,165.628c-0.397,2.726,0.833,7.917,4.223,9.675c0.943,0.495,1.777,0.596,2.632,0.596
			c2.752,0,4.721-2.052,4.721-2.052l0.287-0.284c-0.278-0.878-0.588-1.662-1.094-2.487c-1.101,1.488-2.742,2.51-4.418,2.51
			c-1.534,0-2.898-0.786-3.878-2.256c-1.045-1.558-0.92-3.416-0.153-5.061C-67.919,166.097-68.691,165.899-69.464,165.628z"/>
	</g>
	<g>
		<path fill="#333333" d="M-63.066,171.937c1.284,0.003,2.633-0.922,3.392-2.234c-1.079-1.234-2.449-2.224-4.141-2.677
			c-0.523-0.141-1.071-0.255-1.618-0.37c-0.689,1.229-0.884,2.633-0.131,3.752C-64.884,171.423-64.047,171.937-63.066,171.937z"/>
	</g>
	<g>
		<path fill="#333333" d="M-50,168.454c-1.319,1.045-3.829,3.249-4.434,7.365l-0.132,0.905c0.056,1.21,0.261,2.247,0.7,2.97
			c2.034,3.369,2.765,18.376,3.758,19.655c0.034-0.046,0.072-0.112,0.107-0.195c0.033,0.083,0.068,0.149,0.104,0.195
			c0.997-1.277,1.726-16.286,3.76-19.655c0.437-0.723,0.642-1.76,0.697-2.97l-0.13-0.905C-46.174,171.705-48.683,169.499-50,168.454
			z"/>
	</g>
	<g>
		<path fill="#333333" d="M-41.504,169.125c0.217-0.263,0.445-0.52,0.683-0.76c1.194-1.205,2.645-2.125,4.307-2.565
			c0.374-0.103,0.755-0.188,1.138-0.272c0.307-0.068,0.611-0.141,0.922-0.203c0.307-0.064,0.612-0.131,0.92-0.196
			c0.891-0.194,1.767-0.427,2.62-0.731c0.135-0.046,0.268-0.085,0.402-0.138c0.084-0.034,0.173-0.058,0.258-0.09
			c0.038-0.019,0.091-0.042,0.134-0.065c0.849-0.406,3.223-1.938,3.846-3.284c0.085-0.187,0.133-0.372,0.14-0.55
			c0.02-0.308-0.083-0.596-0.372-0.839c0,0-4.405-3.817-8.957-6.138c-0.013-0.007-0.027-0.009-0.054-0.009
			c-0.726,0-7.161,2.688-9.896,4.947c-2.375,1.967-3.216,7.769-3.897,7.769c-0.016,0-0.029,0.003-0.047-0.002
			c-0.371-8.14,3.449-13.016,9.367-14.153c0,0-5.508-1.773-8.386-1.773h-1.611h-0.024h-1.613c-2.875,0-8.39,1.773-8.39,1.773
			c5.92,1.138,9.742,5.84,9.369,13.972c-0.014,0.009-0.031,0.097-0.048,0.097c-0.68,0-1.516-5.758-3.898-7.726
			c-2.735-2.261-9.165-4.923-9.896-4.923c-0.023,0-0.041,0.009-0.053,0.015c-4.548,2.322-8.951,6.146-8.951,6.146
			c-0.288,0.243-0.391,0.533-0.372,0.841l0.06-0.112l-0.06,0.112c0.007,0.173,0.054,0.357,0.144,0.544
			c0.612,1.347,2.334,2.723,4.631,3.584c0,0,1.735,0.538,2.625,0.732c0.309,0.066,0.616,0.132,0.92,0.196
			c0.307,0.063,0.616,0.135,0.924,0.207c0.377,0.082,0.764,0.166,1.137,0.268c1.66,0.442,3.113,1.362,4.307,2.565
			c0.24,0.241,0.463,0.496,0.68,0.761c0.213,0.254,0.413,0.518,0.601,0.788c0.608,0.869,1.106,1.824,1.482,2.812
			c0.054,0.146,0.107,0.291,0.161,0.439c0.054,0.15,0.094,0.303,0.142,0.455c0.195,0.666,0.344,1.34,0.425,2.014
			c0.079-0.557,0.204-1.069,0.341-1.565c0.165-0.592,0.367-1.147,0.595-1.66c0.225-0.504,0.471-0.978,0.735-1.403
			c0.875-1.418,1.897-2.426,2.693-3.105c0.324-0.28,0.608-0.504,0.829-0.678c0.081-0.063,0.157-0.118,0.218-0.169
			c0.135-0.112,0.225-0.189,0.243-0.236c0.008-0.022,0.016-0.104,0.024-0.214c0.004-0.058,0.009-0.106,0.011-0.188
			c0.001,0.081,0.006,0.13,0.011,0.188c0.008,0.11,0.016,0.191,0.023,0.214c0.019,0.047,0.107,0.124,0.241,0.236
			c0.063,0.051,0.137,0.105,0.224,0.171c0.215,0.172,0.501,0.398,0.826,0.679c0.795,0.682,1.821,1.685,2.697,3.108
			c0.262,0.425,0.508,0.897,0.732,1.397c0.23,0.513,0.426,1.07,0.591,1.66c0.139,0.492,0.263,1.012,0.343,1.565
			c0.083-0.674,0.228-1.348,0.428-2.011c0.045-0.153,0.089-0.311,0.141-0.456c0.049-0.15,0.104-0.296,0.158-0.444
			c0.378-0.988,0.875-1.94,1.483-2.81C-41.916,169.642-41.717,169.376-41.504,169.125z"/>
	</g>
</g>
<g>
	<path fill="#333333" d="M-19.027,79.774c2.938-0.391,5.865-0.701,8.777-0.857c5.306-0.109,7.938,0.915,8.539,1.147
		c-0.453-0.548-1.285-1.11-1.975-1.402c-0.689-0.296-1.393-0.512-2.103-0.687c-0.225-0.05-0.451-0.097-0.681-0.141
		c-1.198-0.224-2.409-0.338-3.627-0.384c-2.896-0.123-5.829,0.116-8.772,0.477c-1.473,0.203-2.948,0.434-4.425,0.7
		c-0.753,0.149-1.507,0.297-2.26,0.452c0.311,0.461,0.578,0.957,0.806,1.478l1.315-0.188
		C-21.966,80.152-20.496,79.949-19.027,79.774z"/>
	<path fill="#333333" d="M-18.841,87.159c-1.134-0.395-2.271-0.759-3.413-1.09c-0.537-0.144-1.071-0.278-1.608-0.405
		c-0.019,0.355-0.049,0.716-0.1,1.076c-0.037,0.269-0.086,0.53-0.136,0.792c0.545,0.143,1.09,0.293,1.64,0.448
		c1.138,0.302,2.279,0.639,3.417,0.981l3.417,1.021c2.275,0.707,4.558,1.356,6.844,1.986c-2.197-1.364-4.427-2.509-6.676-3.468
		C-16.576,88.001-17.707,87.587-18.841,87.159z"/>
	<path fill="#333333" d="M-75.363,78.628c-1.478-0.267-2.953-0.497-4.426-0.7c-2.941-0.36-5.875-0.6-8.773-0.477
		c-1.215,0.046-2.429,0.159-3.625,0.384c-0.229,0.041-0.457,0.089-0.683,0.14c-0.707,0.174-1.41,0.389-2.101,0.687
		c-0.689,0.291-1.519,0.855-1.975,1.402c0.602-0.233,3.23-1.258,8.537-1.147c2.913,0.155,5.843,0.467,8.779,0.857
		c1.467,0.175,2.938,0.379,4.41,0.596l1.313,0.188c0.229-0.52,0.496-1.017,0.807-1.479C-73.857,78.925-74.61,78.777-75.363,78.628z"
		/>
	<path fill="#333333" d="M-74.798,85.664c-0.537,0.127-1.073,0.263-1.609,0.405c-1.142,0.331-2.278,0.695-3.414,1.09
		c-1.129,0.428-2.261,0.842-3.384,1.343c-2.25,0.959-4.474,2.104-6.675,3.468c2.288-0.63,4.57-1.279,6.844-1.986l3.417-1.021
		c1.138-0.344,2.278-0.68,3.418-0.981c0.549-0.155,1.093-0.306,1.641-0.448c-0.053-0.259-0.1-0.523-0.137-0.792
		C-74.747,86.38-74.779,86.02-74.798,85.664z"/>
	<path fill="#333333" d="M-56.455,124.08c0.345,0,0.736-0.052,1.164-0.146c-0.333-0.818-0.562-1.671-0.628-2.544
		c-0.114-1.436,0.242-2.877,0.335-4.308c0,0-2.237,1.546-3.084,4.701c0.136,0.743,0.369,1.369,0.748,1.772
		C-57.707,123.78-57.324,124.08-56.455,124.08z"/>
	<path fill="#333333" d="M-43.369,123.935c0.427,0.094,0.822,0.147,1.163,0.147c0.87,0,1.253-0.301,1.467-0.525
		c0.378-0.403,0.611-1.029,0.748-1.774c-0.847-3.153-3.083-4.699-3.083-4.699c0.092,1.431,0.448,2.872,0.335,4.308
		C-42.807,122.266-43.035,123.116-43.369,123.935z"/>
	<path fill="#333333" d="M-32.592,95.028c-1.907,5.257-5.876,13.073-6.06,19.218c-0.077,2.679,0.888,7.875-1.016,10.105
		c-0.564,0.658-1.373,1.062-2.538,1.062c-0.467,0-0.993-0.065-1.582-0.202c-0.038-0.013-0.097-0.026-0.171-0.05
		c-0.892-0.256-4.171-1.331-5.371-1.331c-1.199,0-4.478,1.076-5.371,1.331c-0.072,0.023-0.13,0.037-0.17,0.05
		c-0.59,0.137-1.116,0.202-1.584,0.202c-1.163,0-1.973-0.404-2.536-1.06c-1.903-2.233-0.938-7.427-1.02-10.108
		c-0.184-6.145-4.141-13.961-6.04-19.219c-0.187,0.011-0.376,0.016-0.56,0.016c-0.788,0-1.533-0.11-2.23-0.328
		c0.443,2.028,1.662,3.909,2.37,5.828c2.098,5.683,4.974,13.738,2.365,19.526c-1.099,2.439-1.296,4.837-0.046,7.565
		c1.645,3.58,9.854,5.976,14.835,5.976c4.983,0,13.157-2.396,14.803-5.976c1.253-2.728,1.058-5.126-0.044-7.565
		c-2.61-5.788,0.266-13.844,2.364-19.526c0.709-1.919,1.929-3.799,2.374-5.828c-0.7,0.218-1.445,0.328-2.231,0.328
		C-32.228,95.042-32.412,95.039-32.592,95.028z"/>
	<path fill="#333333" d="M-46.99,100.662c-1.32,1.607-1.271,4.369-1.238,6.385c0.023,1.469,0.039,2.356-0.412,2.851
		c-0.179,0.198-0.42,0.306-0.679,0.306c-0.26,0-0.5-0.107-0.679-0.302c-0.452-0.497-0.439-1.383-0.419-2.854
		c0.03-2.018,0.069-4.775-1.251-6.384c-0.781-0.95-1.785-1.519-2.685-1.519c-0.38,0-0.907,0.106-1.257,0.607
		c-0.425,0.611-0.467,1.646-0.118,2.915c0.497,1.789,0.74,3.533,0.738,5.18c-0.003,0.853-0.105,1.687-0.207,2.494
		c-0.125,1.018-0.241,1.983-0.168,2.945c0.174,2.23,2.368,5.318,6.036,5.318c3.669,0,5.865-3.088,6.035-5.318
		c0.077-0.962-0.044-1.928-0.167-2.945c-0.102-0.808-0.204-1.642-0.206-2.494c-0.002-1.646,0.245-3.391,0.737-5.18
		c0.351-1.269,0.31-2.304-0.118-2.915c-0.348-0.501-0.876-0.607-1.256-0.607C-45.207,99.143-46.209,99.711-46.99,100.662z"/>
	<path fill="#333333" d="M-35.949,94.298c-1.5-0.522-2.931-1.235-4.193-1.865c-0.225-0.112-0.443-0.222-0.659-0.328
		c-0.776-0.381-1.85-0.787-2.949-1.16c1.843,2.833,3.354,6.009,3.582,9.416c0.155,2.314-0.338,4.644-0.467,6.954
		C-40.635,107.316-35.321,103.066-35.949,94.298z"/>
	<path fill="#333333" d="M-54.91,90.945c-1.097,0.372-2.171,0.776-2.948,1.161c-0.214,0.104-0.435,0.214-0.659,0.329
		c-1.262,0.627-2.692,1.34-4.194,1.862c-0.626,8.769,4.687,13.019,4.687,13.019c-0.13-2.312-0.624-4.639-0.468-6.953
		C-58.263,96.954-56.756,93.78-54.91,90.945z"/>
	<path fill="#333333" d="M-54.619,79.278c-0.111-0.67,1.431-1.308,2.771-0.093c1.879,1.699,1.827,5.785,2.076,7.744
		c0.181,0.264,0.331,0.553,0.44,0.882c0.111-0.329,0.26-0.618,0.44-0.882c0.249-1.959,0.198-6.045,2.076-7.744
		c1.344-1.215,2.882-0.577,2.772,0.093c1.986-0.136,3.75-2.179,2.849-4.037c-1.257-2.595-6.199-3.024-8.132-3.024
		c-1.931,0-6.888,0.43-8.143,3.024C-58.367,77.1-56.606,79.143-54.619,79.278z"/>
	<path fill="#333333" d="M-27.782,68.883c0,0-0.89-0.493-2.891-0.493c-2.002,0-8,2.629-8,2.629c2.635,1.604,4.638,2.189,6.158,2.189
		C-28.379,73.208-27.782,68.883-27.782,68.883z"/>
	<path fill="#333333" d="M-66.145,73.208c1.524,0,3.525-0.586,6.156-2.189c0,0-5.997-2.629-7.999-2.629
		c-2,0-2.889,0.493-2.889,0.493S-70.281,73.208-66.145,73.208z"/>
	<g>
		<path fill="#333333" d="M-32.143,93.6c-0.208-0.003-0.429-0.014-0.674-0.037c-0.23-0.023-0.451-0.056-0.666-0.092
			c-0.794-0.138-1.641-0.383-2.585-0.753c-1.216-0.466-2.405-1.062-3.458-1.583c-0.218-0.112-0.433-0.217-0.64-0.321
			c-0.341-0.165-0.744-0.344-1.234-0.539c-2.428-0.972-5.868-1.929-6.528-2.106c0.605-1.531,2.927-1.994,5.606-2.53
			c0.982-0.194,1.994-0.396,3.009-0.664c1.868-0.493,3.015-1.416,3.411-2.746c0.027-0.084,0.049-0.169,0.066-0.254
			c0.597-2.703-1.867-6.078-2.474-6.858c0.452-0.028,0.897-0.042,1.32-0.042c5.78,0,8.341,2.346,9.924,4.386l0.058,0.068
			c0.274,0.362,0.538,0.796,0.786,1.291c0.655,1.342,0.977,2.923,0.929,4.583c0,0.009-0.086,1.372-0.203,1.838
			c-0.414,2.181-1.4,3.906-2.934,5.145c-0.031,0.024-0.06,0.038-0.087,0.055c-0.033,0.021-0.067,0.041-0.102,0.068
			c-0.137,0.102-0.276,0.195-0.43,0.29c-0.197,0.121-0.411,0.228-0.645,0.332c-0.718,0.314-1.509,0.474-2.357,0.474
			C-32.063,93.603-32.143,93.6-32.143,93.6z"/>
	</g>
	<g>
		<path fill="#333333" d="M-66.608,93.608c-0.87,0-1.638-0.151-2.358-0.466c-0.201-0.091-0.427-0.189-0.643-0.322
			c-0.049-0.031-0.098-0.058-0.145-0.086c-0.101-0.058-0.198-0.112-0.29-0.181l-0.019-0.014c-0.058-0.047-0.119-0.094-0.197-0.104
			c-1.393-1.085-2.445-2.949-2.891-5.125h0.012l-0.028-0.129c-0.113-0.578-0.181-1.164-0.201-1.745l0,0v-0.068
			c-0.047-1.646,0.274-3.227,0.93-4.566c0.229-0.466,0.493-0.896,0.784-1.274l0.055-0.07c1.586-2.041,4.149-4.384,9.926-4.384
			c0.424,0,0.869,0.014,1.324,0.04c-0.61,0.779-3.07,4.153-2.476,6.86c0.018,0.084,0.042,0.168,0.066,0.252
			c0.393,1.329,1.542,2.252,3.41,2.747c1.014,0.267,2.026,0.468,3.009,0.664c2.68,0.537,5.002,0.998,5.604,2.531
			c-0.661,0.178-4.097,1.134-6.523,2.106c-0.493,0.194-0.896,0.372-1.236,0.539c-0.211,0.104-0.429,0.211-0.649,0.322
			c-1.048,0.523-2.235,1.116-3.448,1.582c-0.939,0.364-1.781,0.605-2.569,0.748c-0.214,0.039-0.436,0.066-0.667,0.093
			c-0.238,0.024-0.459,0.035-0.676,0.041c-0.021,0-0.042,0.003-0.064,0.003C-66.581,93.608-66.596,93.608-66.608,93.608z"/>
	</g>
</g>
<g>
	<path fill="#333333" d="M-72.029,23.286l0.326-0.893c0.562-1.534,1.688-2.771,3.172-3.466c2.667-1.476,4.545-1.783,5.647-1.783
		c0.125,0,0.231,0.006,0.334,0.01l0.319,0.021l0.183,0.263c0.661,0.934,1.434,1.85,2.3,2.732l0.207,0.209l-0.017,0.301
		c-0.042,0.634-0.066,1.297-0.084,1.966l-0.021,0.641H-72.029L-72.029,23.286z"/>
	<path fill="#F7F6F2" d="M-62.881,17.809c0.108,0,0.206,0.006,0.296,0.008c0.728,1.036,1.536,1.979,2.368,2.818
		c-0.039,0.647-0.063,1.312-0.087,1.987h-10.778c0.501-1.357,1.498-2.462,2.834-3.095l0.026-0.014
		C-65.664,18.104-63.906,17.809-62.881,17.809 M-62.881,16.481c-1.183,0-3.178,0.328-5.984,1.876
		c-1.587,0.746-2.836,2.107-3.459,3.812l-0.651,1.78h1.895h10.78h1.281l0.042-1.287c0.02-0.662,0.047-1.316,0.084-1.949l0.035-0.589
		l-0.413-0.419c-0.841-0.854-1.591-1.747-2.23-2.653l-0.37-0.52l-0.636-0.037C-62.627,16.49-62.746,16.481-62.881,16.481
		L-62.881,16.481z"/>
	<path fill="#333333" d="M-40.337,23.286l-0.02-0.644c-0.026-0.696-0.054-1.378-0.093-2.043l-0.015-0.299l0.207-0.207
		c0.401-0.4,0.782-0.801,1.135-1.207c0.4-0.455,0.776-0.934,1.146-1.454l0.18-0.251l0.312-0.024
		c0.111-0.007,0.228-0.013,0.366-0.013c1.103,0,2.979,0.308,5.662,1.787c1.47,0.689,2.594,1.924,3.159,3.458l0.324,0.893
		L-40.337,23.286L-40.337,23.286z"/>
	
		<linearGradient id="SVGID_1_" gradientUnits="userSpaceOnUse" x1="235.7773" y1="-370.2168" x2="249.9004" y2="-370.2168" gradientTransform="matrix(1 0 0 -1 -277.5 -350)">
		<stop  offset="0" style="stop-color:#F7F6F2"/>
		<stop  offset="1" style="stop-color:#E0DFDC"/>
	</linearGradient>
	<path fill="url(#SVGID_1_)" d="M-37.688,17.809c1.021,0,2.785,0.297,5.34,1.709l0.024,0.012c1.34,0.633,2.334,1.735,2.835,3.094
		h-10.779c-0.026-0.702-0.055-1.388-0.09-2.055c0.405-0.408,0.8-0.828,1.17-1.244c0.43-0.499,0.819-0.998,1.178-1.504
		C-37.908,17.814-37.806,17.809-37.688,17.809 M-37.688,16.481c-0.151,0-0.283,0.009-0.406,0.017l-0.625,0.041l-0.37,0.511
		c-0.364,0.502-0.72,0.966-1.11,1.403c-0.312,0.36-0.669,0.742-1.102,1.169l-0.423,0.425l0.035,0.593
		c0.037,0.657,0.071,1.337,0.09,2.027l0.032,1.285h1.291h10.779h1.896l-0.652-1.778c-0.625-1.709-1.873-3.067-3.516-3.846
		C-34.51,16.81-36.506,16.481-37.688,16.481L-37.688,16.481z"/>
	<path fill="#333333" d="M-70.146,30.669l-0.193-0.324c-1.291-2.2-1.881-4.265-1.751-6.137l0.042-0.617h12.381l-0.012,0.676
		c-0.033,1.827-0.024,3.744-0.011,5.736l0.005,0.666H-70.146L-70.146,30.669z"/>
	<path fill="#F7F6F2" d="M-59.677,24.25c-0.028,1.835-0.023,3.761-0.005,5.758H-69.1c-1.418-2.417-1.759-4.336-1.662-5.758H-59.677
		 M-58.326,22.927h-1.348h-11.088h-1.237l-0.085,1.238c-0.138,2.004,0.484,4.194,1.844,6.513l0.384,0.652h0.76h9.414h1.337
		l-0.013-1.334c-0.016-2.174-0.021-3.979,0.01-5.72L-58.326,22.927L-58.326,22.927z"/>
	<path fill="#333333" d="M-40.318,30.669l0.007-0.666c0.019-1.992,0.024-3.912-0.007-5.736l-0.011-0.676h12.377l0.043,0.617
		c0.127,1.872-0.461,3.935-1.756,6.138l-0.192,0.326h-10.462L-40.318,30.669L-40.318,30.669z"/>
	
		<linearGradient id="SVGID_2_" gradientUnits="userSpaceOnUse" x1="235.9238" y1="-377.1294" x2="249.7012" y2="-377.1294" gradientTransform="matrix(1 0 0 -1 -277.5 -350)">
		<stop  offset="0" style="stop-color:#F7F6F2"/>
		<stop  offset="1" style="stop-color:#E0DFDC"/>
	</linearGradient>
	<path fill="url(#SVGID_2_)" d="M-29.14,24.25c0.096,1.422-0.245,3.341-1.663,5.758h-9.417c0.014-1.994,0.02-3.923-0.008-5.758
		H-29.14 M-27.903,22.927h-1.236h-11.087h-1.349l0.021,1.352c0.032,1.848,0.027,3.838,0.009,5.721l-0.009,1.333h1.337h9.414h0.758
		l0.383-0.649c1.359-2.318,1.987-4.512,1.843-6.516L-27.903,22.927L-27.903,22.927z"/>
	<path fill="#333333" d="M-40.381,38.051l0.017-0.678c0.007-0.334,0.015-0.659,0.015-0.987c0-1.614,0.014-3.203,0.026-4.759
		l0.006-0.655h10.31l-0.765,1.053c-0.592,0.815-1.216,1.58-1.914,2.34c-0.983,1.089-1.933,2.24-2.826,3.424l-0.202,0.263H-40.381
		L-40.381,38.051z"/>
	
		<linearGradient id="SVGID_3_" gradientUnits="userSpaceOnUse" x1="235.6768" y1="-384.5166" x2="248.0342" y2="-384.5166" gradientTransform="matrix(1 0 0 -1 -277.5 -350)">
		<stop  offset="0" style="stop-color:#F7F6F2"/>
		<stop  offset="1" style="stop-color:#E0DFDC"/>
	</linearGradient>
	<path fill="url(#SVGID_3_)" d="M-32.07,31.635c-0.528,0.726-1.139,1.488-1.862,2.284c-1.045,1.151-1.994,2.31-2.868,3.472h-3.662
		c0.008-0.335,0.018-0.669,0.018-1.005c0-1.614,0.013-3.199,0.025-4.751H-32.07 M-29.466,30.312h-2.604h-8.354h-1.313l-0.011,1.313
		c-0.015,1.552-0.024,3.145-0.024,4.763c0,0.324-0.005,0.646-0.018,0.969l-0.032,1.354l1.358,0.011h3.661h0.657l0.4-0.528
		c0.878-1.171,1.815-2.307,2.792-3.377c0.706-0.773,1.344-1.562,1.953-2.393L-29.466,30.312L-29.466,30.312z"/>
	<path fill="#333333" d="M-64.286,38.051l-0.201-0.263c-0.888-1.184-1.841-2.339-2.828-3.424c-0.705-0.771-1.328-1.536-1.91-2.34
		l-0.765-1.053h10.311l0.005,0.655c0.013,1.556,0.03,3.145,0.03,4.759c0,0.284,0.027,1.667,0.027,1.667h-4.669V38.051z"/>
	<path fill="#F7F6F2" d="M-59.479,31.635c0.015,1.552,0.028,3.137,0.028,4.753c0,0.334,0.007,0.668,0.015,1.005h-3.661
		c-0.874-1.162-1.826-2.32-2.871-3.471c-0.726-0.799-1.338-1.562-1.864-2.284h8.353 M-58.167,30.312h-1.312h-8.353h-2.604
		l1.532,2.107c0.593,0.822,1.237,1.604,1.957,2.391c0.972,1.075,1.91,2.208,2.79,3.382l0.398,0.522h0.661h3.663h1.353l-0.028-1.355
		v-0.145c-0.005-0.276-0.013-0.549-0.013-0.828c0-1.618-0.01-3.209-0.025-4.763L-58.167,30.312L-58.167,30.312z"/>
	<path fill="#333333" d="M-41.327,46.104l0.16-0.793c0.368-1.875,0.612-3.787,0.73-5.668l0.042-0.627h4.442l-0.708,1.042
		c-1.283,1.888-2.338,3.789-3.141,5.645l-0.169,0.403L-41.327,46.104L-41.327,46.104z"/>
	<path fill="#333333" d="M-60.025,46.104l-0.173-0.401c-0.802-1.855-1.859-3.757-3.144-5.648l-0.707-1.038h4.443l0.041,0.624
		c0.116,1.856,0.364,3.767,0.738,5.671l0.152,0.793h-1.351v0.002h0.001V46.104z"/>
	<path fill="#333333" d="M-59.02,55.33c-3.607-6.6-7.622-12.192-11.929-16.631c-3.369-3.464-7.17-7.604-9.803-12.026
		c-2.987-5.021-3.875-9.405-2.712-13.394c2.308-7.938,8.368-13.668,16.212-15.323l0.683-0.143l0.108,0.69
		c0.149,0.953,0.63,2.854,2.134,4.812c0.432,0.566,0.925,1.097,1.469,1.593l0.489,0.439l-0.435,0.488
		c-1.3,1.47-2.56,4.043-1.173,7.951c0.321,0.91,0.766,1.828,1.327,2.738l0.596,0.969l-1.038,0.193
		c-1.015,0.038-2.738,0.369-5.185,1.709c-1.479,0.703-2.539,1.917-3.017,3.431c-0.066,0.199-0.118,0.408-0.163,0.618
		c-0.138,0.701-0.157,1.462-0.051,2.256c0.166,1.257,0.639,2.595,1.405,3.988c0.276,0.501,0.604,1.031,0.979,1.575
		c0.624,0.905,1.367,1.829,2.201,2.749c0.859,0.943,1.694,1.948,2.485,2.975c0.425,0.553,0.824,1.106,1.208,1.657
		c1.354,1.943,2.488,3.919,3.357,5.861c1.689,3.758,2.408,7.418,2.092,10.578l-0.213,2.131L-59.02,55.33z"/>
	<path fill="#F7F6F2" d="M-67.115-1.395c0.153,0.979,0.653,3.016,2.263,5.114c0.463,0.601,0.979,1.159,1.553,1.678
		c-1.42,1.606-2.795,4.399-1.303,8.606c0.356,1.011,0.835,1.965,1.385,2.865c0.031,0.05,0.066,0.1,0.098,0.155
		c-1.14,0.042-2.952,0.4-5.48,1.792c-1.612,0.761-2.796,2.123-3.329,3.804c-0.069,0.227-0.13,0.453-0.177,0.686
		c-0.134,0.689-0.186,1.516-0.061,2.479c0.161,1.193,0.593,2.603,1.486,4.223c0.289,0.517,0.625,1.065,1.01,1.628
		c0.614,0.89,1.357,1.831,2.257,2.814c0.879,0.975,1.692,1.952,2.451,2.941c0.417,0.542,0.811,1.083,1.19,1.629
		c1.336,1.922,2.444,3.855,3.298,5.755c1.621,3.619,2.344,7.137,2.036,10.243c-3.638-6.657-7.683-12.296-12.039-16.777
		c-3.343-3.441-7.112-7.551-9.707-11.908c-2.891-4.858-3.753-9.066-2.647-12.865C-80.287,4.727-73.648-0.02-67.115-1.395
		 M-66.025-2.981l-1.366,0.288c-8.088,1.705-14.332,7.605-16.71,15.785c-1.216,4.176-0.308,8.726,2.783,13.915
		c2.668,4.482,6.498,8.659,9.896,12.155c4.266,4.39,8.244,9.938,11.823,16.482l2.054,3.757l0.43-4.261
		c0.33-3.276-0.415-7.05-2.146-10.913c-0.888-1.984-2.041-3.991-3.422-5.972c-0.41-0.589-0.812-1.144-1.224-1.677
		c-0.804-1.044-1.65-2.059-2.521-3.018c-0.813-0.896-1.538-1.797-2.149-2.68c-0.359-0.526-0.678-1.041-0.941-1.513
		c-0.728-1.325-1.177-2.583-1.332-3.758c-0.095-0.72-0.081-1.412,0.045-2.045c0.038-0.18,0.087-0.37,0.145-0.546
		c0.419-1.336,1.354-2.407,2.628-3.006l0.033-0.019l0.037-0.021c2.327-1.28,3.944-1.593,4.887-1.624l2.243-0.085l-1.156-1.925
		l-0.071-0.116c-0.569-0.918-0.996-1.797-1.301-2.66c-1.023-2.891-0.671-5.346,1.048-7.293l0.865-0.979l-0.971-0.877
		c-0.513-0.466-0.979-0.971-1.385-1.503c-1.42-1.847-1.867-3.618-2.009-4.513L-66.025-2.981L-66.025-2.981z"/>
	<path fill="#333333" d="M-42.219,55.077c-0.318-3.166,0.399-6.819,2.092-10.577c0.87-1.944,1.999-3.913,3.358-5.859
		c0.378-0.557,0.78-1.108,1.208-1.654c0.798-1.037,1.636-2.04,2.484-2.979c0.839-0.92,1.58-1.843,2.203-2.748
		c0.369-0.545,0.703-1.07,0.979-1.576c0.771-1.389,1.241-2.731,1.403-3.986c0.107-0.795,0.092-1.56-0.049-2.26
		c-0.043-0.212-0.096-0.416-0.162-0.618c-0.474-1.516-1.535-2.727-2.979-3.404c-2.488-1.372-4.211-1.695-5.233-1.73l-1.168-0.039
		l0.629-0.977l0.657,0.202l-0.558-0.351c0.571-0.916,1.019-1.836,1.34-2.736c1.385-3.897,0.126-6.476-1.172-7.947l-0.435-0.488
		l0.484-0.441c0.546-0.491,1.04-1.024,1.471-1.59c1.507-1.96,1.98-3.859,2.131-4.811l0.108-0.692l0.683,0.143
		c7.848,1.657,13.909,7.389,16.216,15.323c1.164,3.99,0.271,8.372-2.715,13.392c-2.628,4.422-6.429,8.562-9.801,12.038
		c-4.31,4.432-8.323,10.031-11.927,16.626l-1.033,1.88L-42.219,55.077z"/>
	<path fill="#F7F6F2" d="M-32.883-1.395c6.536,1.375,13.173,6.115,15.712,14.857c1.109,3.799,0.243,8.008-2.642,12.864
		c-2.595,4.36-6.363,8.469-9.708,11.911c-4.357,4.479-8.404,10.122-12.039,16.772c-0.313-3.104,0.409-6.617,2.034-10.239
		c0.851-1.903,1.962-3.838,3.297-5.757c0.377-0.547,0.774-1.086,1.192-1.627c0.76-0.988,1.57-1.97,2.449-2.941
		c0.904-0.985,1.645-1.927,2.257-2.815c0.385-0.564,0.723-1.111,1.012-1.628c0.893-1.618,1.327-3.027,1.482-4.221
		c0.131-0.967,0.078-1.788-0.06-2.479c-0.048-0.23-0.107-0.461-0.174-0.688c-0.534-1.683-1.712-3.046-3.329-3.806
		c-2.536-1.402-4.355-1.756-5.495-1.795c0.033-0.05,0.062-0.098,0.096-0.15c0.594-0.948,1.067-1.906,1.407-2.865
		c1.489-4.205,0.113-7-1.306-8.609c0.573-0.519,1.093-1.072,1.551-1.676C-33.538,1.623-33.037-0.414-32.883-1.395 M-33.976-2.981
		l-0.216,1.38c-0.142,0.896-0.591,2.67-2.007,4.515c-0.406,0.534-0.878,1.035-1.385,1.499l-0.971,0.885l0.865,0.979
		c1.718,1.945,2.072,4.398,1.047,7.287c-0.302,0.855-0.733,1.729-1.28,2.604l-0.056,0.092l-1.277,1.969l2.317,0.119
		c0.944,0.031,2.562,0.341,4.895,1.627l0.04,0.021l0.038,0.018c1.272,0.602,2.21,1.673,2.629,3.009
		c0.054,0.176,0.103,0.361,0.14,0.546c0.126,0.633,0.144,1.322,0.047,2.045c-0.156,1.177-0.604,2.435-1.331,3.758
		c-0.266,0.48-0.584,0.992-0.945,1.517c-0.608,0.879-1.327,1.782-2.145,2.676c-0.867,0.953-1.714,1.97-2.52,3.018
		c-0.433,0.565-0.845,1.129-1.229,1.679c-1.378,1.985-2.529,3.991-3.417,5.973c-1.734,3.86-2.475,7.636-2.143,10.915l0.427,4.264
		l2.054-3.762c3.573-6.547,7.551-12.096,11.821-16.485c3.398-3.501,7.227-7.676,9.896-12.155c3.085-5.191,3.997-9.741,2.781-13.915
		c-2.375-8.18-8.624-14.08-16.71-15.785L-33.976-2.981L-33.976-2.981z"/>
	<path fill="#333333" d="M-51.316,26.665c-0.503,0-2.598-1.25-3.531-1.854c-0.806-0.524-1.593-1.085-2.335-1.661
		c-1.292-1-2.45-2.058-3.447-3.13c-0.435-0.46-0.849-0.943-1.241-1.444c-0.165-0.21-0.321-0.426-0.481-0.643
		c-0.129-0.179-0.251-0.354-0.376-0.534l-0.102-0.163c-0.708-1.081-1.262-2.186-1.647-3.267c-1.472-4.157-0.115-6.908,1.284-8.486
		l0.419-0.477l0.493,0.398c0.703,0.566,1.489,1.078,2.339,1.527l0.365,0.192l-0.008,0.412c-0.007,0.304,0,0.607,0.016,0.905
		c0.014,0.252,0.036,0.502,0.062,0.756c0.024,0.234,0.06,0.476,0.095,0.709c0.167,1.097,0.454,2.24,0.854,3.393
		c0.375,1.076,0.846,2.18,1.403,3.272c0.949,1.872,2.149,3.778,3.561,5.66c0.454,0.607,0.882,1.146,1.258,1.605
		c0.885,1.07,1.498,1.71,1.502,1.712l1.082,1.122L-51.316,26.665L-51.316,26.665z"/>
	<path fill="#F7F6F2" d="M-62.698,5.913c0.738,0.596,1.556,1.128,2.449,1.601c-0.007,0.315,0,0.636,0.016,0.953
		c0.017,0.268,0.041,0.531,0.068,0.799c0.026,0.245,0.062,0.488,0.094,0.729c0.182,1.189,0.49,2.371,0.884,3.518
		c0.403,1.158,0.897,2.285,1.441,3.355c1.127,2.225,2.461,4.209,3.619,5.754c0.462,0.619,0.899,1.167,1.283,1.629
		c0.912,1.11,1.533,1.755,1.533,1.755c-0.123,0-1.429-0.621-3.168-1.755c-0.712-0.458-1.49-1.003-2.292-1.629
		c-1.125-0.871-2.292-1.896-3.37-3.055c-0.416-0.45-0.819-0.916-1.203-1.4c-0.161-0.203-0.311-0.414-0.464-0.623
		c-0.123-0.169-0.244-0.34-0.36-0.516c-0.034-0.05-0.067-0.104-0.103-0.156c-0.639-0.982-1.188-2.027-1.578-3.124
		C-65.174,10.018-64.103,7.498-62.698,5.913 M-62.85,4.088l-0.839,0.949c-1.516,1.712-2.992,4.688-1.414,9.147
		c0.403,1.136,0.981,2.284,1.719,3.412c0.065,0.099,0.095,0.147,0.124,0.19c0.106,0.162,0.238,0.348,0.37,0.53
		c0.162,0.223,0.327,0.442,0.5,0.658c0.388,0.503,0.818,1.005,1.278,1.495c1.02,1.099,2.206,2.175,3.524,3.199
		c0.758,0.589,1.558,1.159,2.384,1.692c0.708,0.464,3.086,1.971,3.892,1.971h3.115l-2.159-2.245
		c-0.005-0.005-0.604-0.632-1.464-1.675c-0.405-0.484-0.823-1.018-1.247-1.581c-1.386-1.852-2.563-3.719-3.496-5.557
		c-0.543-1.072-1.005-2.149-1.373-3.192c-0.386-1.114-0.663-2.222-0.824-3.28c-0.032-0.214-0.064-0.438-0.089-0.664
		c-0.021-0.246-0.045-0.492-0.058-0.729C-58.92,8.127-58.93,7.84-58.92,7.553l0.021-0.822l-0.729-0.383
		c-0.812-0.428-1.563-0.92-2.233-1.46L-62.85,4.088L-62.85,4.088z"/>
	<path fill="#333333" d="M-50.461,26.665l1.104-1.12c0.006-0.006,0.63-0.646,1.528-1.714c0.384-0.46,0.818-0.996,1.284-1.604
		c1.445-1.886,2.663-3.791,3.627-5.66c0.592-1.141,1.084-2.268,1.462-3.346c0.402-1.139,0.691-2.264,0.862-3.357
		c0.038-0.236,0.069-0.463,0.095-0.697c0.029-0.256,0.052-0.504,0.067-0.757c0.013-0.296,0.024-0.591,0.019-0.881l-0.006-0.406
		l0.363-0.188c0.863-0.458,1.653-0.973,2.345-1.533l0.491-0.395l0.421,0.475c1.398,1.577,2.758,4.331,1.289,8.486
		c-0.39,1.09-0.952,2.191-1.675,3.272l-0.077,0.12c-0.123,0.182-0.251,0.359-0.377,0.539c-0.202,0.271-0.371,0.488-0.54,0.705
		c-0.376,0.467-0.774,0.917-1.187,1.356c-1.042,1.104-2.256,2.178-3.594,3.191c-0.765,0.58-1.568,1.139-2.389,1.66
		c-0.577,0.369-3.022,1.854-3.53,1.854H-50.461L-50.461,26.665L-50.461,26.665z"/>
	<path fill="#F7F6F2" d="M-37.298,5.913c1.403,1.585,2.476,4.101,1.153,7.83c-0.388,1.099-0.944,2.144-1.598,3.126
		c-0.024,0.037-0.052,0.08-0.075,0.118c-0.131,0.194-0.261,0.379-0.398,0.566c-0.16,0.215-0.322,0.426-0.488,0.634
		c-0.369,0.452-0.752,0.893-1.151,1.316c-1.123,1.184-2.339,2.234-3.511,3.118c-0.826,0.627-1.624,1.17-2.346,1.628
		c-1.779,1.136-3.095,1.757-3.172,1.757c0,0,0.633-0.646,1.562-1.757c0.392-0.462,0.833-1.009,1.304-1.628
		c1.182-1.544,2.541-3.528,3.689-5.753c0.565-1.097,1.08-2.249,1.5-3.428c0.398-1.139,0.707-2.307,0.892-3.482
		c0.038-0.242,0.073-0.484,0.097-0.727c0.029-0.264,0.056-0.526,0.068-0.79c0.018-0.306,0.024-0.616,0.022-0.925
		C-38.856,7.045-38.039,6.512-37.298,5.913 M-37.151,4.088l-0.987,0.797c-0.651,0.533-1.406,1.025-2.235,1.459l-0.719,0.378
		l0.016,0.812c0.001,0.281-0.007,0.561-0.025,0.844c-0.008,0.232-0.031,0.469-0.059,0.705c-0.026,0.23-0.054,0.45-0.091,0.673
		c-0.163,1.052-0.444,2.146-0.831,3.243c-0.369,1.053-0.849,2.152-1.425,3.263c-0.95,1.828-2.149,3.705-3.564,5.559
		c-0.418,0.549-0.842,1.075-1.268,1.578c-0.881,1.051-1.487,1.674-1.494,1.677l-2.205,2.249l3.152,0.005
		c0.747,0,3.164-1.502,3.885-1.964c0.835-0.527,1.651-1.098,2.43-1.684c1.374-1.04,2.61-2.139,3.675-3.27
		c0.447-0.473,0.844-0.93,1.223-1.395c0.176-0.224,0.348-0.446,0.514-0.671l0.003-0.01l0.038-0.053
		c0.136-0.182,0.268-0.369,0.392-0.556l0.011-0.015l0.041-0.062c0.781-1.178,1.374-2.326,1.775-3.468
		c1.577-4.46,0.102-7.436-1.416-9.147L-37.151,4.088L-37.151,4.088z"/>
	<path fill="#333333" d="M-43.707,12.727c-2.356,0-3.929,3.93-3.929,3.93c0.172,0.016,0.335,0.023,0.498,0.027h0.758
		c1.431-0.054,2.44-0.464,3.083-0.998c0.746-0.621,1.002-1.408,0.859-2.014C-42.56,13.127-43.005,12.727-43.707,12.727z"/>
	<path fill="#333333" d="M-57.582,13.747c-0.098,0.562,0.137,1.259,0.765,1.835c0.635,0.584,1.681,1.047,3.199,1.103h0.759
		c0.162-0.004,0.324-0.015,0.493-0.028c0,0-1.569-3.928-3.923-3.928C-57.026,12.727-57.482,13.162-57.582,13.747z"/>
	<path fill="#333333" d="M-50.26,9.838c-2.234-0.123-4.287-0.441-6.131-0.956c-0.967-0.271-1.874-0.593-2.694-0.956
		c-0.126-0.053-0.631-0.281-0.631-0.281s-0.713-0.373-0.811-0.429c-0.719-0.397-1.396-0.856-2.027-1.359l-0.424-0.351l-0.213-0.189
		c-2.891-2.617-3.618-5.601-3.798-6.76c-0.03-0.201-0.046-0.346-0.052-0.437l-0.037-0.368l0.293-0.324c0,0,0.211-0.164,0.617-0.422
		c2-1.281,7.528-4.25,15.683-4.25h0.969c8.162,0,13.692,2.973,15.688,4.25c0.407,0.263,0.619,0.422,0.619,0.422l0.272,0.208
		l-0.021,0.475c-0.01,0.098-0.019,0.239-0.053,0.438c-0.179,1.164-0.905,4.148-3.794,6.764l-0.318,0.28l-0.318,0.263
		c-0.632,0.504-1.312,0.963-2.031,1.361l-0.821,0.43c0,0-0.488,0.224-0.619,0.279c-0.819,0.359-1.726,0.682-2.692,0.949
		c-1.842,0.518-3.894,0.837-6.095,0.962h-0.019L-50.26,9.838L-50.26,9.838L-50.26,9.838z"/>
	<path fill="#F7F6F2" d="M-50.486-6.586c0,0,0.004,0,0.005,0c0.156,0,0.321,0.004,0.48,0.004c0.165,0,0.324-0.004,0.481-0.004
		c8.113,0,13.612,3.049,15.335,4.148c0.377,0.24,0.577,0.391,0.577,0.391s0,0.042-0.005,0.103c-0.011,0.083-0.022,0.216-0.05,0.397
		c-0.17,1.109-0.866,3.906-3.589,6.369c-0.092,0.09-0.197,0.173-0.301,0.264c-0.1,0.089-0.205,0.17-0.311,0.258
		c-0.57,0.449-1.21,0.889-1.934,1.296c-0.127,0.069-0.263,0.134-0.392,0.204c-0.089,0.047-0.175,0.096-0.271,0.141
		c-0.039,0.021-0.075,0.044-0.118,0.061c-0.08,0.037-0.161,0.078-0.238,0.11c-0.119,0.056-0.238,0.108-0.361,0.159
		c-0.79,0.35-1.655,0.657-2.608,0.924c-1.692,0.471-3.656,0.808-5.953,0.936h-0.52c-2.298-0.128-4.263-0.463-5.954-0.936
		c-0.952-0.267-1.82-0.574-2.607-0.924c-0.123-0.049-0.243-0.102-0.362-0.159c-0.08-0.036-0.166-0.076-0.245-0.114
		c-0.04-0.019-0.073-0.035-0.113-0.057c-0.096-0.049-0.184-0.096-0.276-0.146c-0.131-0.065-0.265-0.129-0.389-0.198
		c-0.729-0.409-1.367-0.841-1.935-1.296c-0.104-0.091-0.207-0.169-0.307-0.258c-0.104-0.091-0.203-0.174-0.303-0.264
		c-2.725-2.463-3.417-5.26-3.585-6.369c-0.028-0.18-0.042-0.314-0.053-0.397c-0.002-0.062-0.005-0.103-0.005-0.103
		s0.199-0.15,0.575-0.391C-64.097-3.537-58.598-6.586-50.486-6.586 M-49.517-7.908l-0.494,0.002l-0.47-0.002
		c-8.338,0-14,3.047-16.051,4.355c-0.427,0.274-0.655,0.442-0.655,0.442l-0.599,0.446l0.072,0.748v0.019l0.006,0.074
		c0.007,0.099,0.027,0.255,0.059,0.47c0.189,1.238,0.959,4.4,4.005,7.158c0.075,0.065,0.15,0.129,0.228,0.194l0.089,0.085
		c0.127,0.104,0.234,0.195,0.35,0.289c0.66,0.523,1.374,1.004,2.12,1.424c0.111,0.062,0.223,0.117,0.337,0.176l0.096,0.044
		c0.073,0.041,0.175,0.097,0.285,0.152l0.115,0.058l0.175,0.085l0.103,0.042c0.124,0.061,0.259,0.123,0.402,0.18
		c0.838,0.371,1.774,0.703,2.771,0.983c1.889,0.522,3.987,0.854,6.235,0.978l0.034,0.004h0.036h0.522h0.035l0.037-0.004
		c2.244-0.124,4.348-0.455,6.233-0.978c0.999-0.282,1.934-0.612,2.788-0.989c0.129-0.051,0.266-0.113,0.399-0.176l0.04-0.018
		l0.197-0.088l0.125-0.063c0.071-0.036,0.134-0.071,0.198-0.104l0.092-0.043l0.192-0.1c0.083-0.043,0.166-0.087,0.247-0.129
		c0.75-0.42,1.463-0.898,2.125-1.43c0.113-0.089,0.223-0.178,0.331-0.27l0.11-0.098c0.081-0.068,0.161-0.138,0.236-0.203
		c3.038-2.754,3.808-5.913,3.997-7.149c0.034-0.218,0.051-0.374,0.062-0.475c0.01-0.116,0.01-0.177,0.01-0.177l0.022-0.684
		l-0.544-0.424c0,0-0.226-0.172-0.663-0.448C-35.517-4.861-41.183-7.908-49.517-7.908L-49.517-7.908z"/>
	<path fill="#333333" d="M-50.269,47.432l-1.74-0.899c-0.647-0.334-1.191-0.769-1.665-1.333c-0.983-1.182-1.461-2.82-1.461-5.014
		c0-0.417,0.053-0.864,0.156-1.312c0.129-0.581,0.345-1.182,0.645-1.782c0.709-1.424,1.742-2.619,2.429-3.407
		c0.041-0.076,0.193-0.459,0.387-2.122l0.17-1.621c0.146-1.429,0.287-2.661,0.516-3.35c0.192-0.576,0.506-0.872,0.936-0.872h0.148
		l0.2,0.082c0.191,0.117,0.282,0.205,0.359,0.324c0.089,0.125,0.157,0.285,0.219,0.495c0.198,0.685,0.287,1.922,0.376,3.349
		c0.035,0.6,0.068,1.125,0.103,1.621c0.125,1.633,0.268,2.016,0.32,2.104l0.077,0.092c0.72,0.827,1.705,1.963,2.4,3.305
		c0.309,0.606,0.537,1.205,0.667,1.782c0.108,0.463,0.159,0.895,0.159,1.315c0,2.134-0.476,3.775-1.455,5.002
		c-0.439,0.55-0.96,1.007-1.552,1.344l-1.776,1.024l0.242,0.318l-0.419-0.214l-1.203,0.691L-50.269,47.432z M-49.897,38.357
		c-0.68,0-1.278,0.354-1.726,1.026c-0.482,0.722-0.736,1.719-0.736,2.886c0,0.865,0.305,1.68,0.562,2.215
		c0.302,0.638,0.619,1.047,0.619,1.055l1.182,1.558l1.283-1.565c0.002-0.006,0.345-0.425,0.672-1.061
		c0.402-0.778,0.605-1.516,0.605-2.203c0-1.165-0.255-2.166-0.735-2.886C-48.485,38.919-49.037,38.357-49.897,38.357z"/>
	<path fill="#F7F6F2" d="M-49.897,26.376c0.026,0,0.042,0.012,0.068,0.017c0,0.004,0,0.004,0,0.004c0.002,0,0.002,0,0.006,0.004
		c0.03,0.016,0.06,0.051,0.087,0.089c0.046,0.071,0.088,0.171,0.13,0.307c0.183,0.631,0.267,1.897,0.348,3.211
		c0.033,0.549,0.068,1.106,0.11,1.626c0.088,1.187,0.212,2.188,0.458,2.469c0.706,0.813,1.716,1.95,2.407,3.289
		c0.263,0.515,0.481,1.06,0.611,1.626c0.091,0.381,0.145,0.771,0.145,1.169c0,2.009-0.456,3.515-1.316,4.592
		c-0.375,0.47-0.82,0.869-1.361,1.183c0,0,0.384-0.466,0.751-1.183c0.347-0.669,0.677-1.561,0.677-2.508
		c0-1.363-0.326-2.462-0.848-3.255c-0.566-0.856-1.377-1.322-2.277-1.322c-0.9,0-1.708,0.466-2.278,1.322
		c-0.521,0.786-0.843,1.889-0.843,3.255c0,0.949,0.306,1.839,0.624,2.508c0.341,0.709,0.692,1.168,0.692,1.168
		c-0.59-0.305-1.065-0.698-1.461-1.168c-0.902-1.077-1.309-2.587-1.309-4.592c0-0.399,0.053-0.786,0.14-1.169
		c0.125-0.566,0.332-1.111,0.593-1.626c0.66-1.332,1.636-2.467,2.336-3.279c0.243-0.279,0.404-1.283,0.544-2.479
		c0.057-0.52,0.116-1.073,0.172-1.626c0.135-1.313,0.277-2.58,0.486-3.211C-50.115,26.535-50.015,26.376-49.897,26.376
		 M-49.897,25.05c-0.423,0-1.182,0.173-1.564,1.331c-0.25,0.751-0.388,1.97-0.547,3.489l-0.019,0.184
		c-0.051,0.486-0.102,0.977-0.151,1.433c-0.145,1.253-0.26,1.707-0.313,1.854c-0.704,0.812-1.722,2.017-2.441,3.455
		c-0.318,0.643-0.554,1.29-0.7,1.932c-0.11,0.488-0.167,0.979-0.167,1.455c0,2.355,0.527,4.131,1.616,5.438
		c0.524,0.628,1.155,1.127,1.872,1.499l1.022,0.53l-2.479,3.043l3.96-2.284l2.752,1.417l-1.599-2.079l1.11-0.643
		c0.665-0.377,1.243-0.888,1.74-1.505c1.065-1.332,1.604-3.153,1.604-5.413c0-0.479-0.062-0.958-0.18-1.472
		c-0.146-0.628-0.387-1.277-0.721-1.926c-0.739-1.42-1.754-2.582-2.492-3.44l-0.005-0.007c-0.045-0.158-0.142-0.612-0.231-1.807
		c-0.039-0.488-0.071-1.015-0.104-1.531l-0.003-0.073c-0.093-1.521-0.181-2.742-0.401-3.496c-0.081-0.277-0.182-0.504-0.311-0.688
		c-0.09-0.136-0.197-0.256-0.315-0.35l-0.094-0.098l-0.127-0.055l-0.059-0.035l-0.096-0.035
		C-49.517,25.094-49.707,25.05-49.897,25.05L-49.897,25.05z M-50.649,45.134c0,0-0.281-0.369-0.549-0.933
		c-0.225-0.473-0.495-1.188-0.495-1.928c0-1.31,0.338-2.092,0.622-2.519c0.227-0.338,0.61-0.738,1.176-0.738
		c0.568,0,0.955,0.403,1.181,0.738c0.28,0.427,0.621,1.214,0.621,2.519c0,0.569-0.184,1.224-0.529,1.896
		c-0.292,0.568-0.598,0.944-0.601,0.95l-0.74,0.908L-50.649,45.134L-50.649,45.134L-50.649,45.134z"/>
</g>
<g>
	<g>
		<path fill="#333333" d="M-43.397,255.519c0,0,2.81-4.838,7.025-4.838c4.216,0,4.059-0.626,4.059-0.626
			S-33.562,254.585-43.397,255.519z"/>
		<g>
			<path fill="#333333" d="M-56.601,255.519c0,0-2.811-4.838-7.027-4.838c-4.215,0-4.06-0.626-4.06-0.626
				S-66.438,254.585-56.601,255.519z"/>
		</g>
	</g>
	<g>
		<path fill="#333333" d="M-67.932,262.223c-2.965-3.279-4.843-6.559-3.124-12.646c0,0-0.31,6.244,6.247,7.492
			c6.558,1.251,7.806,1.251,7.806,1.251l0.781,8.743c0,0-3.746,2.651-3.277,5.774c0.466,3.123,0.466,3.123,0.466,3.123l-3.861-1.562
			"/>
		<g>
			<path fill="#333333" d="M-37.106,274.398l-3.863,1.562c0,0,0,0,0.468-3.123c0.47-3.123-3.276-5.774-3.276-5.774l0.783-8.743
				c0,0,1.246,0,7.804-1.251c6.559-1.248,6.246-7.492,6.246-7.492c1.716,6.087-0.155,9.364-3.12,12.646L-37.106,274.398z"/>
		</g>
	</g>
	<path fill="#333333" d="M-46.299,271.288c-1.923-0.297-2.571,0-3.702,0c-1.125,0-1.773-0.297-3.699,0
		c-1.924,0.297-1.924,2.514-1.924,2.514s-0.019,4.44,5.623,4.44c5.639,0,5.625-4.44,5.625-4.44S-44.377,271.585-46.299,271.288z"/>
	<g>
		<path fill="#333333" d="M-57.458,277.737c-0.084,0.018-0.174,0.035-0.261,0.059c0,0,1.746,7.835,2.297,7.896
			c0.551,0.061,0.781-0.642,0.781-0.642l0.662-5.052C-55.654,279.493-56.745,278.682-57.458,277.737z"/>
		<path fill="#333333" d="M-46.02,280.026l0.66,5.023c0,0,0.229,0.702,0.78,0.642c0.549-0.059,2.297-7.896,2.297-7.896
			c-0.056-0.016-0.114-0.028-0.17-0.041C-43.178,278.714-44.297,279.528-46.02,280.026z"/>
	</g>
	<g>
		<g>
			<g>
				<path fill="#333333" d="M-40.024,232.326c-0.439-0.728,14.368-8.901,16.688-9.567c2.314-0.669,1.997,6.954-1.048,11.22
					c-3.042,4.262-5.87,7.96-5.87,7.96c-2.585-2.016,0.233-3.514-3.244-7.096C-36.975,231.261-39.585,233.055-40.024,232.326z"/>
			</g>
		</g>
		<g>
			<g>
				<path fill="#333333" d="M-58.726,232.249c0.469-0.777-15.353-9.515-17.83-10.227c-2.478-0.71-2.137,7.431,1.113,11.988
					c3.25,4.555,6.274,8.508,6.274,8.508c2.766-2.157-0.247-3.755,3.466-7.581C-61.988,231.108-59.198,233.025-58.726,232.249z"/>
			</g>
		</g>
	</g>
	<path fill="#333333" d="M-42.006,229.124c0,0-5.492-0.12-6.216,7.86c-0.726,7.981-0.847,12.094-1.57,12.094h-0.416
		c-0.726,0-0.846-4.112-1.572-12.094c-0.723-7.981-6.214-7.86-6.214-7.86s4.159-2.541,8.151-2.541
		C-45.852,226.585-42.006,229.124-42.006,229.124z"/>
</g>
</svg>
