<?xml version="1.0" encoding="utf-8"?>
<!-- Generator: Adobe Illustrator 15.0.2, SVG Export Plug-In . SVG Version: 6.00 Build 0)  -->
<!DOCTYPE svg PUBLIC "-//W3C//DTD SVG 1.1//EN" "http://www.w3.org/Graphics/SVG/1.1/DTD/svg11.dtd">
<svg version="1.1" id="Layer_1" xmlns="http://www.w3.org/2000/svg" xmlns:xlink="http://www.w3.org/1999/xlink" x="0px" y="0px"
	 width="128px" height="128px" viewBox="-85.5 164.5 128 128" enable-background="new -85.5 164.5 128 128" xml:space="preserve">
<g id="Layer_1_1_" display="none">
</g>
<g id="Layer_2">
</g>
<g id="Layer_3">
	<g>
		<g>
			<path fill="#0BA595" d="M-22.435,289.494c-5.576-8.402-14.026-10.693-22.974-13.117c-5.076-1.377-10.325-2.799-15.101-5.42
				c-4.653-2.551-9.455-7.398-11.95-12.061c-7.662-14.309-3.27-29.789,0.976-44.758c1.646-5.809,3.203-11.293,4.062-16.656
				c1.291-8.074-2.947-22.889-2.989-23.037l-0.176-0.607l11.604-8.338l0.44,0.154c0.08,0.029,8.031,2.773,15.504,2.773
				c1.62,0,3.114-0.129,4.444-0.387c8.671-1.664,16.986-1.936,17.068-1.938l0,0c0.109,0,8.421,0.266,17.126,1.938
				c1.436,0.277,3.063,0.416,4.834,0.416c7.377,0,15.061-2.414,15.137-2.438l0.422-0.135l11.6,8.137l-0.181,0.617
				c-0.042,0.146-4.277,14.865-2.988,22.938c0.86,5.367,2.417,10.855,4.067,16.66c4.242,14.949,8.631,30.402,0.972,44.705
				c-2.485,4.641-7.284,9.479-11.952,12.035c-4.778,2.621-10.025,4.043-15.103,5.42c-8.946,2.424-17.395,4.707-22.968,13.105
				l-0.937,1.395L-22.435,289.494z"/>
			<g>
				<path fill="#FFFFFF" d="M-58.837,166.5c0,0,8.077,2.824,15.799,2.824c1.577,0,3.139,0.289,4.613,0.006
					c8.704-1.672,16.926-1.518,16.926-1.518h0.002c0,0,8.223-0.154,16.926,1.518c1.599,0.309,3.296,0.23,5.005,0.23
					c7.601,0,15.409-2.58,15.409-2.58l10.712,7.461c0,0-4.349,14.936-3.016,23.303c3.102,19.373,15.532,41.375,5.135,60.789
					c-2.428,4.537-7.062,9.182-11.591,11.668c-12.934,7.096-29.357,5.201-38.385,18.809l-0.19,0.281l-0.197-0.297
					c-9.03-13.605-25.454-11.725-38.387-18.824c-4.528-2.484-9.163-7.162-11.591-11.697c-10.396-19.414,2.032-41.479,5.131-60.848
					c1.337-8.363-3.013-23.426-3.013-23.426L-58.837,166.5 M-59.126,164.5l-0.757,0.543l-10.712,7.697l-1.028,0.738l0.35,1.217
					c0.043,0.145,4.224,14.775,2.966,22.645c-0.85,5.312-2.399,10.773-4.039,16.555c-4.295,15.141-8.736,30.797-0.902,45.42
					c2.609,4.881,7.441,9.756,12.308,12.428c4.87,2.67,10.171,4.111,15.297,5.496c8.779,2.381,17.072,4.627,22.457,12.746
					l0.204,0.305l1.489,2.211l1.489-2.211l0.189-0.285c5.391-8.123,13.682-10.369,22.458-12.744
					c5.126-1.385,10.426-2.818,15.298-5.492c4.88-2.676,9.71-7.543,12.309-12.398c7.829-14.617,3.393-30.252-0.9-45.373
					c-1.643-5.783-3.191-11.244-4.042-16.559c-1.257-7.869,2.921-22.4,2.963-22.543l0.357-1.234l-1.051-0.734l-10.705-7.514
					l-0.725-0.512l-0.848,0.268c-0.073,0.025-7.648,2.396-14.866,2.396c-1.716,0-3.286,0.27-4.667,0.006
					c-8.741-1.678-16.865-1.547-17.208-1.547h-0.056h-0.058c-0.341,0-8.466-0.131-17.209,1.547
					c-1.273,0.246-2.712,0.166-4.274,0.166c-7.332,0-15.128-2.799-15.207-2.826L-59.126,164.5L-59.126,164.5z"/>
			</g>
		</g>
		<g>
			<path fill="#FFFFFF" d="M-14.141,226.49c0,0,3.671-6.324,9.185-6.324c5.508,0,5.303-0.818,5.303-0.818
				S-1.285,225.27-14.141,226.49z"/>
			<g>
				<path fill="#FFFFFF" d="M-31.4,226.49c0,0-3.673-6.324-9.185-6.324c-5.509,0-5.305-0.818-5.305-0.818
					S-44.257,225.27-31.4,226.49z"/>
			</g>
		</g>
		<g>
			<path fill="#FFFFFF" d="M-46.21,235.254c-3.877-4.289-6.328-8.57-4.083-16.525c0,0-0.409,8.16,8.164,9.793
				c8.571,1.633,10.205,1.633,10.205,1.633l1.019,11.428c0,0-4.898,3.469-4.287,7.551c0.612,4.08,0.612,4.08,0.612,4.08
				l-5.048-2.043"/>
			<g>
				<path fill="#FFFFFF" d="M-5.916,251.17l-5.046,2.041c0,0,0,0,0.611-4.08c0.616-4.08-4.286-7.551-4.286-7.551l1.018-11.428
					c0,0,1.636,0,10.206-1.631c8.569-1.633,8.163-9.795,8.163-9.795c2.245,7.957-0.203,12.24-4.081,16.525L-5.916,251.17z"/>
			</g>
		</g>
		<path fill="#FFFFFF" d="M-17.934,247.104c-2.513-0.387-3.364,0-4.836,0c-1.473,0-2.319-0.387-4.835,0s-2.514,3.285-2.514,3.285
			s-0.023,5.805,7.35,5.805c7.372,0,7.351-5.805,7.351-5.805S-15.419,247.49-17.934,247.104z"/>
		<g>
			<path fill="#FFFFFF" d="M-32.518,255.531c-0.111,0.021-0.224,0.045-0.34,0.076c0,0,2.283,10.242,3.002,10.322
				c0.72,0.078,1.021-0.842,1.021-0.842l0.866-6.604C-30.163,257.824-31.586,256.768-32.518,255.531z"/>
			<path fill="#FFFFFF" d="M-17.566,258.525l0.858,6.562c0,0,0.301,0.92,1.019,0.842c0.718-0.08,3.004-10.322,3.004-10.322
				c-0.076-0.021-0.149-0.035-0.225-0.051C-13.854,256.811-15.312,257.875-17.566,258.525z"/>
		</g>
		<g>
			<g>
				<g>
					<path fill="#FFFFFF" d="M-9.73,196.172c-0.573-0.947,18.78-11.635,21.812-12.508c3.028-0.873,2.609,9.092-1.368,14.666
						c-3.976,5.568-7.673,10.406-7.673,10.406c-3.382-2.637,0.305-4.594-4.242-9.275C-5.745,194.781-9.158,197.123-9.73,196.172z"/>
				</g>
			</g>
			<g>
				<g>
					<path fill="#FFFFFF" d="M-34.178,196.072c0.613-1.018-20.067-12.438-23.306-13.369c-3.237-0.928-2.792,9.717,1.458,15.672
						c4.249,5.951,8.198,11.119,8.198,11.119c3.614-2.814-0.322-4.904,4.534-9.908C-38.439,194.582-34.792,197.088-34.178,196.072z"
						/>
				</g>
			</g>
		</g>
		<path fill="#FFFFFF" d="M-12.319,191.99c0,0-7.177-0.162-8.126,10.273c-0.948,10.432-1.107,15.809-2.055,15.809h-0.541
			c-0.95,0-1.107-5.377-2.056-15.809c-0.949-10.434-8.126-10.273-8.126-10.273s5.44-3.322,10.655-3.322
			C-17.349,188.67-12.319,191.99-12.319,191.99z"/>
	</g>
</g>
</svg>
