<?xml version="1.0" encoding="utf-8"?>
<!-- Generator: Adobe Illustrator 15.0.0, SVG Export Plug-In . SVG Version: 6.00 Build 0)  -->
<!DOCTYPE svg PUBLIC "-//W3C//DTD SVG 1.1//EN" "http://www.w3.org/Graphics/SVG/1.1/DTD/svg11.dtd">
<svg version="1.1" id="Layer_1" xmlns="http://www.w3.org/2000/svg" xmlns:xlink="http://www.w3.org/1999/xlink" x="0px" y="0px"
	 width="60px" height="50px" viewBox="0 0 60 50" enable-background="new 0 0 60 50" xml:space="preserve">
<g>
	<g>
		<path fill="#333333" d="M59.182,197.131c-0.993-3.533-2.638-5.517-4.873-8.869c-1.721-2.584-2.689-4.306-2.689-4.306
			c-0.675,5.595,2.65,10.422-0.396,15.162c-2.152,3.348-6.734,6.088-9.125,9.274c-2.552,3.396-4.299,7.36-6.084,11.19
			c3.256-1.088,7.246-10.813,12.031-11.524c0.326-0.046,0.637-0.069,0.933-0.069c2.686,0,4.151,1.918,4.101,4.726
			c1.365-2.6,2.055-2.388,3.322-5.093C58.02,204.166,59.998,200.038,59.182,197.131z"/>
	</g>
	<g>
		<path fill="#333333" d="M37.902,191.536c-0.442,0.72-0.783,1.325-1.029,2.091l0.25,0.172c0,0,1.793,1.672,4.197,1.672
			c0.742,0,1.549-0.184,2.371-0.61c2.953-1.535,4.027-6.071,3.679-8.451c-0.673,0.233-1.354,0.411-2.032,0.561
			c0.672,1.437,0.767,3.375-0.143,4.732c-0.854,1.284-2.064,2.297-3.4,2.297h-0.002C40.332,194,38.862,192.837,37.902,191.536z"/>
	</g>
	<g>
		<path fill="#333333" d="M43.968,190.568c0.653-0.977,0.487-2.201-0.11-3.272c-0.481,0.102-0.957,0.2-1.412,0.322
			c-1.477,0.396-2.672,1.259-3.611,2.335c0.662,1.145,1.84,1.949,2.959,1.949C42.647,191.904,43.379,191.453,43.968,190.568z"/>
	</g>
	<g>
		<path fill="#333333" d="M9.572,199.118c-3.045-4.74,0.28-9.567-0.394-15.162c0,0-0.97,1.722-2.691,4.306
			c-2.239,3.355-3.877,5.336-4.873,8.869c-0.819,2.907,1.161,7.035,2.78,10.491c1.268,2.705,1.959,2.493,3.322,5.093
			c-0.047-2.808,1.417-4.726,4.1-4.726c0.297,0,0.607,0.022,0.936,0.069c4.783,0.711,8.774,10.437,12.03,11.524
			c-1.788-3.83-3.536-7.794-6.086-11.19C16.306,205.206,11.724,202.466,9.572,199.118z"/>
	</g>
	<g>
		<path fill="#333333" d="M13.423,186.4c-0.347,2.378,0.726,6.904,3.683,8.438c0.822,0.432,1.55,0.519,2.295,0.519
			c2.401,0,4.117-1.789,4.117-1.789l0.25-0.248c-0.242-0.765-0.513-1.45-0.954-2.169c-0.96,1.298-2.391,2.189-3.853,2.189
			c-1.338,0-2.528-0.686-3.383-1.968c-0.911-1.359-0.802-2.98-0.133-4.413C14.77,186.808,14.096,186.637,13.423,186.4z"/>
	</g>
	<g>
		<path fill="#333333" d="M19.002,191.902c1.12,0.002,2.297-0.805,2.958-1.949c-0.941-1.076-2.136-1.939-3.611-2.335
			c-0.456-0.122-0.934-0.221-1.411-0.322c-0.601,1.071-0.771,2.296-0.114,3.272C17.417,191.453,18.147,191.902,19.002,191.902z"/>
	</g>
	<g>
		<path fill="#333333" d="M30.398,188.865c-1.15,0.91-3.339,2.833-3.867,6.423l-0.115,0.79c0.049,1.055,0.228,1.959,0.611,2.59
			c1.774,2.938,2.411,16.026,3.277,17.141c0.03-0.039,0.063-0.098,0.094-0.17c0.029,0.072,0.059,0.131,0.091,0.17
			c0.869-1.114,1.505-14.203,3.279-17.141c0.381-0.631,0.559-1.535,0.607-2.59l-0.113-0.79
			C33.734,191.7,31.546,189.775,30.398,188.865z"/>
	</g>
	<g>
		<path fill="#333333" d="M37.807,189.45c0.189-0.23,0.388-0.453,0.595-0.663c1.041-1.051,2.307-1.853,3.756-2.237
			c0.327-0.089,0.658-0.164,0.993-0.237c0.267-0.06,0.533-0.123,0.804-0.178c0.267-0.056,0.534-0.113,0.802-0.171
			c0.777-0.169,1.541-0.372,2.285-0.638c0.117-0.04,0.234-0.074,0.35-0.12c0.074-0.029,0.152-0.05,0.225-0.078
			c0.033-0.016,0.08-0.037,0.117-0.057c0.74-0.355,2.811-1.69,3.355-2.865c0.074-0.162,0.116-0.324,0.122-0.479
			c0.018-0.268-0.073-0.519-0.325-0.732c0,0-3.841-3.328-7.81-5.353c-0.011-0.005-0.024-0.007-0.047-0.007
			c-0.632,0-6.245,2.343-8.63,4.314c-2.072,1.716-2.805,6.776-3.399,6.776c-0.013,0-0.026,0.002-0.041-0.003
			c-0.323-7.098,3.008-11.351,8.169-12.342c0,0-4.804-1.547-7.313-1.547h-1.406h-0.021h-1.406c-2.507,0-7.317,1.547-7.317,1.547
			c5.163,0.991,8.496,5.092,8.171,12.185c-0.012,0.007-0.027,0.084-0.042,0.084c-0.593,0-1.322-5.021-3.4-6.738
			c-2.385-1.972-7.992-4.293-8.63-4.293c-0.02,0-0.035,0.008-0.046,0.013c-3.967,2.025-7.807,5.36-7.807,5.36
			c-0.251,0.212-0.34,0.465-0.324,0.733l0.052-0.097l-0.052,0.097c0.006,0.151,0.047,0.312,0.125,0.475
			c0.534,1.174,2.036,2.374,4.039,3.126c0,0,1.513,0.469,2.289,0.638c0.269,0.058,0.537,0.115,0.803,0.171
			c0.268,0.055,0.537,0.118,0.806,0.18c0.329,0.073,0.666,0.146,0.991,0.235c1.448,0.385,2.715,1.187,3.756,2.237
			c0.209,0.21,0.404,0.433,0.593,0.663c0.186,0.221,0.36,0.451,0.524,0.688c0.53,0.757,0.965,1.589,1.292,2.452
			c0.047,0.127,0.094,0.254,0.141,0.383c0.046,0.131,0.082,0.265,0.123,0.397c0.17,0.581,0.3,1.169,0.371,1.756
			c0.069-0.484,0.177-0.932,0.297-1.364c0.144-0.517,0.32-1.001,0.519-1.448c0.196-0.44,0.41-0.853,0.641-1.224
			c0.762-1.238,1.655-2.116,2.348-2.709c0.283-0.244,0.531-0.439,0.723-0.591c0.07-0.055,0.137-0.104,0.19-0.146
			c0.118-0.099,0.196-0.167,0.212-0.208c0.007-0.019,0.014-0.09,0.021-0.186c0.004-0.05,0.008-0.093,0.01-0.163
			c0.001,0.07,0.005,0.113,0.009,0.163c0.007,0.096,0.014,0.167,0.02,0.186c0.017,0.041,0.093,0.109,0.211,0.208
			c0.054,0.042,0.119,0.092,0.195,0.148c0.188,0.15,0.437,0.348,0.721,0.592c0.693,0.593,1.587,1.469,2.351,2.711
			c0.229,0.37,0.443,0.782,0.639,1.219c0.2,0.447,0.371,0.932,0.516,1.448c0.121,0.429,0.229,0.881,0.299,1.364
			c0.071-0.587,0.199-1.175,0.373-1.753c0.038-0.134,0.078-0.27,0.123-0.397c0.043-0.132,0.09-0.259,0.137-0.388
			c0.33-0.863,0.763-1.693,1.294-2.45C37.447,189.901,37.621,189.669,37.807,189.45z"/>
	</g>
</g>
<g>
	<path fill="#333333" d="M13.417,140.608l0.235-0.645c0.407-1.11,1.221-2.003,2.293-2.506c1.928-1.066,3.286-1.289,4.082-1.289
		c0.089,0,0.166,0.005,0.242,0.008l0.23,0.014l0.133,0.19c0.478,0.675,1.036,1.338,1.662,1.976l0.15,0.15l-0.013,0.216
		c-0.028,0.46-0.047,0.938-0.06,1.423l-0.016,0.463L13.417,140.608L13.417,140.608z"/>
	<path fill="#F7F6F2" d="M20.029,136.648c0.078,0,0.149,0.004,0.214,0.007c0.526,0.747,1.11,1.429,1.712,2.037
		c-0.028,0.467-0.046,0.947-0.063,1.436h-7.79c0.362-0.981,1.082-1.781,2.049-2.237l0.018-0.009
		C18.017,136.862,19.289,136.648,20.029,136.648 M20.029,135.69c-0.855,0-2.296,0.236-4.326,1.354c-1.147,0.54-2.05,1.525-2.5,2.756
		l-0.471,1.287h1.37h7.792h0.927l0.031-0.929c0.013-0.48,0.033-0.952,0.06-1.41l0.025-0.425l-0.299-0.304
		c-0.607-0.617-1.149-1.262-1.611-1.918l-0.266-0.375l-0.461-0.027C20.213,135.695,20.127,135.69,20.029,135.69L20.029,135.69z"/>
	<path fill="#333333" d="M36.325,140.608l-0.015-0.465c-0.018-0.505-0.038-0.996-0.066-1.477l-0.011-0.216l0.15-0.15
		c0.29-0.289,0.565-0.58,0.82-0.873c0.288-0.33,0.561-0.674,0.828-1.05l0.13-0.182l0.225-0.017c0.081-0.005,0.165-0.01,0.264-0.01
		c0.798,0,2.155,0.222,4.094,1.292c1.062,0.498,1.874,1.389,2.284,2.5l0.234,0.645L36.325,140.608L36.325,140.608z"/>
	<linearGradient id="SVGID_1_" gradientUnits="userSpaceOnUse" x1="35.3252" y1="138.3896" x2="45.5342" y2="138.3896">
		<stop  offset="0" style="stop-color:#F7F6F2"/>
		<stop  offset="1" style="stop-color:#E0DFDC"/>
	</linearGradient>
	<path fill="url(#SVGID_1_)" d="M38.24,136.648c0.739,0,2.013,0.215,3.859,1.236l0.018,0.009c0.97,0.457,1.688,1.253,2.05,2.236
		h-7.791c-0.018-0.509-0.04-1.004-0.066-1.487c0.294-0.295,0.579-0.598,0.846-0.898c0.311-0.361,0.592-0.722,0.852-1.087
		C38.08,136.652,38.154,136.648,38.24,136.648 M38.24,135.69c-0.109,0-0.205,0.006-0.293,0.011l-0.452,0.029l-0.266,0.369
		c-0.263,0.364-0.521,0.699-0.803,1.015c-0.226,0.261-0.485,0.537-0.796,0.845l-0.306,0.306l0.025,0.43
		c0.027,0.475,0.051,0.965,0.065,1.465l0.023,0.929h0.933h7.792h1.37l-0.471-1.286c-0.451-1.234-1.354-2.217-2.542-2.779
		C40.536,135.926,39.094,135.69,38.24,135.69L38.24,135.69z"/>
	<path fill="#333333" d="M14.778,145.945l-0.139-0.236c-0.933-1.591-1.36-3.083-1.267-4.436l0.031-0.445h8.948l-0.007,0.488
		c-0.024,1.32-0.018,2.708-0.008,4.146l0.004,0.483H14.778L14.778,145.945z"/>
	<path fill="#F7F6F2" d="M22.346,141.305c-0.021,1.325-0.017,2.718-0.004,4.161h-6.807c-1.026-1.747-1.272-3.134-1.202-4.161H22.346
		 M23.322,140.347h-0.974h-8.015H13.44l-0.062,0.895c-0.1,1.449,0.35,3.033,1.333,4.709l0.277,0.472h0.549h6.805h0.966l-0.009-0.967
		c-0.012-1.57-0.015-2.874,0.008-4.134L23.322,140.347L23.322,140.347z"/>
	<path fill="#333333" d="M36.339,145.945l0.005-0.483c0.013-1.439,0.018-2.827-0.005-4.146l-0.009-0.488h8.947l0.031,0.446
		c0.092,1.353-0.334,2.843-1.269,4.436l-0.138,0.237h-7.563V145.945z"/>
	<linearGradient id="SVGID_2_" gradientUnits="userSpaceOnUse" x1="35.4297" y1="143.3857" x2="45.3867" y2="143.3857">
		<stop  offset="0" style="stop-color:#F7F6F2"/>
		<stop  offset="1" style="stop-color:#E0DFDC"/>
	</linearGradient>
	<path fill="url(#SVGID_2_)" d="M44.419,141.305c0.069,1.027-0.178,2.413-1.202,4.161H36.41c0.01-1.441,0.015-2.836-0.006-4.161
		H44.419 M45.312,140.347h-0.893h-8.015H35.43l0.015,0.977c0.023,1.335,0.019,2.776,0.006,4.135l-0.006,0.966h0.966h6.805h0.548
		l0.277-0.473c0.983-1.675,1.436-3.258,1.332-4.708L45.312,140.347L45.312,140.347z"/>
	<path fill="#333333" d="M36.293,151.28l0.012-0.49c0.006-0.242,0.011-0.476,0.011-0.714c0-1.167,0.01-2.317,0.019-3.439
		l0.005-0.473h7.452l-0.554,0.76c-0.428,0.59-0.879,1.142-1.382,1.691c-0.712,0.787-1.399,1.62-2.044,2.474l-0.146,0.191H36.293
		L36.293,151.28z"/>
	<linearGradient id="SVGID_3_" gradientUnits="userSpaceOnUse" x1="35.251" y1="148.7236" x2="44.1826" y2="148.7236">
		<stop  offset="0" style="stop-color:#F7F6F2"/>
		<stop  offset="1" style="stop-color:#E0DFDC"/>
	</linearGradient>
	<path fill="url(#SVGID_3_)" d="M42.301,146.643c-0.382,0.522-0.822,1.075-1.346,1.652c-0.756,0.829-1.441,1.668-2.073,2.508h-2.647
		c0.005-0.242,0.012-0.483,0.012-0.727c0-1.167,0.009-2.313,0.019-3.434H42.301 M44.183,145.685h-1.882h-6.039h-0.949l-0.008,0.949
		c-0.011,1.124-0.018,2.274-0.018,3.443c0,0.236-0.004,0.468-0.013,0.702l-0.023,0.979l0.982,0.005h2.646h0.475l0.289-0.38
		c0.635-0.847,1.312-1.667,2.018-2.442c0.51-0.559,0.971-1.128,1.411-1.729L44.183,145.685L44.183,145.685z"/>
	<path fill="#333333" d="M19.013,151.28l-0.145-0.191c-0.642-0.854-1.331-1.688-2.045-2.474c-0.508-0.557-0.959-1.109-1.38-1.691
		l-0.553-0.76h7.454l0.004,0.473c0.01,1.123,0.021,2.272,0.021,3.439c0,0.205,0.02,1.204,0.02,1.204H19.013L19.013,151.28z"/>
	<path fill="#F7F6F2" d="M22.488,146.643c0.011,1.12,0.021,2.266,0.021,3.434c0,0.243,0.005,0.484,0.01,0.727h-2.646
		c-0.632-0.84-1.32-1.677-2.075-2.508c-0.525-0.578-0.968-1.13-1.348-1.652H22.488 M23.437,145.685h-0.949H16.45h-1.881l1.107,1.524
		c0.43,0.594,0.894,1.16,1.414,1.729c0.703,0.777,1.38,1.595,2.017,2.443l0.287,0.379h0.478h2.647h0.978l-0.02-0.979v-0.105
		c-0.004-0.2-0.009-0.397-0.009-0.6c0-1.17-0.008-2.319-0.019-3.443L23.437,145.685L23.437,145.685z"/>
	<path fill="#333333" d="M35.61,157.102l0.114-0.572c0.267-1.359,0.443-2.739,0.529-4.099l0.03-0.452h3.21l-0.51,0.753
		c-0.928,1.364-1.69,2.739-2.271,4.081l-0.123,0.29L35.61,157.102L35.61,157.102z"/>
	<path fill="#333333" d="M22.094,157.102l-0.125-0.29c-0.581-1.341-1.344-2.716-2.272-4.082l-0.511-0.751h3.211l0.029,0.45
		c0.084,1.343,0.264,2.723,0.534,4.1l0.11,0.572h-0.977v0.002H22.094z"/>
	<path fill="#333333" d="M22.82,163.771c-2.607-4.772-5.509-8.815-8.622-12.021c-2.435-2.505-5.183-5.498-7.086-8.694
		c-2.159-3.63-2.802-6.799-1.961-9.682c1.669-5.738,6.048-9.879,11.718-11.075l0.494-0.104l0.078,0.499
		c0.108,0.689,0.456,2.063,1.543,3.478c0.312,0.409,0.668,0.793,1.062,1.151l0.352,0.317l-0.313,0.354
		c-0.94,1.063-1.85,2.922-0.849,5.747c0.233,0.658,0.554,1.322,0.959,1.98l0.431,0.7l-0.75,0.14
		c-0.734,0.027-1.98,0.266-3.747,1.236c-1.069,0.507-1.835,1.385-2.181,2.478c-0.047,0.145-0.086,0.295-0.118,0.448
		c-0.099,0.506-0.113,1.056-0.037,1.631c0.121,0.907,0.462,1.877,1.016,2.883c0.2,0.362,0.437,0.746,0.708,1.138
		c0.451,0.655,0.988,1.323,1.59,1.986c0.622,0.684,1.225,1.409,1.797,2.152c0.307,0.398,0.596,0.8,0.873,1.197
		c0.98,1.405,1.798,2.833,2.427,4.238c1.221,2.713,1.742,5.361,1.512,7.646l-0.153,1.54L22.82,163.771z"/>
	<path fill="#F7F6F2" d="M16.969,122.767c0.111,0.708,0.473,2.18,1.637,3.697c0.333,0.435,0.706,0.838,1.12,1.213
		c-1.025,1.161-2.019,3.181-0.941,6.221c0.257,0.731,0.603,1.421,1.001,2.071c0.023,0.036,0.048,0.072,0.071,0.113
		c-0.823,0.03-2.134,0.289-3.96,1.294c-1.167,0.551-2.023,1.535-2.407,2.75c-0.049,0.163-0.094,0.328-0.128,0.496
		c-0.098,0.498-0.135,1.095-0.044,1.792c0.116,0.863,0.428,1.881,1.074,3.05c0.208,0.375,0.452,0.772,0.73,1.178
		c0.445,0.643,0.981,1.322,1.632,2.036c0.634,0.702,1.223,1.41,1.772,2.125c0.301,0.392,0.586,0.783,0.859,1.177
		c0.967,1.388,1.768,2.788,2.385,4.161c1.171,2.614,1.694,5.157,1.471,7.401c-2.63-4.809-5.554-8.885-8.702-12.125
		c-2.416-2.488-5.141-5.458-7.017-8.607c-2.089-3.513-2.712-6.555-1.913-9.3C7.448,127.191,12.246,123.762,16.969,122.767
		 M17.757,121.62l-0.987,0.209c-5.846,1.232-10.36,5.498-12.079,11.409c-0.879,3.019-0.222,6.308,2.011,10.059
		c1.929,3.24,4.698,6.259,7.154,8.787c3.084,3.172,5.959,7.183,8.546,11.914l1.484,2.715l0.311-3.081
		c0.238-2.369-0.298-5.095-1.551-7.888c-0.642-1.433-1.475-2.885-2.473-4.317c-0.297-0.423-0.587-0.824-0.885-1.211
		c-0.581-0.753-1.193-1.487-1.822-2.179c-0.588-0.65-1.112-1.3-1.554-1.939c-0.26-0.379-0.489-0.75-0.68-1.095
		c-0.526-0.954-0.851-1.867-0.963-2.715c-0.068-0.521-0.058-1.02,0.033-1.477c0.027-0.132,0.063-0.268,0.104-0.396
		c0.304-0.965,0.979-1.739,1.901-2.173l0.024-0.012l0.026-0.016c1.682-0.926,2.852-1.152,3.533-1.174l1.622-0.062l-0.836-1.391
		l-0.052-0.083c-0.411-0.664-0.719-1.3-0.941-1.924c-0.739-2.09-0.485-3.863,0.759-5.271l0.625-0.708l-0.702-0.633
		c-0.371-0.337-0.708-0.702-1.001-1.087c-1.026-1.335-1.351-2.616-1.453-3.263L17.757,121.62L17.757,121.62z"/>
	<path fill="#333333" d="M34.965,163.587c-0.23-2.288,0.289-4.929,1.511-7.645c0.629-1.405,1.446-2.829,2.428-4.236
		c0.274-0.402,0.565-0.802,0.873-1.194c0.576-0.752,1.182-1.477,1.796-2.155c0.606-0.663,1.143-1.332,1.592-1.987
		c0.267-0.392,0.509-0.773,0.707-1.139c0.557-1.003,0.897-1.973,1.015-2.881c0.078-0.574,0.066-1.127-0.035-1.634
		c-0.031-0.153-0.071-0.3-0.117-0.446c-0.345-1.096-1.111-1.971-2.155-2.462c-1.798-0.991-3.044-1.224-3.782-1.25l-0.845-0.028
		l0.455-0.707l0.476,0.147l-0.404-0.254c0.412-0.661,0.736-1.327,0.968-1.977c1.001-2.818,0.092-4.681-0.846-5.745l-0.315-0.354
		l0.35-0.318c0.394-0.355,0.751-0.741,1.063-1.149c1.09-1.417,1.432-2.789,1.541-3.478l0.077-0.499l0.494,0.103
		c5.672,1.197,10.054,5.339,11.722,11.076c0.841,2.883,0.197,6.051-1.963,9.679c-1.9,3.196-4.647,6.189-7.085,8.701
		c-3.115,3.203-6.016,7.25-8.621,12.019l-0.746,1.359L34.965,163.587z"/>
	<path fill="#F7F6F2" d="M41.713,122.767c4.724,0.995,9.521,4.421,11.358,10.74c0.8,2.746,0.175,5.788-1.911,9.299
		c-1.876,3.151-4.6,6.121-7.018,8.609c-3.148,3.24-6.074,7.317-8.7,12.124c-0.227-2.244,0.295-4.784,1.47-7.4
		c0.616-1.377,1.418-2.774,2.383-4.163c0.273-0.395,0.561-0.785,0.861-1.176c0.55-0.715,1.136-1.424,1.771-2.125
		c0.653-0.713,1.189-1.393,1.632-2.037c0.278-0.406,0.522-0.8,0.731-1.176c0.646-1.17,0.959-2.187,1.072-3.051
		c0.094-0.698,0.056-1.292-0.044-1.791c-0.035-0.167-0.078-0.333-0.127-0.497c-0.385-1.216-1.237-2.201-2.405-2.75
		c-1.833-1.013-3.147-1.27-3.972-1.298c0.024-0.036,0.046-0.071,0.07-0.109c0.429-0.685,0.771-1.378,1.017-2.071
		c1.075-3.04,0.081-5.06-0.944-6.222c0.414-0.375,0.789-0.777,1.12-1.212C41.24,124.948,41.601,123.477,41.713,122.767
		 M40.923,121.62l-0.155,0.997c-0.103,0.648-0.428,1.93-1.452,3.264c-0.293,0.386-0.634,0.749-1.001,1.084l-0.702,0.638l0.626,0.708
		c1.242,1.407,1.497,3.179,0.756,5.267c-0.218,0.619-0.529,1.25-0.924,1.883l-0.041,0.066l-0.922,1.423l1.674,0.086
		c0.683,0.022,1.852,0.246,3.539,1.177l0.028,0.015l0.028,0.012c0.92,0.435,1.597,1.21,1.9,2.176
		c0.04,0.127,0.075,0.261,0.102,0.395c0.092,0.457,0.104,0.954,0.033,1.477c-0.112,0.851-0.436,1.763-0.961,2.715
		c-0.193,0.35-0.422,0.719-0.683,1.098c-0.439,0.635-0.96,1.288-1.55,1.935c-0.627,0.689-1.24,1.425-1.822,2.181
		c-0.312,0.408-0.61,0.814-0.888,1.212c-0.996,1.435-1.829,2.886-2.471,4.316c-1.254,2.792-1.788,5.52-1.549,7.891l0.309,3.082
		L36.282,164c2.583-4.733,5.458-8.744,8.544-11.916c2.456-2.53,5.225-5.549,7.155-8.788c2.229-3.751,2.888-7.041,2.009-10.058
		c-1.717-5.911-6.234-10.178-12.079-11.409L40.923,121.62L40.923,121.62z"/>
	<path fill="#333333" d="M28.389,143.051c-0.364,0-1.877-0.905-2.552-1.342c-0.582-0.379-1.151-0.783-1.688-1.199
		c-0.933-0.725-1.771-1.488-2.492-2.264c-0.313-0.332-0.613-0.682-0.896-1.044c-0.12-0.152-0.234-0.308-0.349-0.464
		c-0.094-0.128-0.181-0.255-0.271-0.387l-0.075-0.117c-0.511-0.782-0.912-1.579-1.19-2.362c-1.063-3.005-0.083-4.993,0.929-6.133
		l0.303-0.344l0.356,0.286c0.507,0.411,1.076,0.78,1.69,1.105l0.264,0.139l-0.007,0.298c-0.004,0.218,0,0.438,0.013,0.654
		c0.01,0.181,0.025,0.363,0.045,0.547c0.018,0.17,0.042,0.343,0.067,0.512c0.121,0.792,0.329,1.619,0.619,2.453
		c0.27,0.777,0.611,1.575,1.013,2.365c0.686,1.354,1.553,2.73,2.574,4.091c0.328,0.439,0.638,0.829,0.91,1.16
		c0.639,0.774,1.082,1.236,1.086,1.238l0.781,0.811L28.389,143.051L28.389,143.051z"/>
	<path fill="#F7F6F2" d="M20.162,128.05c0.534,0.431,1.124,0.815,1.77,1.157c-0.005,0.229,0,0.459,0.012,0.689
		c0.011,0.193,0.028,0.383,0.049,0.576c0.019,0.178,0.044,0.353,0.067,0.528c0.132,0.859,0.354,1.714,0.639,2.542
		c0.292,0.838,0.649,1.652,1.042,2.426c0.815,1.608,1.779,3.042,2.617,4.159c0.334,0.447,0.649,0.843,0.926,1.178
		c0.659,0.803,1.109,1.267,1.109,1.267c-0.09,0-1.033-0.447-2.292-1.267c-0.512-0.332-1.075-0.726-1.655-1.178
		c-0.813-0.63-1.657-1.371-2.436-2.209c-0.301-0.324-0.593-0.661-0.869-1.012c-0.117-0.147-0.226-0.298-0.337-0.45
		c-0.088-0.122-0.176-0.246-0.26-0.373c-0.025-0.036-0.049-0.074-0.073-0.113c-0.463-0.709-0.859-1.465-1.142-2.258
		C18.371,131.015,19.146,129.195,20.162,128.05 M20.052,126.731l-0.607,0.685c-1.096,1.238-2.163,3.389-1.021,6.613
		c0.292,0.82,0.709,1.651,1.243,2.466c0.046,0.072,0.068,0.106,0.089,0.137c0.077,0.118,0.172,0.252,0.267,0.383
		c0.118,0.162,0.237,0.321,0.361,0.477c0.282,0.363,0.593,0.726,0.925,1.08c0.736,0.795,1.593,1.573,2.547,2.313
		c0.548,0.425,1.127,0.837,1.723,1.225c0.512,0.334,2.231,1.423,2.813,1.423h2.252l-1.561-1.623
		c-0.004-0.004-0.437-0.456-1.058-1.21c-0.292-0.35-0.595-0.736-0.9-1.143c-1.003-1.338-1.854-2.689-2.528-4.017
		c-0.393-0.777-0.726-1.553-0.992-2.307c-0.279-0.806-0.48-1.607-0.596-2.372c-0.023-0.154-0.046-0.317-0.063-0.48
		c-0.017-0.178-0.034-0.355-0.043-0.528c-0.011-0.203-0.018-0.412-0.011-0.618l0.015-0.594l-0.527-0.278
		c-0.587-0.309-1.13-0.664-1.614-1.055L20.052,126.731L20.052,126.731z"/>
	<path fill="#333333" d="M29.007,143.051l0.798-0.812c0.004-0.003,0.455-0.465,1.104-1.238c0.277-0.332,0.592-0.72,0.928-1.159
		c1.044-1.364,1.925-2.741,2.622-4.092c0.427-0.824,0.783-1.639,1.056-2.418c0.292-0.823,0.501-1.637,0.624-2.428
		c0.027-0.169,0.05-0.334,0.068-0.503c0.022-0.184,0.038-0.364,0.049-0.547c0.009-0.214,0.017-0.426,0.013-0.637l-0.004-0.294
		l0.263-0.136c0.625-0.33,1.194-0.703,1.694-1.108l0.356-0.285l0.305,0.342c1.01,1.141,1.993,3.131,0.931,6.135
		c-0.282,0.788-0.688,1.584-1.21,2.366l-0.056,0.086c-0.089,0.132-0.182,0.261-0.273,0.39c-0.146,0.196-0.267,0.354-0.39,0.509
		c-0.272,0.339-0.56,0.664-0.858,0.981c-0.754,0.799-1.63,1.574-2.598,2.308c-0.552,0.419-1.133,0.823-1.727,1.199
		c-0.417,0.268-2.185,1.341-2.551,1.341h-1.143V143.051L29.007,143.051z"/>
	<path fill="#F7F6F2" d="M38.521,128.05c1.015,1.145,1.789,2.964,0.834,5.66c-0.28,0.794-0.681,1.549-1.154,2.259
		c-0.018,0.027-0.038,0.059-0.054,0.086c-0.095,0.14-0.19,0.273-0.29,0.409c-0.115,0.155-0.231,0.308-0.352,0.458
		c-0.266,0.327-0.543,0.644-0.831,0.951c-0.812,0.855-1.692,1.615-2.538,2.255c-0.597,0.452-1.174,0.845-1.697,1.177
		c-1.285,0.821-2.236,1.268-2.293,1.268c0,0,0.458-0.465,1.13-1.268c0.282-0.334,0.602-0.73,0.942-1.177
		c0.854-1.117,1.836-2.551,2.667-4.159c0.409-0.792,0.781-1.625,1.084-2.478c0.288-0.822,0.512-1.667,0.645-2.516
		c0.027-0.175,0.052-0.351,0.069-0.526c0.022-0.19,0.041-0.38,0.05-0.571c0.013-0.222,0.017-0.445,0.016-0.669
		C37.395,128.868,37.986,128.483,38.521,128.05 M38.628,126.731l-0.713,0.576c-0.471,0.384-1.017,0.74-1.615,1.054l-0.521,0.273
		l0.012,0.587c0.001,0.203-0.005,0.406-0.017,0.609c-0.006,0.169-0.023,0.339-0.044,0.51c-0.018,0.168-0.038,0.326-0.065,0.486
		c-0.118,0.761-0.321,1.552-0.6,2.345c-0.268,0.76-0.615,1.556-1.031,2.359c-0.686,1.322-1.553,2.678-2.577,4.018
		c-0.301,0.395-0.608,0.776-0.916,1.14c-0.637,0.759-1.075,1.211-1.08,1.213l-1.593,1.625l2.278,0.003
		c0.542,0,2.287-1.085,2.809-1.417c0.604-0.384,1.194-0.795,1.757-1.22c0.993-0.751,1.885-1.545,2.656-2.362
		c0.323-0.343,0.611-0.672,0.884-1.009c0.128-0.162,0.252-0.322,0.372-0.485l0.003-0.006l0.027-0.039
		c0.099-0.132,0.193-0.267,0.283-0.401l0.008-0.011l0.03-0.046c0.564-0.851,0.992-1.679,1.283-2.505
		c1.141-3.224,0.074-5.375-1.023-6.613L38.628,126.731L38.628,126.731z"/>
	<path fill="#333333" d="M33.888,132.975c-1.703,0-2.839,2.839-2.839,2.839c0.124,0.011,0.242,0.018,0.359,0.021h0.549
		c1.034-0.039,1.764-0.336,2.229-0.722c0.539-0.449,0.724-1.018,0.621-1.455C34.719,133.263,34.396,132.975,33.888,132.975z"/>
	<path fill="#333333" d="M23.859,133.712c-0.07,0.407,0.099,0.91,0.554,1.327c0.458,0.422,1.215,0.756,2.312,0.797h0.548
		c0.117-0.003,0.235-0.012,0.357-0.021c0,0-1.134-2.839-2.836-2.839C24.262,132.975,23.932,133.29,23.859,133.712z"/>
	<path fill="#333333" d="M29.153,130.887c-1.616-0.089-3.1-0.319-4.432-0.691c-0.699-0.196-1.355-0.428-1.948-0.692
		c-0.092-0.038-0.456-0.204-0.456-0.204s-0.515-0.268-0.587-0.309c-0.519-0.288-1.01-0.618-1.464-0.981l-0.308-0.255l-0.154-0.137
		c-2.089-1.891-2.615-4.047-2.745-4.886c-0.022-0.145-0.034-0.25-0.038-0.315l-0.026-0.267l0.211-0.234c0,0,0.153-0.118,0.446-0.304
		c1.445-0.926,5.442-3.072,11.337-3.072h0.7c5.9,0,9.897,2.147,11.341,3.072c0.293,0.189,0.447,0.304,0.447,0.304l0.196,0.15
		l-0.015,0.343c-0.008,0.071-0.014,0.174-0.038,0.318c-0.13,0.842-0.655,2.998-2.743,4.889l-0.231,0.203l-0.229,0.19
		c-0.457,0.364-0.948,0.695-1.468,0.983l-0.593,0.31c0,0-0.354,0.162-0.448,0.202c-0.592,0.259-1.248,0.493-1.945,0.688
		c-1.333,0.372-2.815,0.604-4.406,0.694h-0.014h-0.39V130.887L29.153,130.887z"/>
	<path fill="#F7F6F2" d="M28.988,119.016c0,0,0.003,0,0.004,0c0.114,0,0.232,0.001,0.348,0.001c0.119,0,0.233-0.001,0.348-0.001
		c5.864,0,9.839,2.203,11.083,2.998c0.274,0.174,0.419,0.282,0.419,0.282s0,0.03-0.005,0.074c-0.007,0.06-0.016,0.156-0.037,0.287
		c-0.123,0.802-0.624,2.824-2.593,4.604c-0.067,0.065-0.143,0.125-0.217,0.191c-0.072,0.063-0.148,0.122-0.225,0.185
		c-0.412,0.326-0.874,0.644-1.398,0.938c-0.092,0.05-0.19,0.097-0.284,0.147c-0.064,0.035-0.126,0.069-0.194,0.101
		c-0.03,0.017-0.056,0.032-0.087,0.045c-0.056,0.027-0.116,0.056-0.171,0.08c-0.086,0.04-0.173,0.078-0.262,0.115
		c-0.57,0.251-1.196,0.474-1.885,0.667c-1.223,0.341-2.642,0.584-4.303,0.677h-0.375c-1.661-0.093-3.082-0.335-4.304-0.677
		c-0.688-0.193-1.316-0.415-1.884-0.667c-0.089-0.035-0.176-0.074-0.262-0.115c-0.057-0.027-0.12-0.056-0.177-0.083
		c-0.028-0.013-0.053-0.026-0.082-0.042c-0.068-0.034-0.133-0.068-0.2-0.105c-0.094-0.047-0.19-0.093-0.28-0.143
		c-0.527-0.296-0.988-0.608-1.399-0.938c-0.076-0.065-0.15-0.121-0.222-0.185c-0.074-0.066-0.147-0.125-0.218-0.191
		c-1.97-1.781-2.47-3.802-2.593-4.604c-0.02-0.13-0.03-0.227-0.038-0.287c-0.002-0.045-0.004-0.074-0.004-0.074
		s0.145-0.108,0.417-0.282C19.15,121.219,23.125,119.016,28.988,119.016 M29.689,118.058l-0.357,0.002l-0.34-0.002
		c-6.026,0-10.119,2.204-11.601,3.149c-0.309,0.199-0.474,0.32-0.474,0.32l-0.432,0.323l0.051,0.54v0.015l0.005,0.052
		c0.005,0.072,0.019,0.186,0.042,0.34c0.137,0.895,0.695,3.181,2.896,5.173c0.052,0.047,0.108,0.095,0.164,0.142l0.065,0.061
		c0.092,0.075,0.169,0.141,0.253,0.209c0.476,0.379,0.992,0.726,1.532,1.028c0.08,0.046,0.162,0.086,0.244,0.128l0.07,0.032
		c0.052,0.03,0.127,0.07,0.206,0.11l0.083,0.043l0.126,0.06l0.075,0.032c0.089,0.042,0.188,0.087,0.291,0.129
		c0.606,0.268,1.282,0.508,2.003,0.711c1.365,0.377,2.882,0.616,4.507,0.707l0.025,0.002h0.026h0.376h0.026l0.026-0.002
		c1.623-0.091,3.143-0.33,4.506-0.707c0.721-0.204,1.397-0.443,2.014-0.715c0.095-0.038,0.193-0.083,0.29-0.128l0.028-0.012
		l0.143-0.063l0.09-0.048c0.051-0.026,0.097-0.051,0.143-0.075l0.066-0.031l0.14-0.071c0.059-0.032,0.119-0.063,0.178-0.093
		c0.543-0.304,1.058-0.65,1.536-1.034c0.082-0.065,0.161-0.128,0.239-0.195l0.079-0.071c0.059-0.048,0.117-0.099,0.171-0.147
		c2.197-1.99,2.753-4.274,2.889-5.167c0.024-0.159,0.037-0.271,0.045-0.343c0.006-0.084,0.006-0.129,0.006-0.129l0.017-0.493
		l-0.394-0.306c0,0-0.164-0.125-0.479-0.324C39.808,120.262,35.714,118.058,29.689,118.058L29.689,118.058z"/>
	<path fill="#333333" d="M29.147,158.06l-1.258-0.65c-0.468-0.241-0.862-0.555-1.203-0.963c-0.711-0.854-1.057-2.037-1.057-3.623
		c0-0.303,0.038-0.625,0.113-0.95c0.093-0.419,0.249-0.852,0.466-1.287c0.512-1.028,1.259-1.894,1.756-2.462
		c0.029-0.054,0.14-0.333,0.279-1.535l0.123-1.173c0.106-1.031,0.208-1.924,0.374-2.419c0.138-0.419,0.365-0.631,0.676-0.631h0.107
		l0.145,0.059c0.139,0.085,0.203,0.147,0.26,0.233c0.063,0.092,0.113,0.207,0.158,0.359c0.143,0.495,0.207,1.389,0.271,2.422
		c0.026,0.43,0.05,0.812,0.075,1.171c0.09,1.179,0.193,1.458,0.231,1.521l0.056,0.067c0.52,0.597,1.232,1.417,1.734,2.388
		c0.224,0.439,0.389,0.871,0.483,1.287c0.077,0.334,0.115,0.647,0.115,0.952c0,1.543-0.344,2.729-1.052,3.616
		c-0.318,0.397-0.695,0.728-1.121,0.972l-1.284,0.741l0.174,0.228l-0.303-0.154l-0.869,0.5L29.147,158.06z M29.415,151.501
		c-0.491,0-0.924,0.257-1.248,0.742c-0.349,0.522-0.532,1.243-0.532,2.087c0,0.624,0.22,1.214,0.406,1.602
		c0.219,0.46,0.448,0.757,0.448,0.762l0.854,1.126l0.926-1.131c0.002-0.005,0.251-0.309,0.488-0.768
		c0.29-0.561,0.437-1.096,0.437-1.593c0-0.841-0.184-1.565-0.532-2.086C30.436,151.907,30.036,151.501,29.415,151.501z"/>
	<path fill="#F7F6F2" d="M29.415,142.841c0.018,0,0.031,0.008,0.048,0.013c0,0.002,0,0.002,0,0.002c0.002,0,0.002,0,0.006,0.003
		c0.021,0.012,0.042,0.037,0.062,0.063c0.033,0.053,0.064,0.124,0.094,0.222c0.132,0.458,0.193,1.373,0.252,2.32
		c0.024,0.398,0.049,0.802,0.079,1.177c0.064,0.859,0.154,1.581,0.331,1.785c0.51,0.587,1.24,1.41,1.741,2.376
		c0.189,0.373,0.347,0.767,0.441,1.177c0.065,0.275,0.104,0.557,0.104,0.844c0,1.453-0.329,2.54-0.95,3.319
		c-0.272,0.341-0.594,0.63-0.984,0.853c0,0,0.277-0.336,0.543-0.853c0.249-0.484,0.489-1.129,0.489-1.812
		c0-0.987-0.235-1.781-0.612-2.353c-0.41-0.617-0.996-0.955-1.647-0.955c-0.651,0-1.234,0.338-1.646,0.955
		c-0.378,0.567-0.61,1.364-0.61,2.353c0,0.685,0.222,1.328,0.452,1.812c0.245,0.512,0.5,0.844,0.5,0.844
		c-0.427-0.218-0.771-0.504-1.056-0.844c-0.651-0.779-0.946-1.869-0.946-3.319c0-0.288,0.038-0.567,0.101-0.844
		c0.09-0.41,0.24-0.803,0.429-1.177c0.477-0.96,1.183-1.781,1.688-2.368c0.176-0.202,0.293-0.929,0.394-1.793
		c0.042-0.375,0.084-0.777,0.124-1.177c0.097-0.947,0.2-1.862,0.352-2.32C29.257,142.957,29.33,142.841,29.415,142.841
		 M29.415,141.883c-0.306,0-0.854,0.125-1.131,0.963c-0.181,0.54-0.281,1.424-0.395,2.521l-0.014,0.132
		c-0.037,0.353-0.073,0.705-0.11,1.035c-0.104,0.907-0.187,1.233-0.225,1.343c-0.509,0.586-1.245,1.456-1.764,2.495
		c-0.231,0.465-0.402,0.935-0.506,1.397c-0.08,0.354-0.121,0.71-0.121,1.053c0,1.702,0.381,2.986,1.167,3.929
		c0.379,0.453,0.834,0.815,1.353,1.083l0.739,0.382l-1.792,2.201l2.863-1.65l1.99,1.024l-1.156-1.503l0.802-0.464
		c0.48-0.274,0.898-0.643,1.258-1.088c0.769-0.962,1.159-2.28,1.159-3.913c0-0.344-0.044-0.693-0.13-1.063
		c-0.104-0.453-0.28-0.924-0.521-1.393c-0.534-1.025-1.268-1.868-1.801-2.486l-0.004-0.005c-0.033-0.116-0.101-0.442-0.167-1.306
		c-0.027-0.353-0.051-0.732-0.075-1.108l-0.003-0.052c-0.068-1.1-0.131-1.982-0.29-2.528c-0.058-0.198-0.132-0.362-0.224-0.497
		c-0.065-0.098-0.143-0.184-0.228-0.253l-0.068-0.069l-0.091-0.04l-0.043-0.027l-0.069-0.024
		C29.689,141.914,29.553,141.883,29.415,141.883L29.415,141.883z M28.871,156.402c0,0-0.203-0.269-0.396-0.675
		c-0.163-0.342-0.358-0.861-0.358-1.396c0-0.946,0.245-1.511,0.45-1.819c0.163-0.244,0.441-0.533,0.85-0.533
		c0.41,0,0.691,0.291,0.853,0.533c0.203,0.308,0.449,0.877,0.449,1.819c0,0.413-0.133,0.885-0.383,1.371
		c-0.211,0.412-0.431,0.684-0.433,0.688l-0.536,0.656L28.871,156.402L28.871,156.402L28.871,156.402z"/>
</g>
<g>
	<path fill="#333333" d="M51.605,73.533c2.095-0.278,4.182-0.5,6.258-0.611c3.784-0.078,5.66,0.652,6.088,0.818
		c-0.323-0.39-0.916-0.792-1.408-1c-0.491-0.211-0.993-0.365-1.499-0.489c-0.16-0.036-0.322-0.07-0.485-0.1
		c-0.855-0.16-1.718-0.242-2.586-0.274c-2.065-0.088-4.157,0.083-6.255,0.34c-1.05,0.144-2.102,0.308-3.156,0.499
		c-0.536,0.106-1.074,0.212-1.611,0.322c0.222,0.329,0.413,0.683,0.574,1.054l0.938-0.134C49.51,73.803,50.559,73.658,51.605,73.533
		z"/>
	<path fill="#333333" d="M51.739,78.799c-0.809-0.282-1.62-0.541-2.434-0.777c-0.383-0.103-0.764-0.199-1.147-0.29
		c-0.014,0.254-0.035,0.511-0.071,0.768c-0.027,0.191-0.061,0.378-0.097,0.564c0.389,0.102,0.778,0.209,1.169,0.32
		c0.812,0.216,1.625,0.456,2.437,0.7l2.436,0.729c1.623,0.503,3.25,0.966,4.88,1.415c-1.567-0.972-3.156-1.788-4.759-2.472
		C53.354,79.398,52.547,79.103,51.739,78.799z"/>
	<path fill="#333333" d="M11.438,72.716c-1.053-0.191-2.105-0.355-3.156-0.499c-2.097-0.257-4.188-0.428-6.255-0.34
		C1.16,71.909,0.295,71.99-0.558,72.15c-0.163,0.03-0.326,0.064-0.487,0.1c-0.504,0.124-1.005,0.278-1.498,0.489
		c-0.491,0.208-1.083,0.61-1.408,1c0.429-0.166,2.303-0.896,6.087-0.818c2.077,0.111,4.166,0.333,6.259,0.611
		c1.046,0.125,2.095,0.271,3.144,0.425l0.936,0.134c0.163-0.371,0.354-0.725,0.576-1.054C12.512,72.928,11.975,72.822,11.438,72.716
		z"/>
	<path fill="#333333" d="M11.841,77.732c-0.383,0.091-0.765,0.188-1.147,0.29C9.88,78.258,9.07,78.517,8.26,78.799
		c-0.805,0.304-1.612,0.599-2.413,0.957c-1.604,0.684-3.19,1.5-4.759,2.472c1.631-0.449,3.258-0.912,4.88-1.415l2.436-0.729
		c0.811-0.245,1.624-0.484,2.437-0.7c0.391-0.111,0.779-0.218,1.17-0.32c-0.038-0.184-0.071-0.373-0.098-0.564
		C11.878,78.243,11.855,77.986,11.841,77.732z"/>
	<path fill="#333333" d="M24.92,105.123c0.246,0,0.525-0.037,0.83-0.104c-0.238-0.584-0.401-1.191-0.448-1.814
		c-0.082-1.023,0.172-2.05,0.239-3.071c0,0-1.595,1.102-2.199,3.352c0.097,0.53,0.263,0.976,0.533,1.264
		C24.027,104.909,24.3,105.123,24.92,105.123z"/>
	<path fill="#333333" d="M34.25,105.02c0.304,0.066,0.586,0.104,0.829,0.104c0.62,0,0.893-0.214,1.046-0.374
		c0.269-0.288,0.435-0.734,0.533-1.265c-0.604-2.249-2.198-3.351-2.198-3.351c0.066,1.021,0.32,2.048,0.239,3.071
		C34.65,103.829,34.489,104.435,34.25,105.02z"/>
	<path fill="#333333" d="M41.934,84.409c-1.36,3.748-4.19,9.322-4.321,13.703c-0.055,1.91,0.633,5.615-0.724,7.205
		c-0.402,0.469-0.979,0.757-1.81,0.757c-0.333,0-0.708-0.046-1.128-0.145c-0.027-0.008-0.069-0.018-0.122-0.034
		c-0.636-0.183-2.974-0.95-3.829-0.95s-3.193,0.768-3.829,0.95c-0.052,0.016-0.093,0.026-0.121,0.034
		c-0.421,0.099-0.796,0.145-1.13,0.145c-0.829,0-1.407-0.288-1.808-0.756c-1.357-1.591-0.669-5.295-0.727-7.206
		c-0.131-4.382-2.953-9.955-4.307-13.704c-0.133,0.008-0.268,0.012-0.399,0.012c-0.562,0-1.093-0.079-1.59-0.234
		c0.316,1.446,1.185,2.786,1.69,4.155c1.496,4.052,3.546,9.796,1.686,13.922c-0.784,1.74-0.924,3.449-0.033,5.394
		c1.173,2.553,7.026,4.261,10.578,4.261c3.552,0,9.381-1.708,10.554-4.261c0.894-1.944,0.754-3.654-0.031-5.394
		c-1.861-4.126,0.19-9.87,1.686-13.922c0.506-1.369,1.375-2.708,1.692-4.155c-0.499,0.155-1.03,0.234-1.591,0.234
		C42.193,84.419,42.062,84.417,41.934,84.409z"/>
	<path fill="#333333" d="M31.668,88.426c-0.941,1.146-0.907,3.115-0.883,4.553c0.017,1.047,0.028,1.679-0.294,2.032
		c-0.127,0.141-0.299,0.217-0.484,0.217c-0.185,0-0.356-0.076-0.484-0.215c-0.322-0.354-0.313-0.986-0.299-2.035
		c0.021-1.438,0.049-3.405-0.892-4.551c-0.557-0.678-1.273-1.083-1.914-1.083c-0.271,0-0.647,0.076-0.896,0.433
		c-0.303,0.436-0.333,1.174-0.084,2.079c0.354,1.275,0.528,2.519,0.526,3.693c-0.002,0.607-0.075,1.202-0.147,1.778
		c-0.089,0.726-0.172,1.414-0.12,2.1c0.124,1.59,1.688,3.792,4.303,3.792c2.616,0,4.181-2.202,4.303-3.792
		c0.054-0.686-0.031-1.374-0.12-2.1c-0.071-0.576-0.145-1.171-0.146-1.778c-0.002-1.174,0.175-2.418,0.526-3.693
		c0.25-0.905,0.22-1.643-0.084-2.079c-0.248-0.357-0.625-0.433-0.896-0.433C32.94,87.343,32.225,87.748,31.668,88.426z"/>
	<path fill="#333333" d="M39.54,83.888c-1.069-0.373-2.09-0.88-2.989-1.329c-0.16-0.08-0.317-0.159-0.47-0.235
		c-0.554-0.271-1.319-0.561-2.103-0.827c1.315,2.021,2.392,4.284,2.554,6.714c0.111,1.651-0.241,3.31-0.333,4.958
		C36.199,93.171,39.988,90.141,39.54,83.888z"/>
	<path fill="#333333" d="M26.021,81.498c-0.782,0.266-1.548,0.554-2.102,0.828c-0.153,0.075-0.31,0.153-0.47,0.234
		c-0.899,0.448-1.919,0.955-2.99,1.328c-0.447,6.252,3.342,9.283,3.342,9.283c-0.093-1.649-0.445-3.308-0.334-4.958
		C23.631,85.782,24.705,83.519,26.021,81.498z"/>
	<path fill="#333333" d="M26.229,73.179c-0.079-0.477,1.02-0.932,1.976-0.066c1.34,1.212,1.303,4.125,1.48,5.522
		c0.129,0.188,0.236,0.395,0.314,0.628c0.079-0.233,0.185-0.44,0.314-0.628c0.177-1.397,0.141-4.31,1.48-5.522
		c0.958-0.866,2.055-0.411,1.976,0.066c1.417-0.096,2.675-1.553,2.032-2.878c-0.896-1.85-4.42-2.156-5.798-2.156
		c-1.377,0-4.911,0.306-5.806,2.156C23.556,71.626,24.812,73.083,26.229,73.179z"/>
	<path fill="#333333" d="M45.363,65.768c0,0-0.634-0.352-2.061-0.352c-1.428,0-5.704,1.874-5.704,1.874
		c1.878,1.144,3.306,1.562,4.39,1.562C44.938,68.852,45.363,65.768,45.363,65.768z"/>
	<path fill="#333333" d="M18.011,68.852c1.086,0,2.513-0.418,4.389-1.562c0,0-4.276-1.874-5.703-1.874
		c-1.426,0-2.06,0.352-2.06,0.352S15.062,68.852,18.011,68.852z"/>
	<g>
		<path fill="#333333" d="M42.254,83.391c-0.149-0.003-0.306-0.01-0.48-0.027c-0.164-0.016-0.322-0.04-0.475-0.065
			c-0.566-0.099-1.17-0.274-1.843-0.537c-0.867-0.333-1.715-0.757-2.466-1.129c-0.155-0.08-0.308-0.154-0.456-0.228
			c-0.243-0.119-0.53-0.246-0.88-0.385c-1.731-0.693-4.183-1.375-4.654-1.502c0.432-1.092,2.087-1.422,3.997-1.804
			c0.7-0.139,1.422-0.283,2.146-0.474c1.331-0.352,2.149-1.01,2.431-1.958c0.02-0.06,0.036-0.12,0.047-0.18
			c0.426-1.928-1.331-4.335-1.764-4.891c0.323-0.019,0.64-0.029,0.942-0.029c4.121,0,5.947,1.671,7.076,3.126l0.041,0.05
			c0.196,0.257,0.384,0.567,0.56,0.92c0.467,0.956,0.697,2.084,0.663,3.267c0,0.007-0.062,0.979-0.145,1.311
			c-0.295,1.554-0.998,2.785-2.091,3.667c-0.023,0.018-0.043,0.028-0.063,0.04c-0.024,0.014-0.048,0.029-0.073,0.048
			c-0.097,0.072-0.197,0.14-0.306,0.208c-0.14,0.085-0.293,0.162-0.46,0.236c-0.512,0.225-1.076,0.338-1.68,0.338
			C42.311,83.393,42.254,83.391,42.254,83.391z"/>
	</g>
	<g>
		<path fill="#333333" d="M17.68,83.397c-0.62,0-1.168-0.108-1.681-0.333c-0.143-0.064-0.304-0.135-0.458-0.229
			c-0.035-0.022-0.07-0.041-0.103-0.061c-0.072-0.041-0.141-0.081-0.207-0.129l-0.013-0.01c-0.041-0.033-0.085-0.066-0.141-0.075
			c-0.993-0.773-1.743-2.102-2.061-3.654h0.009l-0.02-0.091c-0.081-0.412-0.129-0.831-0.143-1.244l0,0v-0.049
			c-0.034-1.174,0.195-2.301,0.663-3.256c0.163-0.333,0.351-0.639,0.559-0.909l0.039-0.05c1.131-1.455,2.958-3.126,7.077-3.126
			c0.303,0,0.62,0.01,0.944,0.029c-0.435,0.556-2.189,2.961-1.765,4.891c0.012,0.06,0.029,0.12,0.047,0.18
			c0.28,0.948,1.099,1.606,2.431,1.958c0.723,0.191,1.445,0.334,2.145,0.474c1.911,0.382,3.567,0.712,3.996,1.804
			c-0.471,0.127-2.921,0.809-4.651,1.502c-0.351,0.139-0.639,0.266-0.881,0.385c-0.151,0.075-0.306,0.151-0.463,0.23
			c-0.747,0.373-1.594,0.795-2.458,1.127c-0.67,0.261-1.27,0.433-1.832,0.534c-0.153,0.028-0.311,0.048-0.475,0.066
			c-0.17,0.018-0.328,0.025-0.482,0.029c-0.015,0-0.03,0.002-0.046,0.003C17.7,83.396,17.689,83.397,17.68,83.397z"/>
	</g>
</g>
<g>
	<g>
		<path fill="#333333" d="M35.083,26.072c0,0,2.163-3.725,5.408-3.725s3.124-0.481,3.124-0.481S42.654,25.353,35.083,26.072z"/>
		<g>
			<path fill="#333333" d="M24.919,26.072c0,0-2.164-3.725-5.409-3.725c-3.245,0-3.125-0.481-3.125-0.481
				S17.346,25.353,24.919,26.072z"/>
		</g>
	</g>
	<g>
		<path fill="#333333" d="M16.197,31.232c-2.283-2.524-3.728-5.049-2.405-9.734c0,0-0.239,4.806,4.809,5.768
			c5.048,0.962,6.009,0.962,6.009,0.962l0.601,6.73c0,0-2.884,2.042-2.523,4.447c0.359,2.403,0.359,2.403,0.359,2.403l-2.973-1.202"
			/>
		<g>
			<path fill="#333333" d="M39.926,40.606l-2.974,1.202c0,0,0,0,0.361-2.403c0.361-2.405-2.523-4.447-2.523-4.447l0.602-6.73
				c0,0,0.96,0,6.008-0.962c5.049-0.962,4.808-5.768,4.808-5.768c1.322,4.685-0.119,7.209-2.402,9.734L39.926,40.606z"/>
		</g>
	</g>
	<path fill="#333333" d="M32.85,38.211c-1.481-0.228-1.98,0-2.85,0c-0.866,0-1.365-0.228-2.847,0
		c-1.481,0.228-1.481,1.935-1.481,1.935S25.657,43.565,30,43.565c4.341,0,4.33-3.418,4.33-3.418S34.329,38.439,32.85,38.211z"/>
	<g>
		<path fill="#333333" d="M24.26,43.175c-0.065,0.014-0.134,0.028-0.201,0.045c0,0,1.344,6.032,1.768,6.079
			c0.424,0.047,0.601-0.495,0.601-0.495l0.51-3.889C25.648,44.527,24.808,43.903,24.26,43.175z"/>
		<path fill="#333333" d="M33.064,44.938l0.508,3.866c0,0,0.177,0.542,0.601,0.495c0.422-0.046,1.768-6.079,1.768-6.079
			c-0.043-0.011-0.087-0.021-0.131-0.03C35.252,43.928,34.391,44.555,33.064,44.938z"/>
	</g>
	<g>
		<g>
			<g>
				<path fill="#333333" d="M37.68,8.219c-0.338-0.561,11.06-6.853,12.845-7.366c1.782-0.514,1.537,5.354-0.806,8.637
					c-2.342,3.281-4.519,6.128-4.519,6.128c-1.99-1.552,0.18-2.705-2.497-5.462C40.027,7.399,38.018,8.779,37.68,8.219z"/>
			</g>
		</g>
		<g>
			<g>
				<path fill="#333333" d="M23.283,8.159C23.644,7.56,11.465,0.835,9.558,0.287C7.651-0.26,7.913,6.007,10.415,9.515
					c2.502,3.506,4.83,6.549,4.83,6.549c2.129-1.659-0.19-2.89,2.668-5.836C20.772,7.281,22.92,8.757,23.283,8.159z"/>
			</g>
		</g>
	</g>
	<path fill="#333333" d="M36.155,5.754c0,0-4.228-0.093-4.786,6.051c-0.559,6.143-0.652,9.309-1.209,9.309H29.84
		c-0.559,0-0.651-3.166-1.21-9.309c-0.557-6.145-4.784-6.051-4.784-6.051s3.202-1.956,6.275-1.956
		C33.193,3.799,36.155,5.754,36.155,5.754z"/>
</g>
</svg>
