<?xml version="1.0" encoding="utf-8"?>
<!-- Generator: Adobe Illustrator 15.0.2, SVG Export Plug-In . SVG Version: 6.00 Build 0)  -->
<!DOCTYPE svg PUBLIC "-//W3C//DTD SVG 1.1//EN" "http://www.w3.org/Graphics/SVG/1.1/DTD/svg11.dtd">
<svg version="1.1" id="Layer_1" xmlns="http://www.w3.org/2000/svg" xmlns:xlink="http://www.w3.org/1999/xlink" x="0px" y="0px"
	 width="128px" height="128px" viewBox="0 0 128 128" enable-background="new 0 0 128 128" xml:space="preserve">
<g id="Layer_1_1_" display="none">
</g>
<g id="Layer_2">
</g>
<g id="Layer_3">
	<g>
		<path fill="#5E48FF" stroke="#FFFFFF" stroke-miterlimit="10" d="M46.663,115.922C34.821,105.258,24.611,89.029,17.185,64.68
			c-7.436-24.343-4.186-47.995-4.186-47.995s4.184-1.838,9.519-5.084c5.339-3.246,9.287-10.406,9.287-10.406h64.284
			c0,0,3.945,7.16,9.288,10.406c5.335,3.246,9.516,5.209,9.516,5.209s3.25,23.585-4.181,47.932
			c-7.426,24.349-17.641,40.546-29.479,51.214c-11.838,10.664-13.904,10.849-17.391,10.849
			C60.356,126.805,58.494,126.588,46.663,115.922z"/>
		<g>
			<path fill="#FFFFFF" d="M104.723,34.004c3.95-0.523,7.885-0.942,11.801-1.153c7.133-0.146,10.666,1.229,11.477,1.543
				c-0.61-0.734-1.729-1.492-2.656-1.888c-0.929-0.396-1.872-0.688-2.821-0.921c-0.305-0.068-0.607-0.129-0.919-0.188
				c-1.608-0.303-3.238-0.455-4.875-0.52c-3.896-0.164-7.835,0.156-11.793,0.643c-1.979,0.272-3.961,0.582-5.947,0.94
				c-1.013,0.202-2.026,0.399-3.041,0.609c0.419,0.616,0.776,1.282,1.087,1.986l1.764-0.255
				C100.776,34.516,102.756,34.24,104.723,34.004z"/>
			<path fill="#FFFFFF" d="M104.978,43.931c-1.525-0.529-3.054-1.016-4.589-1.461c-0.72-0.196-1.438-0.377-2.161-0.548
				c-0.023,0.479-0.065,0.962-0.132,1.449c-0.048,0.359-0.116,0.712-0.188,1.062c0.74,0.194,1.475,0.396,2.209,0.605
				c1.534,0.405,3.062,0.856,4.592,1.32l4.591,1.37c3.058,0.949,6.125,1.822,9.199,2.667c-2.957-1.83-5.949-3.367-8.969-4.657
				C108.019,45.061,106.496,44.505,104.978,43.931z"/>
			<path fill="#FFFFFF" d="M29.008,32.465c-1.984-0.36-3.967-0.67-5.947-0.94c-3.954-0.487-7.896-0.807-11.791-0.643
				c-1.636,0.061-3.267,0.217-4.875,0.519c-0.307,0.056-0.613,0.116-0.917,0.188c-0.949,0.23-1.896,0.523-2.823,0.921
				C1.726,32.903,0.611,33.662,0,34.396c0.809-0.314,4.342-1.689,11.475-1.543c3.914,0.209,7.852,0.628,11.8,1.153
				c1.973,0.236,3.946,0.51,5.925,0.801l1.762,0.255c0.307-0.702,0.67-1.368,1.088-1.988C31.033,32.865,30.022,32.663,29.008,32.465
				z"/>
			<path fill="#FFFFFF" d="M29.771,41.918c-0.723,0.173-1.444,0.355-2.162,0.548c-1.535,0.447-3.063,0.934-4.589,1.465
				c-1.519,0.574-3.041,1.13-4.549,1.804c-3.021,1.29-6.015,2.827-8.969,4.659c3.073-0.847,6.14-1.718,9.197-2.667l4.591-1.368
				c1.53-0.464,3.06-0.917,4.593-1.322c0.734-0.207,1.469-0.411,2.207-0.607c-0.072-0.346-0.135-0.7-0.187-1.062
				C29.837,42.884,29.794,42.401,29.771,41.918z"/>
			<path fill="#FFFFFF" d="M54.424,93.551c0.461,0,0.989-0.067,1.566-0.196c-0.451-1.102-0.758-2.243-0.849-3.419
				c-0.152-1.926,0.325-3.862,0.45-5.79c0,0-3.006,2.072-4.146,6.314c0.185,1.001,0.496,1.842,1.007,2.385
				C52.74,93.146,53.254,93.551,54.424,93.551z"/>
			<path fill="#FFFFFF" d="M72.009,93.36c0.574,0.123,1.1,0.193,1.563,0.193c1.168,0,1.682-0.401,1.972-0.702
				c0.51-0.538,0.821-1.383,1.008-2.384c-1.142-4.243-4.147-6.314-4.147-6.314c0.125,1.923,0.606,3.86,0.451,5.789
				C72.764,91.111,72.459,92.253,72.009,93.36z"/>
			<path fill="#FFFFFF" d="M86.493,54.506c-2.562,7.066-7.897,17.573-8.144,25.83c-0.108,3.601,1.189,10.585-1.368,13.582
				c-0.757,0.885-1.843,1.427-3.409,1.427c-0.628,0-1.336-0.09-2.127-0.276c-0.052-0.015-0.132-0.036-0.23-0.061
				c-1.196-0.347-5.605-1.792-7.217-1.792s-6.02,1.445-7.217,1.792c-0.099,0.028-0.179,0.046-0.229,0.061
				c-0.791,0.187-1.501,0.276-2.129,0.276c-1.565,0-2.652-0.542-3.409-1.425c-2.558-2.999-1.26-9.981-1.368-13.584
				c-0.247-8.259-5.563-18.764-8.121-25.834c-0.251,0.017-0.504,0.024-0.753,0.024c-1.057,0-2.059-0.148-2.997-0.443
				c0.6,2.727,2.235,5.252,3.191,7.836c2.817,7.639,6.684,18.465,3.175,26.241c-1.48,3.282-1.744,6.501-0.059,10.17
				c2.209,4.813,13.242,8.033,19.938,8.033c6.694,0,17.684-3.22,19.895-8.033c1.683-3.669,1.42-6.888-0.057-10.17
				c-3.509-7.776,0.355-18.603,3.175-26.241c0.954-2.582,2.59-5.107,3.189-7.836c-0.938,0.293-1.94,0.443-2.997,0.443
				C86.98,54.526,86.737,54.521,86.493,54.506z"/>
			<path fill="#FFFFFF" d="M67.142,62.078c-1.771,2.158-1.709,5.874-1.665,8.579c0.036,1.976,0.053,3.166-0.552,3.832
				c-0.242,0.267-0.567,0.409-0.915,0.409c-0.349,0-0.672-0.143-0.915-0.407c-0.607-0.668-0.59-1.858-0.562-3.834
				c0.04-2.713,0.091-6.421-1.682-8.579c-1.049-1.278-2.397-2.041-3.608-2.041c-0.51,0-1.219,0.143-1.689,0.817
				c-0.572,0.822-0.628,2.213-0.157,3.918c0.664,2.403,0.997,4.747,0.991,6.962c-0.004,1.144-0.14,2.264-0.276,3.351
				c-0.167,1.368-0.327,2.666-0.229,3.958c0.234,2.996,3.182,7.147,8.113,7.147c4.93,0,7.881-4.151,8.113-7.147
				c0.099-1.292-0.062-2.59-0.229-3.958c-0.131-1.087-0.272-2.207-0.279-3.351c-0.004-2.215,0.333-4.559,0.995-6.962
				c0.466-1.705,0.414-3.096-0.158-3.918c-0.47-0.675-1.176-0.817-1.689-0.817C69.542,60.037,68.191,60.8,67.142,62.078z"/>
			<path fill="#FFFFFF" d="M81.982,53.523c-2.018-0.699-3.94-1.658-5.64-2.504c-0.301-0.149-0.602-0.298-0.887-0.441
				c-1.039-0.514-2.485-1.058-3.958-1.562c2.478,3.811,4.504,8.077,4.814,12.656c0.205,3.113-0.455,6.241-0.628,9.348
				C75.685,71.022,82.825,65.311,81.982,53.523z"/>
			<path fill="#FFFFFF" d="M56.498,49.019c-1.475,0.502-2.919,1.046-3.962,1.563c-0.289,0.14-0.584,0.288-0.887,0.441
				c-1.695,0.847-3.616,1.802-5.636,2.504c-0.845,11.785,6.296,17.495,6.296,17.495c-0.173-3.106-0.837-6.232-0.626-9.348
				C51.992,57.094,54.017,52.829,56.498,49.019z"/>
			<path fill="#FFFFFF" d="M56.892,33.336c-0.146-0.896,1.92-1.754,3.726-0.122c2.526,2.283,2.458,7.774,2.789,10.407
				C63.65,43.98,63.852,44.37,64,44.808c0.148-0.439,0.352-0.829,0.596-1.186c0.331-2.633,0.265-8.124,2.789-10.407
				c1.806-1.632,3.87-0.772,3.726,0.122c2.671-0.183,5.038-2.926,3.83-5.426c-1.689-3.486-8.332-4.064-10.929-4.064
				c-2.598,0-9.259,0.578-10.944,4.064C51.854,30.41,54.219,33.154,56.892,33.336z"/>
			<path fill="#FFFFFF" d="M92.957,19.369c0,0-1.195-0.668-3.882-0.668c-2.69,0-10.754,3.533-10.754,3.533
				c3.535,2.156,6.226,2.944,8.276,2.944C92.157,25.182,92.957,19.369,92.957,19.369z"/>
			<path fill="#FFFFFF" d="M41.398,25.182c2.047,0,4.737-0.788,8.276-2.945c0,0-8.065-3.531-10.754-3.531s-3.881,0.666-3.881,0.666
				S35.839,25.182,41.398,25.182z"/>
			<g>
				<path fill="#FFFFFF" d="M87.097,52.588c-0.284-0.006-0.579-0.021-0.906-0.054c-0.308-0.03-0.608-0.072-0.894-0.119
					c-1.071-0.188-2.209-0.52-3.475-1.011c-1.637-0.632-3.234-1.427-4.646-2.133c-0.293-0.146-0.584-0.287-0.859-0.428
					c-0.459-0.225-1.005-0.465-1.665-0.728c-3.264-1.305-7.883-2.589-8.771-2.831c0.812-2.059,3.937-2.681,7.534-3.398
					c1.322-0.264,2.68-0.532,4.044-0.894c2.507-0.664,4.049-1.904,4.585-3.693c0.034-0.112,0.062-0.225,0.092-0.337
					c0.795-3.636-2.512-8.172-3.33-9.222c0.608-0.036,1.21-0.051,1.781-0.051c7.763,0,11.206,3.149,13.337,5.891l0.076,0.093
					c0.367,0.485,0.724,1.069,1.055,1.737c0.879,1.8,1.312,3.931,1.25,6.157c0,0.016-0.116,1.848-0.272,2.474
					c-0.556,2.928-1.884,5.248-3.942,6.912c-0.042,0.032-0.08,0.052-0.118,0.074c-0.045,0.027-0.091,0.054-0.137,0.09
					c-0.183,0.135-0.373,0.265-0.582,0.392c-0.263,0.162-0.544,0.307-0.862,0.447c-0.964,0.423-2.028,0.636-3.166,0.636
					C87.203,52.592,87.097,52.588,87.097,52.588z"/>
				<path fill="#5E48FF" d="M80.586,27.83c7.701,0,11.115,3.121,13.225,5.836l0.044,0.055l0.028,0.04
					c0.368,0.479,0.718,1.054,1.041,1.71c0.872,1.779,1.3,4.513,1.237,6.702c0,0.019-0.094,0.911-0.225,2.859h-0.004l-0.04-0.39
					c-0.548,2.884-1.855,4.868-3.891,6.511c-0.031,0.022-0.06-0.118-0.098-0.097c-0.046,0.028-0.097-0.021-0.152,0.021
					c-0.185,0.135-0.367,0.221-0.568,0.348c-0.263,0.154-0.537,0.282-0.853,0.415c-0.94,0.419-1.988,0.812-3.107,0.812
					c-0.017,0-0.036,0.175-0.055,0.175c-0.021,0-0.04,0-0.064,0c-0.282,0-0.575-0.213-0.898-0.243
					c-0.299-0.03-0.602-0.164-0.883-0.217c-1.058-0.187-2.185-0.56-3.449-1.047c-1.629-0.628-3.226-1.445-4.634-2.151
					c-0.293-0.145-0.58-0.301-0.859-0.439c-0.459-0.229-1.011-0.476-1.669-0.742c-3.11-1.244-7.438-2.468-8.632-2.795
					c0.879-1.87,3.9-2.472,7.366-3.162c1.321-0.263,2.688-0.535,4.053-0.896c2.56-0.678,4.137-1.954,4.685-3.794
					c0.038-0.12,0.066-0.232,0.09-0.346c0.767-3.484-2.156-7.751-3.188-9.125C79.6,27.846,80.103,27.83,80.586,27.83 M80.586,27.545
					c-0.657,0-1.34,0.021-2.064,0.064c0,0,4.358,5.29,3.472,9.319c-0.026,0.11-0.053,0.219-0.087,0.328
					c-0.459,1.548-1.76,2.876-4.483,3.596c-5.273,1.393-10.719,1.493-11.731,4.532c0,0,5.267,1.407,8.904,2.861
					c0.607,0.243,1.17,0.487,1.651,0.723c1.646,0.814,3.539,1.804,5.521,2.568c1.15,0.445,2.326,0.808,3.5,1.013
					c0.303,0.054,0.607,0.097,0.904,0.124c0.31,0.032,0.616,0.053,0.925,0.055c0.04,0.002,0.084,0.008,0.123,0.008
					c1.105,0,2.192-0.202,3.224-0.652c0.295-0.132,0.594-0.284,0.877-0.457c0.204-0.12,0.399-0.255,0.598-0.397
					c0.087-0.068,0.171-0.1,0.257-0.17c2.099-1.691,3.445-4.115,3.993-6.992l0,0c0.164-0.572,0.278-2.5,0.278-2.5
					c0.061-2.173-0.354-4.365-1.266-6.226c-0.303-0.612-0.656-1.221-1.069-1.754c-0.024-0.034-0.047-0.065-0.072-0.095
					C91.796,30.604,88.295,27.545,80.586,27.545L80.586,27.545z"/>
			</g>
			<g>
				<path fill="#FFFFFF" d="M40.772,52.602c-1.167,0-2.201-0.204-3.166-0.63c-0.271-0.118-0.575-0.252-0.862-0.431
					c-0.066-0.042-0.131-0.078-0.198-0.116c-0.133-0.075-0.261-0.149-0.386-0.241l-0.025-0.022c-0.076-0.058-0.164-0.124-0.266-0.14
					c-1.874-1.457-3.288-3.959-3.887-6.888h0.017l-0.034-0.171c-0.154-0.774-0.246-1.565-0.274-2.344l0.002-0.002v-0.092
					c-0.061-2.215,0.369-4.338,1.252-6.138c0.306-0.628,0.664-1.203,1.054-1.714l0.074-0.093c2.131-2.742,5.571-5.891,13.339-5.891
					c0.571,0,1.169,0.015,1.779,0.051c-0.818,1.05-4.127,5.584-3.327,9.222c0.024,0.112,0.055,0.225,0.089,0.337
					c0.529,1.789,2.072,3.029,4.584,3.693c1.362,0.361,2.725,0.63,4.043,0.894c3.602,0.718,6.722,1.342,7.534,3.398
					c-0.889,0.242-5.508,1.526-8.771,2.831c-0.658,0.263-1.202,0.503-1.659,0.728c-0.285,0.141-0.578,0.285-0.873,0.434
					c-1.41,0.702-3.006,1.499-4.633,2.127c-1.266,0.491-2.396,0.814-3.453,1.005c-0.287,0.053-0.588,0.091-0.895,0.125
					c-0.321,0.032-0.616,0.048-0.907,0.054c-0.03,0-0.06,0.004-0.09,0.008C40.812,52.598,40.791,52.602,40.772,52.602z"/>
				<path fill="#5E48FF" d="M47.411,27.83L47.411,27.83c0.482,0,0.985,0.016,1.501,0.038c-1.031,1.374-3.954,5.644-3.191,9.127
					c0.025,0.108,0.054,0.223,0.092,0.348c0.548,1.838,2.123,3.112,4.685,3.79c1.368,0.361,2.733,0.632,4.053,0.895
					c3.468,0.692,6.487,1.294,7.367,3.164c-1.189,0.329-5.521,1.551-8.631,2.791c-0.662,0.267-1.208,0.506-1.669,0.734
					c-0.285,0.139-0.574,0.285-0.873,0.434c-1.406,0.7-2.999,1.498-4.622,2.124c-1.253,0.484-2.376,0.809-3.425,0.996
					c-0.285,0.048-0.582,0.092-0.884,0.122c-0.316,0.032-0.609,0.05-0.895,0.054c-0.038,0-0.07,0.008-0.106,0.011
					c-0.016,0-0.029,0.004-0.042,0.004c-1.147,0-2.163-0.201-3.107-0.616c-0.266-0.118-0.567-0.249-0.85-0.421
					c-0.065-0.041-0.131-0.079-0.198-0.119c-0.131-0.072-0.253-0.145-0.371-0.232l-0.025-0.021c-0.078-0.06-0.171-0.128-0.291-0.162
					c-1.798-1.408-3.161-3.802-3.773-6.609h0.013l-0.067-0.343c-0.145-0.742-0.236-1.488-0.266-2.232h0.002l-0.006-0.183
					c-0.062-2.193,0.367-4.29,1.237-6.069c0.304-0.618,0.654-1.189,1.041-1.691l0.038-0.049l0.035-0.04
					C36.295,30.951,39.707,27.832,47.411,27.83 M47.411,27.545c-7.708,0-11.209,3.058-13.454,5.948
					c-0.025,0.03-0.048,0.061-0.074,0.095c-0.413,0.533-0.767,1.121-1.067,1.739c-0.912,1.857-1.328,4.028-1.264,6.203
					c-0.005,0.004-0.005,0.004-0.005,0.004c0.024,0.824,0.12,1.647,0.279,2.46c-0.001,0-0.001,0.068-0.003,0.068
					c0.55,2.771,1.897,5.489,3.996,7.104h0.002c0.085,0,0.169,0.068,0.257,0.135c0.198,0.145,0.394,0.241,0.595,0.367
					c0.286,0.177,0.583,0.309,0.879,0.441c1.031,0.449,2.116,0.64,3.224,0.64c0.049,0,0.101-0.014,0.15-0.014
					c0.306-0.004,0.612-0.024,0.921-0.058c0.3-0.028,0.603-0.07,0.903-0.123c1.166-0.206,2.337-0.571,3.479-1.011
					c1.979-0.765,3.873-1.756,5.52-2.566c0.481-0.24,1.044-0.479,1.651-0.723c3.638-1.454,8.906-2.866,8.906-2.866
					c-1.012-3.038-6.454-3.135-11.729-4.528c-2.722-0.719-4.022-2.051-4.483-3.596c-0.034-0.11-0.062-0.217-0.085-0.329
					c-0.887-4.032,3.47-9.317,3.47-9.317C48.754,27.566,48.067,27.545,47.411,27.545L47.411,27.545z"/>
			</g>
		</g>
	</g>
</g>
</svg>
