<?xml version="1.0" encoding="utf-8"?>
<!-- Generator: Adobe Illustrator 15.0.0, SVG Export Plug-In . SVG Version: 6.00 Build 0)  -->
<!DOCTYPE svg PUBLIC "-//W3C//DTD SVG 1.1//EN" "http://www.w3.org/Graphics/SVG/1.1/DTD/svg11.dtd">
<svg version="1.1" id="Layer_1" xmlns="http://www.w3.org/2000/svg" xmlns:xlink="http://www.w3.org/1999/xlink" x="0px" y="0px"
	 width="70px" height="70px" viewBox="0 0 70 70" enable-background="new 0 0 70 70" xml:space="preserve">
<g>
	<g>
		<path fill="#333333" d="M68.005,36.059c-1.138-4.052-3.024-6.328-5.588-10.169c-1.973-2.964-3.083-4.938-3.083-4.938
			c-0.773,6.415,3.038,11.95-0.454,17.385c-2.468,3.84-7.722,6.98-10.463,10.635c-2.927,3.895-4.93,8.439-6.976,12.83
			c3.732-1.248,8.309-12.398,13.794-13.213c0.374-0.053,0.73-0.08,1.069-0.08c3.08,0,4.76,2.199,4.702,5.42
			c1.565-2.982,2.356-2.738,3.811-5.84C66.673,44.125,68.941,39.391,68.005,36.059z"/>
	</g>
	<g>
		<path fill="#333333" d="M43.605,29.643c-0.507,0.824-0.898,1.52-1.181,2.396l0.286,0.197c0,0,2.057,1.918,4.813,1.918
			c0.851,0,1.775-0.211,2.719-0.699c3.386-1.762,4.617-6.962,4.219-9.691c-0.771,0.269-1.554,0.471-2.331,0.645
			c0.771,1.646,0.88,3.869-0.164,5.427c-0.979,1.472-2.366,2.633-3.898,2.633h-0.002C46.392,32.467,44.705,31.134,43.605,29.643z"/>
	</g>
	<g>
		<path fill="#333333" d="M50.561,28.533c0.75-1.12,0.559-2.523-0.126-3.753c-0.551,0.117-1.098,0.229-1.619,0.371
			c-1.693,0.453-3.063,1.441-4.141,2.677c0.76,1.312,2.11,2.233,3.394,2.233C49.045,30.065,49.885,29.548,50.561,28.533z"/>
	</g>
	<g>
		<path fill="#333333" d="M11.121,38.336c-3.491-5.435,0.321-10.97-0.451-17.385c0,0-1.112,1.975-3.086,4.938
			c-2.567,3.848-4.446,6.117-5.587,10.169c-0.94,3.332,1.331,8.066,3.188,12.029c1.454,3.102,2.246,2.857,3.809,5.84
			c-0.054-3.221,1.624-5.42,4.701-5.42c0.341,0,0.696,0.027,1.074,0.08c5.484,0.814,10.061,11.967,13.794,13.213
			c-2.051-4.391-4.055-8.938-6.979-12.83C18.842,45.316,13.588,42.176,11.121,38.336z"/>
	</g>
	<g>
		<path fill="#333333" d="M15.537,23.753c-0.397,2.726,0.833,7.917,4.223,9.675c0.943,0.495,1.777,0.596,2.632,0.596
			c2.752,0,4.721-2.051,4.721-2.051l0.287-0.285c-0.278-0.877-0.588-1.662-1.094-2.486c-1.101,1.488-2.742,2.51-4.418,2.51
			c-1.534,0-2.898-0.786-3.878-2.256c-1.045-1.559-0.92-3.416-0.153-5.061C17.082,24.223,16.31,24.024,15.537,23.753z"/>
	</g>
	<g>
		<path fill="#333333" d="M21.935,30.063c1.284,0.002,2.633-0.922,3.392-2.234c-1.079-1.234-2.449-2.225-4.141-2.678
			c-0.523-0.141-1.071-0.254-1.618-0.369c-0.689,1.229-0.884,2.633-0.131,3.752C20.117,29.548,20.954,30.063,21.935,30.063z"/>
	</g>
	<g>
		<path fill="#333333" d="M35,26.58c-1.319,1.045-3.829,3.249-4.434,7.364l-0.132,0.906c0.056,1.208,0.261,2.246,0.7,2.968
			c2.034,3.369,2.765,18.377,3.758,19.656c0.034-0.047,0.072-0.113,0.107-0.195c0.033,0.082,0.068,0.148,0.104,0.195
			c0.997-1.277,1.726-16.287,3.76-19.656c0.437-0.723,0.642-1.76,0.697-2.968l-0.13-0.906C38.826,29.831,36.317,27.625,35,26.58z"/>
	</g>
	<g>
		<path fill="#333333" d="M43.496,27.25c0.217-0.264,0.445-0.52,0.684-0.76c1.193-1.205,2.645-2.125,4.307-2.565
			c0.374-0.103,0.755-0.188,1.138-0.272c0.308-0.067,0.611-0.141,0.922-0.202c0.308-0.064,0.612-0.132,0.92-0.196
			c0.892-0.193,1.768-0.427,2.62-0.73c0.136-0.047,0.269-0.086,0.402-0.139c0.084-0.033,0.173-0.058,0.258-0.09
			c0.038-0.02,0.091-0.042,0.134-0.064c0.85-0.406,3.224-1.938,3.847-3.285c0.085-0.187,0.133-0.371,0.14-0.549
			c0.02-0.309-0.083-0.597-0.372-0.84c0,0-4.405-3.816-8.957-6.138c-0.013-0.007-0.027-0.009-0.054-0.009
			c-0.727,0-7.161,2.688-9.896,4.947c-2.375,1.967-3.216,7.769-3.896,7.769c-0.017,0-0.029,0.003-0.047-0.002
			c-0.371-8.14,3.448-13.017,9.366-14.153c0,0-5.508-1.772-8.386-1.772h-1.61h-0.024h-1.613c-2.875,0-8.39,1.772-8.39,1.772
			c5.92,1.139,9.742,5.84,9.369,13.973c-0.014,0.009-0.031,0.097-0.048,0.097c-0.68,0-1.516-5.758-3.898-7.726
			c-2.735-2.262-9.165-4.924-9.896-4.924c-0.023,0-0.041,0.01-0.053,0.016c-4.548,2.322-8.951,6.146-8.951,6.146
			c-0.288,0.243-0.391,0.533-0.372,0.841l0.06-0.111l-0.06,0.111c0.007,0.174,0.054,0.357,0.144,0.545
			c0.612,1.347,2.334,2.723,4.631,3.584c0,0,1.735,0.537,2.625,0.731c0.309,0.065,0.616,0.132,0.92,0.196
			c0.307,0.062,0.616,0.135,0.924,0.207c0.377,0.082,0.764,0.166,1.137,0.268c1.66,0.442,3.113,1.362,4.307,2.565
			c0.24,0.241,0.463,0.495,0.68,0.761c0.213,0.254,0.413,0.518,0.601,0.788c0.608,0.869,1.106,1.823,1.482,2.812
			c0.054,0.146,0.107,0.291,0.161,0.439c0.054,0.15,0.094,0.303,0.142,0.455c0.195,0.666,0.344,1.34,0.425,2.014
			c0.079-0.557,0.204-1.068,0.341-1.564c0.165-0.592,0.367-1.147,0.595-1.66c0.225-0.504,0.471-0.979,0.735-1.403
			c0.875-1.418,1.897-2.426,2.693-3.104c0.324-0.28,0.608-0.504,0.829-0.678c0.081-0.063,0.157-0.119,0.218-0.17
			c0.135-0.111,0.225-0.188,0.243-0.236c0.008-0.021,0.016-0.104,0.024-0.213c0.004-0.059,0.009-0.106,0.011-0.188
			c0.001,0.081,0.006,0.13,0.011,0.188c0.008,0.109,0.016,0.19,0.023,0.213c0.019,0.048,0.107,0.125,0.241,0.236
			c0.063,0.051,0.137,0.105,0.224,0.172c0.215,0.172,0.501,0.397,0.826,0.678c0.795,0.683,1.821,1.686,2.697,3.108
			c0.262,0.425,0.508,0.897,0.731,1.397c0.23,0.513,0.427,1.07,0.592,1.66c0.139,0.492,0.263,1.012,0.343,1.564
			c0.083-0.674,0.228-1.348,0.428-2.011c0.045-0.153,0.089-0.312,0.142-0.456c0.049-0.15,0.104-0.296,0.157-0.443
			c0.378-0.988,0.875-1.94,1.483-2.811C43.084,27.768,43.283,27.501,43.496,27.25z"/>
	</g>
</g>
</svg>