<?xml version="1.0" encoding="utf-8"?>
<!-- Generator: Adobe Illustrator 15.0.0, SVG Export Plug-In . SVG Version: 6.00 Build 0)  -->
<!DOCTYPE svg PUBLIC "-//W3C//DTD SVG 1.1//EN" "http://www.w3.org/Graphics/SVG/1.1/DTD/svg11.dtd">
<svg version="1.1" id="Layer_1" xmlns="http://www.w3.org/2000/svg" xmlns:xlink="http://www.w3.org/1999/xlink" x="0px" y="0px"
	 width="70px" height="70px" viewBox="0 0 70 70" enable-background="new 0 0 70 70" xml:space="preserve">
<g>
	<path fill="#333333" d="M65.301,13.773c2.938-0.391,5.865-0.7,8.777-0.856c5.307-0.108,7.938,0.915,8.539,1.147
		c-0.453-0.549-1.285-1.11-1.975-1.402c-0.689-0.296-1.394-0.512-2.104-0.688c-0.225-0.05-0.451-0.097-0.682-0.141
		c-1.197-0.225-2.408-0.338-3.627-0.384c-2.896-0.123-5.828,0.116-8.771,0.477c-1.473,0.203-2.947,0.435-4.425,0.7
		c-0.753,0.148-1.507,0.297-2.261,0.452c0.312,0.461,0.578,0.957,0.807,1.478l1.314-0.188
		C62.362,14.152,63.832,13.949,65.301,13.773z"/>
	<path fill="#333333" d="M65.487,21.159c-1.134-0.396-2.271-0.759-3.413-1.091c-0.537-0.144-1.071-0.277-1.607-0.404
		c-0.02,0.355-0.05,0.716-0.101,1.076c-0.037,0.269-0.086,0.529-0.136,0.792c0.545,0.143,1.09,0.293,1.64,0.448
		c1.138,0.302,2.278,0.639,3.417,0.98l3.417,1.021c2.274,0.707,4.558,1.355,6.845,1.985c-2.197-1.364-4.428-2.509-6.677-3.468
		C67.752,22.001,66.621,21.587,65.487,21.159z"/>
	<path fill="#333333" d="M8.966,12.628c-1.479-0.267-2.953-0.497-4.427-0.7c-2.94-0.359-5.875-0.6-8.772-0.477
		c-1.215,0.046-2.43,0.158-3.625,0.384c-0.229,0.041-0.457,0.089-0.684,0.14c-0.707,0.174-1.409,0.39-2.101,0.688
		c-0.689,0.291-1.52,0.855-1.975,1.402c0.602-0.233,3.229-1.258,8.536-1.147c2.913,0.155,5.844,0.467,8.779,0.856
		c1.467,0.176,2.938,0.379,4.41,0.597l1.312,0.188c0.229-0.521,0.496-1.018,0.808-1.479C10.472,12.925,9.719,12.777,8.966,12.628z"
		/>
	<path fill="#333333" d="M9.53,19.664c-0.537,0.127-1.073,0.263-1.609,0.404c-1.142,0.332-2.277,0.695-3.413,1.091
		c-1.13,0.428-2.262,0.842-3.385,1.343c-2.25,0.959-4.474,2.104-6.675,3.469c2.288-0.631,4.57-1.279,6.844-1.986l3.417-1.021
		c1.139-0.344,2.278-0.68,3.418-0.98c0.55-0.155,1.094-0.307,1.642-0.448c-0.053-0.259-0.101-0.523-0.138-0.792
		C9.581,20.38,9.55,20.02,9.53,19.664z"/>
	<path fill="#333333" d="M27.873,58.08c0.346,0,0.736-0.053,1.164-0.146c-0.333-0.817-0.562-1.67-0.628-2.543
		c-0.114-1.437,0.242-2.877,0.335-4.309c0,0-2.236,1.546-3.084,4.701c0.136,0.742,0.369,1.369,0.748,1.771
		C26.621,57.779,27.004,58.08,27.873,58.08z"/>
	<path fill="#333333" d="M40.959,57.936c0.428,0.094,0.822,0.146,1.163,0.146c0.87,0,1.253-0.301,1.467-0.525
		c0.378-0.402,0.611-1.029,0.748-1.773c-0.847-3.153-3.083-4.699-3.083-4.699c0.092,1.432,0.448,2.872,0.335,4.309
		C41.521,56.266,41.293,57.116,40.959,57.936z"/>
	<path fill="#333333" d="M51.736,29.027c-1.907,5.258-5.876,13.074-6.061,19.219c-0.076,2.679,0.889,7.875-1.016,10.105
		c-0.564,0.657-1.373,1.062-2.538,1.062c-0.467,0-0.993-0.065-1.582-0.202c-0.038-0.013-0.097-0.025-0.171-0.05
		c-0.893-0.257-4.171-1.331-5.371-1.331c-1.198,0-4.478,1.076-5.371,1.331c-0.071,0.022-0.13,0.037-0.17,0.05
		c-0.59,0.137-1.115,0.202-1.584,0.202c-1.163,0-1.973-0.404-2.536-1.06c-1.902-2.233-0.938-7.428-1.02-10.108
		c-0.184-6.146-4.141-13.961-6.04-19.22c-0.187,0.012-0.376,0.017-0.56,0.017c-0.788,0-1.533-0.11-2.23-0.328
		c0.443,2.028,1.662,3.909,2.37,5.828c2.098,5.683,4.974,13.737,2.365,19.526c-1.1,2.438-1.296,4.836-0.046,7.564
		c1.645,3.58,9.854,5.977,14.835,5.977c4.982,0,13.156-2.396,14.803-5.977c1.253-2.729,1.058-5.126-0.045-7.564
		c-2.609-5.789,0.267-13.844,2.365-19.526c0.709-1.919,1.928-3.799,2.373-5.828c-0.699,0.218-1.445,0.328-2.23,0.328
		C52.1,29.042,51.916,29.039,51.736,29.027z"/>
	<path fill="#333333" d="M37.338,34.662c-1.32,1.607-1.271,4.369-1.238,6.385c0.023,1.469,0.039,2.355-0.411,2.852
		c-0.179,0.197-0.42,0.306-0.679,0.306c-0.261,0-0.5-0.106-0.68-0.302c-0.452-0.498-0.438-1.383-0.419-2.854
		c0.03-2.019,0.069-4.774-1.251-6.384c-0.781-0.95-1.785-1.52-2.685-1.52c-0.38,0-0.907,0.106-1.257,0.607
		c-0.426,0.611-0.468,1.646-0.118,2.915c0.497,1.789,0.74,3.533,0.737,5.181c-0.003,0.853-0.104,1.687-0.206,2.493
		c-0.125,1.019-0.241,1.983-0.169,2.945c0.175,2.229,2.368,5.317,6.036,5.317c3.669,0,5.865-3.088,6.035-5.317
		c0.077-0.962-0.044-1.929-0.167-2.945c-0.102-0.808-0.204-1.642-0.206-2.493c-0.002-1.646,0.245-3.392,0.737-5.181
		c0.351-1.269,0.31-2.304-0.118-2.915c-0.349-0.501-0.876-0.607-1.257-0.607C39.121,33.143,38.119,33.711,37.338,34.662z"/>
	<path fill="#333333" d="M48.379,28.298c-1.5-0.522-2.931-1.235-4.193-1.864c-0.225-0.113-0.442-0.223-0.658-0.328
		c-0.776-0.381-1.85-0.787-2.949-1.16c1.843,2.832,3.354,6.009,3.582,9.416c0.154,2.313-0.338,4.644-0.467,6.953
		C43.693,41.316,49.008,37.066,48.379,28.298z"/>
	<path fill="#333333" d="M29.418,24.945c-1.097,0.371-2.171,0.775-2.947,1.16c-0.214,0.104-0.436,0.215-0.659,0.33
		c-1.262,0.627-2.692,1.34-4.194,1.861c-0.626,8.77,4.688,13.02,4.688,13.02c-0.13-2.312-0.624-4.64-0.469-6.953
		C26.065,30.954,27.572,27.779,29.418,24.945z"/>
	<path fill="#333333" d="M29.709,13.277c-0.11-0.67,1.432-1.307,2.771-0.092c1.879,1.698,1.827,5.785,2.076,7.744
		c0.181,0.264,0.331,0.553,0.439,0.881c0.111-0.328,0.261-0.617,0.44-0.881c0.249-1.959,0.198-6.046,2.075-7.744
		c1.344-1.215,2.883-0.578,2.772,0.092c1.985-0.135,3.75-2.178,2.849-4.036c-1.257-2.595-6.199-3.024-8.132-3.024
		c-1.931,0-6.888,0.43-8.143,3.024C25.961,11.1,27.723,13.143,29.709,13.277z"/>
	<path fill="#333333" d="M56.546,2.883c0,0-0.89-0.492-2.891-0.492c-2.002,0-8,2.629-8,2.629c2.635,1.604,4.638,2.188,6.157,2.188
		C55.949,7.208,56.546,2.883,56.546,2.883z"/>
	<path fill="#333333" d="M18.184,7.208c1.523,0,3.524-0.586,6.155-2.188c0,0-5.996-2.629-7.998-2.629c-2,0-2.89,0.492-2.89,0.492
		S14.047,7.208,18.184,7.208z"/>
	<g>
		<path fill="#333333" d="M52.186,27.6c-0.209-0.002-0.43-0.014-0.674-0.037c-0.23-0.022-0.451-0.056-0.666-0.092
			c-0.795-0.138-1.642-0.383-2.586-0.753c-1.216-0.466-2.404-1.062-3.457-1.583c-0.219-0.111-0.434-0.217-0.641-0.32
			c-0.341-0.166-0.744-0.344-1.234-0.539c-2.428-0.973-5.867-1.93-6.527-2.106c0.604-1.53,2.927-1.994,5.605-2.53
			c0.982-0.193,1.994-0.396,3.01-0.664c1.867-0.492,3.015-1.416,3.41-2.746c0.027-0.084,0.049-0.168,0.066-0.254
			c0.597-2.703-1.867-6.078-2.475-6.857c0.453-0.028,0.897-0.042,1.32-0.042c5.78,0,8.342,2.346,9.924,4.386l0.059,0.068
			c0.273,0.361,0.537,0.796,0.785,1.291c0.656,1.342,0.978,2.923,0.93,4.582c0,0.01-0.086,1.373-0.203,1.839
			c-0.414,2.181-1.4,3.905-2.934,5.145c-0.031,0.024-0.061,0.038-0.088,0.056c-0.032,0.021-0.066,0.041-0.102,0.067
			c-0.137,0.103-0.275,0.195-0.43,0.29c-0.197,0.121-0.411,0.229-0.645,0.332c-0.719,0.314-1.51,0.475-2.357,0.475
			C52.266,27.604,52.186,27.6,52.186,27.6z"/>
	</g>
	<g>
		<path fill="#333333" d="M17.721,27.607c-0.87,0-1.639-0.15-2.358-0.465c-0.201-0.092-0.427-0.189-0.643-0.322
			c-0.05-0.031-0.099-0.059-0.146-0.086c-0.101-0.059-0.198-0.112-0.29-0.182l-0.019-0.014c-0.059-0.047-0.119-0.094-0.197-0.104
			c-1.393-1.086-2.445-2.949-2.891-5.125h0.012l-0.028-0.129c-0.112-0.578-0.181-1.164-0.201-1.746l0,0v-0.067
			c-0.047-1.646,0.274-3.228,0.931-4.566c0.229-0.466,0.493-0.896,0.784-1.274l0.055-0.069c1.586-2.041,4.148-4.384,9.926-4.384
			c0.424,0,0.869,0.014,1.324,0.04c-0.61,0.778-3.07,4.153-2.477,6.86c0.019,0.084,0.042,0.168,0.066,0.252
			c0.393,1.328,1.542,2.252,3.41,2.746c1.014,0.268,2.025,0.469,3.009,0.664c2.68,0.537,5.002,0.998,5.604,2.531
			c-0.661,0.178-4.098,1.134-6.523,2.105c-0.493,0.194-0.896,0.373-1.236,0.539c-0.211,0.104-0.429,0.211-0.648,0.322
			c-1.048,0.523-2.235,1.116-3.448,1.582c-0.938,0.364-1.781,0.605-2.569,0.748c-0.214,0.039-0.436,0.066-0.667,0.094
			c-0.237,0.023-0.459,0.034-0.676,0.041c-0.021,0-0.042,0.002-0.063,0.002C17.747,27.607,17.732,27.607,17.721,27.607z"/>
	</g>
</g>
</svg>
