<?xml version="1.0" encoding="utf-8"?>
<!-- Generator: Adobe Illustrator 15.0.0, SVG Export Plug-In . SVG Version: 6.00 Build 0)  -->
<!DOCTYPE svg PUBLIC "-//W3C//DTD SVG 1.1//EN" "http://www.w3.org/Graphics/SVG/1.1/DTD/svg11.dtd">
<svg version="1.1" xmlns="http://www.w3.org/2000/svg" xmlns:xlink="http://www.w3.org/1999/xlink" x="0px" y="0px" width="400px"
	 height="400px" viewBox="0 0 400 400" enable-background="new 0 0 400 400" xml:space="preserve">
<g id="Layer_1" display="none">
	
		<image display="inline" overflow="visible" width="533" height="400" xlink:href="6480C7DC.jpg"  transform="matrix(1 0 0 1 1126 1296)">
	</image>
</g>
<g id="Layer_2">
</g>
<g id="Layer_3">
	<g>
		<path fill="#FFFF00" stroke="#000000" stroke-width="3" stroke-miterlimit="10" d="M205.188,389.928
			c-2.864,2.866-7.513,2.866-10.377,0L10.072,205.188c-2.867-2.867-2.867-7.511,0-10.377l184.739-184.74
			c2.864-2.865,7.513-2.866,10.377,0l184.739,184.74c2.867,2.866,2.867,7.512,0,10.377L205.188,389.928z"/>
		<path fill="none" stroke="#000000" stroke-width="3" stroke-miterlimit="10" d="M204.519,365.42c-2.495,2.496-6.542,2.496-9.037,0
			L34.58,204.52c-2.496-2.497-2.496-6.542,0-9.038L195.481,34.58c2.495-2.496,6.542-2.497,9.037,0L365.42,195.481
			c2.496,2.496,2.496,6.542,0,9.038L204.519,365.42z"/>
	</g>
	<g>
		<g>
			<g>
				<path d="M189.688,136.534c0,0-4.362-7.51-10.902-7.51c-6.542,0-6.302-0.97-6.302-0.97S174.424,135.085,189.688,136.534z"/>
				<g>
					<path d="M210.177,136.534c0,0,4.359-7.51,10.903-7.51c6.542,0,6.3-0.97,6.3-0.97S225.44,135.085,210.177,136.534z"/>
				</g>
			</g>
			<g>
				<path d="M227.758,146.932c4.603-5.086,7.51-10.172,4.848-19.62c0,0,0.483,9.691-9.691,11.628
					c-10.175,1.938-12.114,1.938-12.114,1.938l-1.212,13.567c0,0,5.813,4.115,5.087,8.963c-0.726,4.845-0.726,4.845-0.726,4.845
					l5.997-2.419"/>
				<g>
					<path d="M179.925,165.834l5.992,2.419c0,0,0,0-0.73-4.845c-0.725-4.848,5.093-8.963,5.093-8.963l-1.212-13.567
						c0,0-1.939,0-12.114-1.938c-10.179-1.937-9.693-11.628-9.693-11.628c-2.664,9.448,0.243,14.534,4.847,19.62L179.925,165.834z"
						/>
				</g>
			</g>
			<path d="M194.19,161.004c2.983-0.46,3.994,0,5.74,0c1.749,0,2.758-0.46,5.744,0c2.984,0.458,2.984,3.9,2.984,3.9
				s0.023,6.888-8.729,6.888c-8.749,0-8.725-6.888-8.725-6.888S191.206,161.462,194.19,161.004z"/>
			<g>
				<path d="M211.505,171.007c0.127,0.025,0.264,0.058,0.405,0.094c0,0-2.712,12.157-3.567,12.25
					c-0.853,0.098-1.211-0.997-1.211-0.997l-1.027-7.837C208.711,173.736,210.398,172.476,211.505,171.007z"/>
				<path d="M193.754,174.563l-1.022,7.791c0,0-0.359,1.095-1.208,0.997c-0.856-0.093-3.566-12.25-3.566-12.25
					c0.091-0.024,0.175-0.046,0.265-0.062C189.349,172.527,191.079,173.792,193.754,174.563z"/>
			</g>
			<g>
				<g>
					<g>
						<path d="M184.453,100.542c0.681-1.127-22.293-13.812-25.896-14.847c-3.592-1.036-3.098,10.792,1.623,17.406
							c4.721,6.615,9.109,12.354,9.109,12.354c4.016-3.128-0.359-5.452,5.036-11.011
							C179.721,98.888,183.771,101.671,184.453,100.542z"/>
					</g>
				</g>
				<g>
					<g>
						<path d="M213.475,100.423c-0.728-1.21,23.822-14.767,27.665-15.87c3.847-1.102,3.316,11.531-1.729,18.604
							c-5.045,7.065-9.73,13.199-9.73,13.199c-4.292-3.344,0.383-5.824-5.386-11.762
							C218.531,98.654,214.202,101.627,213.475,100.423z"/>
					</g>
				</g>
			</g>
			<path d="M187.526,95.575c0,0,8.519-0.188,9.646,12.196c1.127,12.385,1.313,18.77,2.438,18.77h0.645
				c1.124,0,1.311-6.385,2.438-18.77c1.124-12.384,9.645-12.195,9.645-12.195s-6.459-3.94-12.649-3.94
				C193.497,91.635,187.526,95.575,187.526,95.575z"/>
		</g>
		<g>
			<path d="M228.508,267.356c-0.04,0.034-0.08,0.057-0.119,0.077c-0.021,0.013-0.042,0.027-0.062,0.043
				c0.034,0.002,0.062,0.105,0.087,0.087c2.066-1.665,3.393-3.681,3.951-6.609l0.035,0.335c0.009-0.024,0.015-0.048,0.021-0.073
				c0.02-0.282,0.037-0.512,0.055-0.749C231.896,263.379,230.566,265.697,228.508,267.356z"/>
			<path d="M224.954,268.892c-0.451,0.072-0.908,0.132-1.384,0.132c-0.02,0-0.126-0.005-0.126-0.005
				c-0.289-0.003-0.588-0.018-0.922-0.053c-0.171-0.017-0.332-0.046-0.496-0.068c0.169,0.052,0.336,0.099,0.508,0.118
				c0.15,0.013,0.292,0.067,0.429,0.122c0.161,0.007,0.318,0.024,0.481,0.024c0.032,0.005,0.065,0.007,0.099,0.011
				c0.011-0.046,0.02-0.09,0.027-0.09C224.044,269.083,224.504,269.002,224.954,268.892z"/>
			<path d="M241.332,250.161c4.006-0.531,7.997-0.954,11.973-1.172c7.239-0.148,10.824,1.247,11.646,1.566
				c-0.621-0.742-1.755-1.515-2.694-1.913c-0.942-0.402-1.902-0.698-2.868-0.936c-0.308-0.068-0.622-0.131-0.932-0.19
				c-1.633-0.306-3.284-0.463-4.946-0.524c-3.954-0.168-7.952,0.157-11.968,0.65c-2.005,0.276-4.018,0.591-6.034,0.956
				c-1.028,0.201-2.056,0.406-3.083,0.616c0.423,0.63,0.791,1.307,1.101,2.019l1.791-0.26
				C237.324,250.677,239.33,250.4,241.332,250.161z"/>
			<path d="M241.589,260.236c-1.551-0.539-3.102-1.034-4.659-1.484c-0.729-0.201-1.46-0.386-2.193-0.558
				c-0.025,0.485-0.067,0.979-0.136,1.471c-0.051,0.367-0.117,0.721-0.188,1.078c0.747,0.195,1.492,0.402,2.237,0.614
				c1.558,0.41,3.109,0.866,4.663,1.338l4.66,1.391c3.103,0.964,6.216,1.852,9.334,2.707c-3-1.856-6.036-3.419-9.103-4.728
				C244.675,261.381,243.132,260.818,241.589,260.236z"/>
			<path d="M164.49,248.599c-2.014-0.365-4.026-0.68-6.036-0.956c-4.013-0.493-8.015-0.818-11.965-0.65
				c-1.661,0.062-3.314,0.219-4.947,0.524c-0.311,0.06-0.622,0.122-0.932,0.19c-0.967,0.237-1.925,0.533-2.867,0.936
				c-0.94,0.398-2.073,1.171-2.694,1.913c0.821-0.319,4.405-1.716,11.645-1.566c3.976,0.218,7.969,0.641,11.974,1.172
				c2.003,0.239,4.009,0.515,6.014,0.812l1.792,0.261c0.309-0.713,0.676-1.39,1.101-2.02
				C166.544,249.005,165.518,248.8,164.49,248.599z"/>
			<path d="M165.261,258.194c-0.732,0.172-1.464,0.356-2.192,0.558c-1.558,0.45-3.108,0.945-4.656,1.484
				c-1.544,0.582-3.088,1.145-4.618,1.829c-3.065,1.309-6.104,2.871-9.103,4.728c3.119-0.856,6.23-1.743,9.334-2.707l4.661-1.391
				c1.553-0.472,3.105-0.927,4.662-1.338c0.746-0.213,1.49-0.419,2.24-0.614c-0.076-0.354-0.141-0.712-0.189-1.078
				C165.331,259.173,165.289,258.681,165.261,258.194z"/>
			<path d="M190.283,310.592c0.468,0.001,1.004-0.07,1.586-0.196c-0.456-1.119-0.767-2.278-0.856-3.469
				c-0.154-1.957,0.328-3.922,0.456-5.879c0,0-3.052,2.108-4.206,6.413c0.185,1.012,0.503,1.868,1.019,2.416
				C188.572,310.182,189.096,310.593,190.283,310.592z"/>
			<path d="M208.13,310.396c0.581,0.126,1.118,0.196,1.586,0.196c1.188,0,1.71-0.41,2.001-0.715
				c0.515-0.548,0.833-1.403,1.021-2.416c-1.156-4.305-4.207-6.413-4.207-6.413c0.127,1.957,0.611,3.922,0.458,5.879
				C208.896,308.117,208.586,309.276,208.13,310.396z"/>
			<path d="M222.829,270.966c-2.602,7.171-8.017,17.834-8.262,26.217c-0.113,3.65,1.206,10.739-1.392,13.781
				c-0.769,0.896-1.869,1.448-3.46,1.447c-0.638,0.001-1.355-0.088-2.157-0.278c-0.053-0.014-0.135-0.034-0.235-0.064
				c-1.215-0.351-5.688-1.817-7.324-1.817c-1.635,0.001-6.107,1.467-7.323,1.817c-0.1,0.03-0.182,0.052-0.234,0.064
				c-0.803,0.19-1.521,0.279-2.158,0.279c-1.591,0-2.691-0.552-3.461-1.445c-2.595-3.046-1.278-10.132-1.388-13.784
				c-0.25-8.384-5.646-19.046-8.241-26.217c-0.255,0.013-0.512,0.022-0.765,0.022c-1.072,0-2.089-0.151-3.041-0.448
				c0.608,2.766,2.268,5.329,3.235,7.948c2.861,7.753,6.783,18.737,3.222,26.634c-1.499,3.325-1.767,6.596-0.055,10.315
				c2.238,4.884,13.436,8.154,20.229,8.154c6.796,0,17.948-3.271,20.191-8.154c1.71-3.72,1.442-6.989-0.059-10.315
				c-3.56-7.896,0.362-18.881,3.225-26.634c0.965-2.619,2.629-5.183,3.233-7.948c-0.955,0.296-1.969,0.448-3.04,0.448
				C223.323,270.988,223.076,270.981,222.829,270.966z"/>
			<path d="M203.191,278.649c-1.8,2.193-1.735,5.962-1.688,8.712c0.031,2.002,0.054,3.213-0.564,3.888
				c-0.246,0.27-0.573,0.413-0.927,0.413c-0.354,0-0.682-0.144-0.929-0.412c-0.616-0.677-0.597-1.887-0.569-3.894
				c0.039-2.749,0.093-6.513-1.707-8.707c-1.065-1.294-2.434-2.071-3.661-2.071c-0.519,0-1.237,0.145-1.714,0.832
				c-0.581,0.835-0.638,2.246-0.159,3.977c0.673,2.436,1.008,4.817,1.004,7.063c-0.003,1.161-0.142,2.299-0.279,3.401
				c-0.17,1.389-0.331,2.704-0.232,4.017c0.237,3.041,3.228,7.253,8.233,7.253s7.999-4.212,8.233-7.253
				c0.1-1.312-0.062-2.628-0.23-4.017c-0.134-1.103-0.278-2.24-0.28-3.402c-0.005-2.245,0.332-4.627,1.006-7.062
				c0.479-1.731,0.419-3.143-0.16-3.978c-0.479-0.688-1.196-0.832-1.715-0.832C205.627,276.578,204.257,277.355,203.191,278.649z"/>
			<path d="M218.25,269.974c-2.047-0.713-3.998-1.685-5.717-2.546c-0.309-0.15-0.609-0.303-0.899-0.447
				c-1.06-0.518-2.526-1.072-4.022-1.584c2.52,3.868,4.572,8.198,4.885,12.847c0.212,3.158-0.461,6.333-0.636,9.486
				C211.86,287.729,219.105,281.931,218.25,269.974z"/>
			<path d="M192.389,265.396c-1.496,0.512-2.964,1.063-4.021,1.586c-0.295,0.143-0.595,0.295-0.902,0.448
				c-1.72,0.859-3.67,1.83-5.716,2.542c-0.856,11.958,6.391,17.757,6.391,17.757c-0.178-3.153-0.853-6.329-0.636-9.486
				C187.816,273.595,189.869,269.265,192.389,265.396z"/>
			<path d="M192.786,249.482c-0.148-0.908,1.951-1.781,3.78-0.126c2.562,2.319,2.496,7.891,2.831,10.566
				c0.247,0.358,0.451,0.755,0.602,1.2c0.153-0.445,0.355-0.842,0.604-1.2c0.337-2.675,0.268-8.247,2.831-10.566
				c1.832-1.655,3.93-0.782,3.78,0.126c2.709-0.185,5.116-2.968,3.888-5.505c-1.717-3.54-8.456-4.127-11.092-4.127
				s-9.397,0.587-11.109,4.127C187.673,246.515,190.075,249.298,192.786,249.482z"/>
			<path d="M229.387,235.307c0,0-1.212-0.672-3.938-0.672c-2.729,0-10.913,3.583-10.913,3.583c3.592,2.187,6.322,2.986,8.399,2.986
				C228.578,241.203,229.387,235.307,229.387,235.307z"/>
			<path d="M177.064,241.204c2.076-0.001,4.809-0.801,8.399-2.986c0,0-8.184-3.583-10.912-3.583c-2.728,0-3.941,0.672-3.941,0.672
				S171.421,241.203,177.064,241.204z"/>
			<path d="M223.444,269.019c0,0,0.106,0.005,0.126,0.005c0.476,0,0.933-0.06,1.384-0.132c0.618-0.157,1.216-0.387,1.771-0.631
				c0.315-0.136,0.598-0.264,0.859-0.424c0.204-0.124,0.376-0.194,0.561-0.332c0.059-0.043,0.126-0.013,0.136-0.002
				c0,0,0.008,0.007,0.01,0.009c0.003,0.003,0.059-0.048,0.081-0.06c0.038-0.021,0.088-0.053,0.127-0.087
				c2.059-1.658,3.394-3.981,3.974-6.894c0.098-1.335,0.165-2.004,0.165-2.021c0.064-2.217-0.37-4.996-1.253-6.8
				c-0.326-0.667-0.684-1.251-1.054-1.738l-0.03-0.04l-0.046-0.055c-2.141-2.758-5.604-5.923-13.419-5.923
				c-0.493,0-1.001,0.012-1.523,0.037c1.049,1.392,4.012,5.727,3.234,9.262c-0.023,0.113-0.056,0.229-0.09,0.351
				c-0.557,1.868-2.158,3.162-4.755,3.852c-1.389,0.365-2.774,0.641-4.111,0.909c-3.521,0.701-6.587,1.312-7.478,3.208
				c1.206,0.333,5.604,1.575,8.757,2.837c0.673,0.271,1.227,0.521,1.698,0.75c0.283,0.141,0.573,0.302,0.871,0.447
				c1.43,0.714,3.049,1.545,4.702,2.183c1.279,0.495,2.426,0.873,3.5,1.062c0.125,0.023,0.255,0.069,0.386,0.104
				c0.164,0.022,0.325,0.052,0.496,0.068C222.856,269.001,223.155,269.016,223.444,269.019z"/>
			<path d="M176.468,268.879c0.039,0,0.072-0.006,0.11-0.005c0.29-0.006,0.585-0.025,0.907-0.058
				c0.307-0.029,0.607-0.074,0.898-0.121c1.064-0.19,2.202-0.52,3.475-1.012c1.646-0.637,3.263-1.441,4.689-2.153
				c0.304-0.152,0.6-0.3,0.888-0.438c0.469-0.235,1.023-0.479,1.695-0.746c3.153-1.261,7.55-2.499,8.757-2.835
				c-0.893-1.896-3.958-2.505-7.478-3.209c-1.336-0.265-2.724-0.542-4.113-0.909c-2.6-0.688-4.196-1.979-4.754-3.848
				c-0.038-0.125-0.066-0.241-0.09-0.351c-0.779-3.535,2.188-7.87,3.236-9.262c-0.523-0.025-1.032-0.037-1.524-0.037
				c-7.817,0.003-11.279,3.165-13.423,5.925l-0.035,0.044l-0.037,0.049c-0.392,0.509-0.745,1.088-1.056,1.718
				c-0.884,1.805-1.32,3.444-1.257,5.674l0.008-0.305h-0.004c0.032,1,0.122,2.711,0.272,3.461l0.067,1.539h-0.014
				c0.621,1,2.006,4.823,3.831,6.253c0.121,0.031,0.214-0.253,0.294-0.253h0.023c0.121,0,0.245-0.098,0.376-0.025
				c0.068,0.043,0.134-0.052,0.202-0.01c0.285,0.172,0.592,0.244,0.86,0.364c0.958,0.421,1.988,0.589,3.154,0.588
				C176.442,268.918,176.457,268.884,176.468,268.879z"/>
		</g>
	</g>
	<g>
		<g>
			<path d="M317.266,197.139c-1.554-5.527-4.125-8.627-7.624-13.876c-2.692-4.04-4.207-6.735-4.207-6.735
				c-1.056,8.755,4.146,16.308-0.621,23.72c-3.365,5.238-10.534,9.526-14.272,14.51c-3.993,5.315-6.728,11.517-9.521,17.509
				c5.091-1.703,11.335-16.917,18.821-18.028c0.512-0.073,1-0.111,1.463-0.111c4.197,0,6.49,3.002,6.413,7.393
				c2.135-4.064,3.216-3.735,5.199-7.966C315.45,208.146,318.544,201.688,317.266,197.139z"/>
			<path d="M283.976,188.768c-0.691,1.126-1.225,1.882-1.609,3.08l0.39,0.175c0,0,2.805,2.568,6.564,2.568
				c1.165,0,2.423-0.309,3.712-0.98c4.623-2.402,6.3-9.509,5.756-13.23c-1.054,0.367-2.119,0.637-3.178,0.874
				c1.049,2.246,1.198,5.654-0.225,7.777c-1.335,2.009-3.228,3.969-5.321,3.969h-0.001C287.777,193,285.478,190.801,283.976,188.768
				z"/>
			<path d="M293.465,186.875c1.023-1.532,0.764-3.445-0.173-5.122c-0.752,0.159-1.498,0.313-2.209,0.505
				c-2.31,0.618-4.177,1.971-5.649,3.651c1.035,1.792,2.878,3.05,4.63,3.05C291.399,188.96,292.544,188.258,293.465,186.875z"/>
			<path d="M239.653,200.247c-4.764-7.412,0.439-14.965-0.617-23.72c0,0-1.517,2.695-4.209,6.735
				c-3.5,5.25-6.067,8.349-7.623,13.876c-1.281,4.551,1.817,11.008,4.349,16.414c1.983,4.23,3.065,3.901,5.199,7.966
				c-0.076-4.391,2.217-7.393,6.413-7.393c0.465,0,0.951,0.037,1.463,0.111c7.486,1.111,13.73,16.325,18.821,18.028
				c-2.795-5.992-5.528-12.193-9.519-17.509C250.189,209.773,243.02,205.485,239.653,200.247z"/>
			<path d="M245.68,180.351c-0.543,3.723,1.135,10.805,5.758,13.205c1.289,0.673,2.426,0.809,3.59,0.809
				c3.76,0,6.446-2.798,6.446-2.798l0.389-0.389c-0.378-1.195-0.803-2.267-1.491-3.394c-1.502,2.033-3.741,3.426-6.027,3.425
				c-2.093,0.001-3.956-1.072-5.292-3.078c-1.424-2.126-1.258-4.66-0.208-6.903C247.786,180.988,246.732,180.72,245.68,180.351z"/>
			<path d="M254.406,188.959c1.753,0.001,3.595-1.258,4.631-3.05c-1.473-1.682-3.344-3.033-5.65-3.651
				c-0.712-0.192-1.459-0.346-2.208-0.505c-0.939,1.677-1.202,3.59-0.176,5.122C251.928,188.258,253.071,188.959,254.406,188.959z"
				/>
			<path d="M272.237,184.208c-1.799,1.425-5.226,4.432-6.049,10.049l-0.18,1.235c0.078,1.651,0.357,3.065,0.955,4.055
				c2.777,4.593,3.771,25.071,5.126,26.815c0.048-0.064,0.096-0.154,0.147-0.268c0.045,0.113,0.091,0.203,0.142,0.268
				c1.358-1.744,2.353-22.223,5.129-26.815c0.596-0.989,0.875-2.403,0.952-4.055l-0.179-1.235
				C277.456,188.646,274.033,185.633,272.237,184.208z"/>
			<path d="M283.828,185.121c0.296-0.357,0.604-0.705,0.927-1.034c1.63-1.643,3.612-2.898,5.876-3.503
				c0.515-0.136,1.034-0.253,1.557-0.369c0.417-0.091,0.835-0.191,1.256-0.278c0.419-0.089,0.837-0.176,1.257-0.268
				c1.213-0.263,2.409-0.583,3.576-0.998c0.181-0.062,0.365-0.116,0.544-0.188c0.116-0.046,0.239-0.075,0.354-0.123
				c0.05-0.021,0.122-0.057,0.183-0.087c1.155-0.559,4.396-2.644,5.247-4.484c0.116-0.255,0.183-0.506,0.194-0.747
				c0.023-0.416-0.113-0.811-0.512-1.146c0,0-6.008-5.204-12.214-8.373c-0.016-0.007-0.04-0.011-0.073-0.011
				c-0.99,0-9.772,3.665-13.503,6.751c-3.245,2.685-4.391,10.602-5.319,10.602c-0.021,0-0.041,0.001-0.063-0.006
				c-0.506-11.103,4.704-18.822,12.781-20.377c0,0-7.518-3.481-11.443-3.481h-2.198h-0.036h-2.199
				c-3.924,0-11.445,3.481-11.445,3.481c8.076,1.555,13.289,8.501,12.783,19.6c-0.02,0.009-0.042,0.396-0.067,0.396
				c-0.928,0-2.069-7.724-5.318-10.409c-3.731-3.086-12.507-6.653-13.501-6.652c-0.03-0.001-0.056,0.049-0.073,0.057
				c-6.205,3.168-12.213,8.4-12.213,8.4c-0.393,0.334-0.532,0.737-0.51,1.154l0.083-0.145l-0.083,0.156
				c0.011,0.238,0.075,0.49,0.194,0.745c0.838,1.834,3.189,3.709,6.322,4.889c0,0,2.366,0.734,3.58,0.997
				c0.42,0.092,0.839,0.179,1.257,0.268c0.419,0.087,0.839,0.188,1.259,0.279c0.517,0.117,1.041,0.232,1.552,0.368
				c2.266,0.604,4.247,1.86,5.876,3.503c0.326,0.329,0.634,0.677,0.93,1.037c0.289,0.345,0.562,0.705,0.818,1.077
				c0.83,1.185,1.509,2.485,2.021,3.835c0.074,0.2,0.15,0.398,0.22,0.601c0.07,0.204,0.127,0.414,0.192,0.622
				c0.268,0.907,0.47,1.828,0.582,2.745c0.109-0.757,0.276-1.456,0.465-2.132c0.226-0.812,0.5-1.568,0.811-2.266
				c0.306-0.689,0.641-1.334,1.002-1.916c1.194-1.938,2.592-3.311,3.672-4.238c0.445-0.381,0.834-0.688,1.135-0.923
				c0.109-0.085,0.213-0.164,0.298-0.232c0.184-0.152,0.303-0.259,0.328-0.323c0.012-0.028,0.025-0.14,0.035-0.288
				c0.005-0.078,0.009-0.149,0.017-0.258c0.002,0.108,0.008,0.18,0.013,0.258c0.01,0.148,0.021,0.26,0.032,0.288
				c0.026,0.064,0.146,0.171,0.331,0.323c0.083,0.068,0.186,0.147,0.3,0.234c0.298,0.235,0.687,0.543,1.131,0.924
				c1.084,0.928,2.483,2.301,3.676,4.24c0.359,0.582,0.695,1.226,1,1.911c0.312,0.697,0.579,1.454,0.808,2.264
				c0.19,0.673,0.355,1.379,0.467,2.134c0.111-0.917,0.312-1.838,0.581-2.741c0.063-0.21,0.122-0.422,0.193-0.625
				c0.068-0.204,0.143-0.401,0.218-0.604c0.512-1.352,1.191-2.648,2.021-3.834C283.265,185.829,283.536,185.468,283.828,185.121z"/>
		</g>
	</g>
	<g>
		<g>
			<path d="M156.49,195.924l-0.451-1.228c-0.778-2.117-2.329-3.817-4.375-4.779c-3.671-2.029-6.26-2.453-7.776-2.453
				c-0.172,0-0.32,0.007-0.462,0.014l-0.441,0.026l-0.255,0.361c-0.906,1.285-1.974,2.553-3.167,3.77l-0.28,0.285l0.021,0.406
				c0.052,0.876,0.087,1.786,0.117,2.712l0.026,0.886H156.49z"/>
			<path fill="#FFFF00" d="M143.889,188.376c1.409,0,3.832,0.406,7.354,2.349l0.038,0.018c1.844,0.866,3.212,2.392,3.901,4.264
				h-14.85c-0.027-0.93-0.064-1.848-0.119-2.732c1.149-1.166,2.267-2.469,3.263-3.886
				C143.604,188.383,143.736,188.376,143.889,188.376 M143.889,186.548c-0.19,0-0.355,0.01-0.515,0.017l-0.881,0.054l-0.509,0.719
				c-0.879,1.247-1.913,2.478-3.069,3.655l-0.57,0.578l0.047,0.811c0.052,0.871,0.088,1.77,0.116,2.684l0.054,1.771h1.77h14.849
				h2.615l-0.897-2.451c-0.859-2.347-2.582-4.226-4.771-5.253C148.262,186.998,145.511,186.548,143.889,186.548L143.889,186.548z"/>
		</g>
		<g>
			<path d="M112.826,195.924l0.025-0.886c0.031-0.962,0.073-1.898,0.125-2.814l0.02-0.411l-0.286-0.288
				c-0.55-0.552-1.078-1.107-1.563-1.661c-0.546-0.631-1.062-1.284-1.578-2.006l-0.251-0.346l-0.432-0.032
				c-0.153-0.009-0.313-0.016-0.499-0.016c-1.517,0-4.109,0.424-7.8,2.463c-2.024,0.952-3.576,2.652-4.354,4.77l-0.448,1.228
				H112.826z"/>
			<path fill="#FFFF00" d="M108.386,188.376c0.166,0,0.306,0.007,0.438,0.016c0.5,0.693,1.037,1.387,1.632,2.069
				c0.5,0.574,1.043,1.146,1.609,1.711c-0.054,0.92-0.095,1.871-0.126,2.834l-14.85,0.001c0.69-1.873,2.058-3.398,3.907-4.265
				l0.032-0.018C104.551,188.782,106.975,188.376,108.386,188.376 M108.386,186.548c-1.625,0-4.375,0.45-8.17,2.54
				c-2.26,1.07-3.982,2.949-4.841,5.296l-0.899,2.451h2.615h14.85h1.771l0.055-1.771c0.027-0.952,0.069-1.885,0.124-2.791
				l0.046-0.818l-0.581-0.582c-0.591-0.586-1.088-1.117-1.519-1.611c-0.531-0.605-1.032-1.24-1.527-1.933l-0.503-0.703l-0.86-0.058
				C108.774,186.562,108.595,186.548,108.386,186.548L108.386,186.548z"/>
		</g>
		<g>
			<path d="M153.895,206.093l0.261-0.447c1.779-3.033,2.594-5.879,2.416-8.457l-0.059-0.848l-17.057-0.001l0.016,0.93
				c0.045,2.517,0.035,5.16,0.012,7.906l-0.005,0.917H153.895z"/>
			<path fill="#FFFF00" d="M140.386,197.251l15.274-0.001c0.135,1.958-0.333,4.6-2.291,7.934l-12.974,0.001
				C140.419,202.43,140.43,199.777,140.386,197.251 M138.529,195.424l0.031,1.863c0.043,2.397,0.036,4.883,0.011,7.879l-0.011,1.843
				h1.835h12.975h1.048l0.528-0.9c1.873-3.193,2.729-6.214,2.538-8.979l-0.116-1.705h-1.707h-15.274H138.529L138.529,195.424z"/>
		</g>
		<g>
			<path d="M112.796,206.093l-0.01-0.917c-0.022-2.746-0.031-5.39,0.016-7.907l0.009-0.928H95.758l-0.058,0.848
				c-0.179,2.579,0.637,5.424,2.413,8.457l0.267,0.447H112.796z"/>
			<path fill="#FFFF00" d="M96.613,197.251h15.27c-0.04,2.527-0.029,5.179-0.009,7.933H98.902
				C96.947,201.85,96.478,199.208,96.613,197.251 M94.906,195.424l-0.115,1.704c-0.193,2.767,0.662,5.787,2.537,8.98l0.527,0.9
				h1.047h12.971h1.839l-0.011-1.842c-0.02-2.588-0.035-5.333,0.008-7.88l0.03-1.862l-1.857-0.001h-15.27H94.906L94.906,195.424z"/>
		</g>
		<g>
			<path d="M112.888,216.268l-0.025-0.932c-0.011-0.462-0.021-0.908-0.02-1.364c0-2.226-0.017-4.415-0.039-6.557l-0.006-0.898
				l-14.208-0.001l1.056,1.448c0.819,1.123,1.677,2.177,2.632,3.224c1.357,1.503,2.672,3.089,3.9,4.718l0.272,0.362H112.888z"/>
			<path fill="#FFFF00" d="M100.383,207.426l11.508-0.001c0.021,2.134,0.039,4.322,0.038,6.548c0,0.463,0.01,0.926,0.021,1.385
				h-5.05c-1.2-1.603-2.511-3.198-3.95-4.782C101.952,209.474,101.111,208.425,100.383,207.426 M96.793,205.597l2.112,2.906
				c0.839,1.146,1.718,2.23,2.692,3.301c1.344,1.477,2.639,3.041,3.85,4.651l0.545,0.729h0.908h5.05l1.868-0.01l-0.042-1.864
				c-0.01-0.446-0.021-0.889-0.021-1.338c0-2.229-0.02-4.42-0.036-6.563l-0.018-1.812h-1.81h-11.508H96.793L96.793,205.597z"/>
		</g>
		<g>
			<path d="M145.824,216.268l0.275-0.362c1.226-1.628,2.536-3.214,3.896-4.718c0.968-1.062,1.831-2.117,2.634-3.224l1.055-1.448
				h-14.206l-0.013,0.898c-0.017,2.143-0.035,4.332-0.035,6.558c0,0.39-0.039,2.296-0.039,2.296H145.824z"/>
			<path fill="#FFFF00" d="M140.381,207.425l11.508,0.001c-0.726,0.998-1.568,2.048-2.569,3.149
				c-1.439,1.584-2.749,3.18-3.952,4.782h-5.045c0.009-0.459,0.016-0.922,0.017-1.385
				C140.339,211.746,140.359,209.56,140.381,207.425 M138.571,205.597l-0.017,1.812c-0.02,2.143-0.038,4.334-0.038,6.563
				c-0.001,0.387-0.006,0.767-0.014,1.149l-0.004,0.197l-0.037,1.865h1.862h5.045h0.91l0.549-0.729
				c1.21-1.609,2.502-3.174,3.841-4.65c0.99-1.089,1.875-2.171,2.698-3.301l2.107-2.906h-3.585h-11.509H138.571L138.571,205.597z"/>
		</g>
		<g>
			<path d="M114.182,226.441l-0.208-1.088c-0.506-2.589-0.849-5.218-1.013-7.814l-0.056-0.854h-6.121l0.973,1.427
				c1.767,2.604,3.223,5.225,4.33,7.778l0.237,0.552H114.182z"/>
			<path fill="#FFFF00" d="M108.507,217.602h3.542c0.171,2.726,0.529,5.376,1.027,7.929h-0.153
				C111.78,222.881,110.297,220.229,108.507,217.602 M105.058,215.773l1.942,2.853c1.739,2.559,3.164,5.123,4.248,7.628l0.474,1.101
				h1.202h0.153h2.218l-0.427-2.176c-0.497-2.554-0.831-5.143-0.997-7.694l-0.109-1.711l-1.713,0.001l-3.542-0.001H105.058
				L105.058,215.773z"/>
		</g>
		<g>
			<path d="M139.949,226.441l0.236-0.552c1.104-2.554,2.563-5.175,4.331-7.778l0.972-1.427h-6.118l-0.057,0.855
				c-0.162,2.563-0.504,5.188-1.017,7.813l-0.208,1.088H139.949z"/>
			<path fill="#FFFF00" d="M140.226,217.602h3.54c-1.789,2.628-3.272,5.279-4.418,7.93l-0.151-0.001
				C139.691,222.978,140.05,220.326,140.226,217.602 M138.51,215.774l-0.108,1.71c-0.161,2.52-0.495,5.11-1,7.694l-0.423,2.176
				h2.218h0.15h1.204l0.475-1.101c1.079-2.506,2.51-5.069,4.247-7.629l1.937-2.852h-3.444h-3.54L138.51,215.774L138.51,215.774z"/>
		</g>
		<g>
			<path d="M138.562,240.073c4.972-9.092,10.504-16.801,16.435-22.91c4.644-4.778,9.877-10.484,13.507-16.581
				c4.117-6.917,5.339-12.958,3.739-18.45c-3.18-10.938-11.531-18.832-22.334-21.113l-0.943-0.195l-0.149,0.951
				c-0.206,1.316-0.865,3.932-2.945,6.635c-0.591,0.776-1.273,1.508-2.019,2.189l-0.671,0.604l0.597,0.676
				c1.79,2.026,3.525,5.571,1.615,10.951c-0.44,1.255-1.056,2.521-1.824,3.776l-0.824,1.33l1.432,0.269
				c1.401,0.051,3.774,0.504,7.143,2.355c2.04,0.963,3.5,2.634,4.16,4.722c0.083,0.275,0.157,0.564,0.22,0.853
				c0.191,0.966,0.212,2.015,0.07,3.11c-0.229,1.731-0.88,3.584-1.938,5.496c-0.38,0.689-0.833,1.42-1.346,2.167
				c-0.867,1.251-1.886,2.525-3.034,3.79c-1.187,1.305-2.338,2.685-3.428,4.097c-0.583,0.762-1.133,1.522-1.662,2.284
				c-1.871,2.677-3.428,5.397-4.631,8.074c-2.321,5.174-3.317,10.219-2.879,14.573l0.294,2.932L138.562,240.073z"/>
			<path fill="#FFFF00" d="M149.72,161.917c8.995,1.898,18.147,8.433,21.647,20.471c1.523,5.236,0.335,11.032-3.646,17.726
				c-3.575,6.006-8.766,11.667-13.374,16.41c-5.999,6.182-11.572,13.949-16.586,23.112c-0.426-4.277,0.569-9.119,2.807-14.105
				c1.177-2.619,2.7-5.282,4.543-7.929c0.523-0.753,1.063-1.497,1.637-2.244c1.05-1.363,2.174-2.713,3.379-4.049
				c1.242-1.362,2.266-2.659,3.109-3.883c0.534-0.775,1-1.528,1.396-2.242c1.23-2.233,1.826-4.172,2.044-5.817
				c0.175-1.327,0.105-2.469-0.082-3.412c-0.064-0.322-0.15-0.637-0.247-0.948c-0.731-2.315-2.361-4.192-4.585-5.244
				c-3.481-1.917-5.981-2.414-7.551-2.467c0.046-0.075,0.09-0.145,0.135-0.214c0.765-1.241,1.419-2.556,1.914-3.945
				c2.051-5.796,0.16-9.649-1.796-11.861c0.79-0.715,1.502-1.483,2.134-2.31C148.817,166.071,149.504,163.271,149.72,161.917
				 M148.214,159.731l-0.297,1.899c-0.196,1.233-0.814,3.674-2.769,6.221c-0.558,0.733-1.201,1.428-1.907,2.071l-1.341,1.205
				l1.192,1.355c2.373,2.68,2.854,6.06,1.443,10.043c-0.42,1.194-1.009,2.402-1.791,3.671l-0.097,0.154l-1.595,2.656l3.095,0.111
				c1.299,0.045,3.525,0.476,6.73,2.24l0.053,0.029l0.05,0.021c1.756,0.832,3.044,2.305,3.623,4.145
				c0.08,0.248,0.15,0.504,0.198,0.756c0.173,0.869,0.196,1.816,0.067,2.815c-0.218,1.617-0.835,3.357-1.836,5.177
				c-0.365,0.658-0.801,1.368-1.296,2.084c-0.844,1.223-1.838,2.462-2.96,3.697c-1.202,1.326-2.37,2.722-3.477,4.158
				c-0.566,0.741-1.121,1.503-1.687,2.312c-1.9,2.729-3.486,5.499-4.712,8.229c-2.385,5.322-3.409,10.523-2.954,15.034l0.589,5.873
				l2.831-5.177c4.932-9.021,10.41-16.663,16.289-22.714c4.679-4.814,9.958-10.574,13.635-16.751
				c4.252-7.149,5.505-13.418,3.83-19.172c-3.274-11.267-11.882-19.398-23.025-21.746L148.214,159.731L148.214,159.731z"/>
		</g>
		<path d="M115.418,239.727c0.438-4.359-0.558-9.399-2.881-14.573c-1.2-2.678-2.758-5.393-4.624-8.074
			c-0.531-0.762-1.086-1.522-1.668-2.276c-1.1-1.436-2.253-2.812-3.424-4.104c-1.153-1.268-2.173-2.539-3.033-3.79
			c-0.511-0.743-0.968-1.473-1.35-2.167c-1.062-1.912-1.709-3.765-1.937-5.496c-0.144-1.097-0.121-2.144,0.074-3.113
			c0.058-0.288,0.135-0.574,0.222-0.85c0.657-2.088,2.116-3.759,4.105-4.694c3.425-1.886,5.807-2.334,7.208-2.383l1.607-0.057
			l-0.866-1.35l-0.905,0.282l0.773-0.486c-0.786-1.257-1.405-2.529-1.843-3.765c-1.909-5.376-0.174-8.925,1.615-10.951l0.597-0.676
			l-0.669-0.604c-0.744-0.677-1.426-1.413-2.022-2.19c-2.077-2.702-2.733-5.316-2.938-6.635l-0.154-0.95l-0.941,0.196
			c-10.805,2.281-19.156,10.175-22.335,21.112c-1.601,5.493-0.378,11.533,3.737,18.447c3.626,6.093,8.857,11.804,13.504,16.584
			c5.938,6.109,11.468,13.818,16.439,22.91l1.414,2.593L115.418,239.727z"/>
		<path fill="#FFFF00" d="M102.555,161.916c0.21,1.354,0.899,4.156,3.12,7.049c0.634,0.826,1.346,1.595,2.133,2.31
			c-1.953,2.212-3.845,6.065-1.794,11.861c0.468,1.319,1.12,2.641,1.933,3.945c0.042,0.069,0.089,0.139,0.134,0.209
			c-1.571,0.057-4.075,0.542-7.567,2.471c-2.227,1.053-3.856,2.93-4.587,5.245c-0.101,0.312-0.183,0.626-0.249,0.948
			c-0.186,0.944-0.254,2.084-0.079,3.411c0.214,1.646,0.808,3.585,2.043,5.818c0.394,0.714,0.857,1.467,1.396,2.241
			c0.842,1.225,1.864,2.521,3.107,3.884c1.212,1.336,2.328,2.686,3.379,4.049c0.574,0.746,1.117,1.491,1.639,2.244
			c1.84,2.646,3.367,5.31,4.543,7.929c2.24,4.986,3.231,9.828,2.802,14.105c-5.007-9.162-10.582-16.931-16.583-23.112
			c-4.608-4.744-9.799-10.404-13.373-16.41c-3.982-6.693-5.173-12.489-3.646-17.726C84.408,170.35,93.554,163.815,102.555,161.916
			 M104.06,159.731l-1.88,0.398c-11.143,2.348-19.751,10.479-23.027,21.746c-1.673,5.754-0.421,12.022,3.832,19.171
			c3.671,6.177,8.95,11.935,13.632,16.752c5.882,6.051,11.365,13.693,16.292,22.714l2.829,5.181l0.591-5.877
			c0.45-4.511-0.567-9.714-2.954-15.034c-1.226-2.729-2.813-5.494-4.713-8.229c-0.53-0.759-1.098-1.535-1.693-2.312
			c-1.112-1.444-2.282-2.847-3.474-4.161c-1.122-1.232-2.116-2.478-2.95-3.686c-0.501-0.725-0.937-1.43-1.305-2.1
			c-1.004-1.812-1.617-3.553-1.831-5.17c-0.132-0.999-0.112-1.946,0.064-2.815c0.049-0.256,0.116-0.508,0.192-0.753
			c0.584-1.843,1.872-3.316,3.625-4.146l0.057-0.022l0.048-0.029c3.213-1.774,5.442-2.2,6.749-2.244l3.189-0.164l-1.756-2.71
			l-0.079-0.127c-0.753-1.208-1.344-2.411-1.76-3.588c-1.409-3.983-0.927-7.363,1.441-10.043l1.189-1.348l-1.333-1.214
			c-0.705-0.643-1.349-1.336-1.913-2.07c-1.951-2.542-2.567-4.987-2.765-6.221L104.06,159.731L104.06,159.731z"/>
		<g>
			<path d="M127.95,200.58c0.698-0.001,3.581-1.728,4.864-2.561c1.116-0.725,2.196-1.493,3.223-2.288
				c1.777-1.381,3.375-2.835,4.747-4.315c0.593-0.634,1.167-1.298,1.708-1.992c0.23-0.289,0.446-0.585,0.664-0.886
				c0.178-0.241,0.346-0.482,0.517-0.734l0.143-0.223c0.977-1.49,1.739-3.011,2.27-4.502c2.025-5.731,0.156-9.522-1.771-11.694
				l-0.575-0.657l-0.682,0.547c-0.963,0.783-2.048,1.491-3.223,2.104l-0.5,0.266l0.012,0.566c0.009,0.42,0,0.836-0.018,1.252
				c-0.022,0.346-0.053,0.693-0.089,1.045c-0.033,0.325-0.078,0.65-0.127,0.974c-0.229,1.508-0.625,3.082-1.178,4.676
				c-0.514,1.478-1.168,2.998-1.932,4.51c-1.311,2.58-2.958,5.201-4.907,7.792c-0.624,0.839-1.216,1.584-1.737,2.212
				c-1.213,1.474-2.056,2.354-2.064,2.362l-1.492,1.546L127.95,200.58z"/>
			<path fill="#FFFF00" d="M143.635,171.989c1.93,2.178,3.41,5.646,1.591,10.785c-0.539,1.516-1.292,2.954-2.173,4.307
				c-0.048,0.069-0.09,0.144-0.143,0.214c-0.161,0.244-0.325,0.479-0.495,0.712c-0.207,0.29-0.419,0.577-0.644,0.858
				c-0.521,0.669-1.08,1.311-1.655,1.932c-1.483,1.595-3.094,3.013-4.642,4.209c-1.107,0.861-2.182,1.61-3.156,2.244
				c-2.403,1.562-4.201,2.416-4.369,2.416c0,0,0.859-0.888,2.113-2.416c0.53-0.639,1.128-1.39,1.764-2.244
				c1.601-2.126,3.437-4.861,4.989-7.925c0.748-1.474,1.426-3.027,1.983-4.626c0.544-1.579,0.97-3.204,1.222-4.847
				c0.045-0.33,0.095-0.666,0.13-1.004c0.035-0.369,0.069-0.729,0.088-1.1c0.024-0.437,0.033-0.875,0.024-1.313
				C141.49,173.538,142.614,172.807,143.635,171.989 M143.842,169.472l-1.354,1.094c-0.924,0.741-1.955,1.418-3.076,2.009
				l-1.004,0.529l0.028,1.129c0.009,0.397,0,0.792-0.019,1.176c-0.02,0.336-0.049,0.669-0.084,1.015
				c-0.028,0.308-0.078,0.62-0.117,0.914c-0.227,1.457-0.608,2.981-1.142,4.522c-0.503,1.44-1.136,2.919-1.887,4.399
				c-1.285,2.527-2.906,5.105-4.818,7.656c-0.583,0.774-1.16,1.51-1.715,2.177c-1.185,1.44-2.01,2.302-2.019,2.309l-2.975,3.094
				h4.291c1.111,0,4.387-2.075,5.363-2.711c1.135-0.737,2.238-1.521,3.284-2.332c1.816-1.413,3.451-2.896,4.855-4.409
				c0.631-0.678,1.226-1.367,1.764-2.058c0.232-0.301,0.459-0.602,0.683-0.911c0.182-0.252,0.361-0.508,0.506-0.729
				c0.046-0.062,0.085-0.127,0.173-0.265c1.017-1.554,1.812-3.136,2.363-4.699c2.18-6.144,0.147-10.245-1.94-12.604L143.842,169.472
				L143.842,169.472z"/>
		</g>
		<g>
			<path d="M126.774,200.579l-1.521-1.546c-0.007-0.01-0.866-0.894-2.102-2.367c-0.535-0.629-1.132-1.372-1.771-2.208
				c-1.99-2.601-3.669-5.226-4.999-7.797c-0.814-1.57-1.493-3.124-2.018-4.609c-0.55-1.569-0.949-3.124-1.185-4.626
				c-0.049-0.321-0.096-0.639-0.127-0.96c-0.042-0.352-0.07-0.695-0.092-1.04c-0.019-0.408-0.031-0.813-0.026-1.216l0.007-0.559
				l-0.494-0.263c-1.196-0.628-2.281-1.342-3.232-2.114l-0.678-0.547l-0.581,0.657c-1.927,2.172-3.801,5.963-1.771,11.694
				c0.533,1.501,1.31,3.017,2.303,4.511l0.108,0.163c0.167,0.254,0.345,0.495,0.522,0.742c0.278,0.371,0.509,0.674,0.742,0.968
				c0.522,0.646,1.069,1.268,1.637,1.872c1.436,1.521,3.101,3,4.95,4.403c1.052,0.801,2.16,1.564,3.293,2.286
				c0.796,0.506,4.161,2.556,4.858,2.555H126.774z"/>
			<path fill="#FFFF00" d="M108.641,171.989c1.017,0.821,2.15,1.554,3.382,2.205c-0.002,0.426,0.007,0.853,0.031,1.275
				c0.017,0.365,0.05,0.728,0.092,1.092c0.036,0.336,0.081,0.665,0.133,1.001c0.254,1.618,0.674,3.229,1.228,4.794
				c0.574,1.629,1.285,3.217,2.063,4.725c1.585,3.063,3.457,5.798,5.086,7.925c0.649,0.854,1.259,1.605,1.797,2.245
				c1.276,1.527,2.147,2.415,2.147,2.415c-0.106,0-1.92-0.854-4.369-2.416c-0.997-0.633-2.095-1.383-3.23-2.244
				c-1.616-1.223-3.294-2.668-4.838-4.298c-0.551-0.585-1.08-1.188-1.585-1.813c-0.229-0.285-0.452-0.578-0.669-0.874
				c-0.189-0.254-0.375-0.509-0.551-0.775c-0.037-0.057-0.073-0.11-0.104-0.164c-0.903-1.353-1.667-2.792-2.207-4.308
				C105.229,177.636,106.709,174.167,108.641,171.989 M108.436,169.472l-1.161,1.304c-2.092,2.357-4.125,6.461-1.951,12.604
				c0.558,1.576,1.37,3.159,2.448,4.777l0.055,0.086l0.015,0.022c0.172,0.263,0.359,0.514,0.538,0.764l0.056,0.076l0.003,0.01
				c0.229,0.309,0.468,0.617,0.715,0.923c0.518,0.644,1.069,1.274,1.679,1.925c1.478,1.558,3.177,3.07,5.064,4.502
				c1.071,0.812,2.2,1.594,3.356,2.326c0.991,0.636,4.315,2.703,5.347,2.703h4.344l-3.038-3.107
				c-0.008-0.003-0.844-0.861-2.058-2.311c-0.581-0.691-1.169-1.42-1.74-2.174c-1.956-2.555-3.606-5.139-4.916-7.656
				c-0.793-1.536-1.451-3.051-1.961-4.502c-0.535-1.509-0.92-3.015-1.146-4.466c-0.049-0.309-0.09-0.606-0.126-0.928
				c-0.035-0.321-0.067-0.648-0.084-0.968c-0.019-0.396-0.03-0.779-0.025-1.167l0.013-1.118l-0.989-0.519
				c-1.142-0.599-2.178-1.274-3.081-2.01L108.436,169.472L108.436,169.472z"/>
		</g>
		<path d="M117.471,181.369c3.248,0,5.407,5.414,5.407,5.414c-0.231,0.021-0.459,0.034-0.681,0.042h-1.046
			c-1.968-0.08-3.362-0.643-4.251-1.381c-1.022-0.853-1.379-1.938-1.183-2.771C115.89,181.922,116.502,181.369,117.471,181.369z"/>
		<path d="M136.586,182.776c0.133,0.777-0.195,1.737-1.058,2.53c-0.876,0.808-2.315,1.438-4.409,1.519h-1.042
			c-0.224-0.008-0.448-0.021-0.683-0.042c0,0,2.161-5.414,5.406-5.414C135.816,181.369,136.445,181.975,136.586,182.776z"/>
		<path d="M126.491,177.394c3.087-0.168,5.909-0.612,8.448-1.319c1.334-0.372,2.58-0.815,3.712-1.317
			c0.179-0.07,0.869-0.389,0.869-0.389s0.98-0.509,1.121-0.586c0.989-0.55,1.926-1.177,2.787-1.869l0.587-0.491l0.298-0.26
			c3.979-3.603,4.983-7.713,5.233-9.312c0.041-0.279,0.061-0.479,0.073-0.604l0.047-0.509l-0.4-0.447c0,0-0.292-0.221-0.848-0.578
			c-2.755-1.759-10.377-5.854-21.612-5.854h-1.334c-11.243,0-18.865,4.095-21.618,5.854c-0.561,0.363-0.853,0.583-0.853,0.583
			l-0.378,0.288l0.026,0.656c0.013,0.132,0.036,0.332,0.077,0.605c0.249,1.604,1.25,5.716,5.229,9.318l0.442,0.386l0.44,0.365
			c0.87,0.695,1.811,1.324,2.799,1.876l1.128,0.59c0,0,0.677,0.309,0.855,0.386c1.13,0.494,2.378,0.938,3.708,1.31
			c2.539,0.707,5.364,1.151,8.398,1.319h0.026H126.491z"/>
		<path fill="#FFFF00" d="M126.808,154.769c11.175,0,18.748,4.198,21.121,5.715c0.519,0.333,0.795,0.536,0.795,0.536
			s-0.005,0.055-0.011,0.143c-0.009,0.113-0.034,0.296-0.068,0.546c-0.237,1.532-1.192,5.381-4.946,8.778
			c-0.13,0.123-0.272,0.241-0.413,0.365c-0.139,0.117-0.276,0.228-0.423,0.351c-0.78,0.625-1.663,1.223-2.667,1.788
			c-0.173,0.097-0.359,0.181-0.532,0.271c-0.131,0.071-0.253,0.138-0.38,0.2c-0.055,0.03-0.105,0.054-0.16,0.081
			c-0.11,0.055-0.227,0.108-0.34,0.159c-0.161,0.077-0.328,0.149-0.497,0.219c-1.082,0.48-2.278,0.903-3.592,1.271
			c-2.329,0.651-5.036,1.111-8.204,1.291h-0.716c-3.163-0.179-5.87-0.64-8.197-1.291c-1.316-0.368-2.513-0.791-3.594-1.271
			c-0.167-0.069-0.336-0.142-0.499-0.219c-0.106-0.049-0.222-0.104-0.325-0.153c-0.062-0.024-0.11-0.058-0.164-0.087
			c-0.134-0.061-0.248-0.127-0.376-0.19c-0.175-0.095-0.368-0.185-0.536-0.281c-1.007-0.561-1.888-1.163-2.674-1.788
			c-0.143-0.123-0.28-0.233-0.425-0.351c-0.14-0.124-0.28-0.242-0.414-0.365c-3.751-3.397-4.703-7.246-4.939-8.778
			c-0.036-0.25-0.056-0.433-0.07-0.546c-0.007-0.088-0.006-0.144-0.006-0.144s0.27-0.201,0.794-0.535
			c2.37-1.517,9.951-5.715,21.125-5.715c0.216,0,0.442,0.004,0.663,0.004c0.224,0,0.448-0.004,0.667-0.004H126.808 M125.473,152.942
			c-11.485-0.001-19.287,4.198-22.108,6.004c-0.602,0.381-0.913,0.619-0.913,0.619l-0.749,0.582l0.026,0.938
			c0,0,0.001,0.087,0.016,0.248c0.012,0.134,0.033,0.348,0.083,0.653c0.258,1.694,1.324,6.052,5.507,9.844
			c0.104,0.099,0.211,0.19,0.325,0.284l0.155,0.141c0.146,0.124,0.296,0.243,0.453,0.368c0.91,0.731,1.894,1.391,2.931,1.968
			c0.106,0.06,0.226,0.119,0.338,0.179l0.269,0.136l0.12,0.062c0.094,0.049,0.182,0.096,0.275,0.142l0.173,0.094l0.271,0.12
			l0.055,0.027c0.181,0.085,0.37,0.168,0.55,0.244c1.173,0.52,2.466,0.974,3.839,1.363c2.599,0.717,5.49,1.172,8.588,1.347
			l0.051,0.003h0.046h0.716l0.053,0.001l0.051-0.004c3.098-0.175,5.989-0.63,8.591-1.347c1.372-0.39,2.664-0.844,3.818-1.355
			c0.194-0.084,0.381-0.167,0.555-0.248l0.141-0.06l0.241-0.113l0.158-0.082c0.151-0.078,0.295-0.153,0.391-0.21l0.134-0.065
			c0.156-0.08,0.312-0.157,0.462-0.243c1.033-0.577,2.013-1.236,2.919-1.958c0.159-0.126,0.309-0.255,0.483-0.396l0.125-0.112
			c0.107-0.094,0.215-0.183,0.313-0.274c4.195-3.802,5.26-8.159,5.524-9.861c0.042-0.298,0.064-0.512,0.078-0.646l0.006-0.1
			l0.006-0.033l0.094-1.023l-0.818-0.618c0,0-0.314-0.236-0.904-0.612c-2.824-1.806-10.626-6.004-22.111-6.005l-0.649,0.004
			L125.473,152.942L125.473,152.942z"/>
		<g>
			<path d="M127.55,230.46l-1.657-0.954l-0.578,0.295l0.333-0.438l-2.445-1.411c-0.809-0.468-1.526-1.091-2.136-1.854
				c-1.351-1.69-2.009-3.946-2.009-6.89c0-0.583,0.076-1.179,0.223-1.819c0.183-0.79,0.492-1.614,0.92-2.453
				c0.96-1.848,2.319-3.414,3.306-4.552l0.11-0.125c0.078-0.121,0.27-0.654,0.439-2.901c0.052-0.681,0.099-1.412,0.145-2.229
				c0.122-1.975,0.243-3.676,0.521-4.617c0.084-0.291,0.18-0.508,0.3-0.687c0.109-0.16,0.23-0.282,0.496-0.44l0.277-0.115h0.203
				c0.592,0,1.023,0.402,1.29,1.21c0.314,0.938,0.507,2.643,0.708,4.608l0.237,2.236c0.266,2.295,0.475,2.826,0.533,2.928
				c0.946,1.088,2.37,2.742,3.347,4.698c0.413,0.819,0.709,1.645,0.888,2.447c0.144,0.627,0.214,1.235,0.214,1.812
				c0,3.024-0.66,5.282-2.015,6.906c-0.653,0.779-1.402,1.38-2.292,1.837l-2.401,1.237L127.55,230.46z M123.617,218.103
				c-0.66,0.998-1.014,2.379-1.014,3.979c0,0.941,0.278,1.961,0.833,3.032c0.45,0.875,0.924,1.459,0.928,1.469l1.765,2.151
				l1.631-2.144c0.004-0.008,0.439-0.581,0.856-1.454c0.353-0.737,0.769-1.864,0.769-3.055c0-1.609-0.347-2.984-1.012-3.979
				c-0.616-0.923-1.439-1.413-2.375-1.413C124.812,216.689,124.048,217.46,123.617,218.103z"/>
			<path fill="#FFFF00" d="M125.997,200.181c0.159,0,0.299,0.217,0.423,0.582c0.29,0.869,0.48,2.615,0.666,4.421
				c0.078,0.759,0.158,1.527,0.239,2.241c0.19,1.649,0.414,3.034,0.749,3.419c0.966,1.121,2.312,2.684,3.222,4.514
				c0.356,0.714,0.642,1.462,0.813,2.244c0.12,0.521,0.189,1.062,0.189,1.606c0,2.766-0.566,4.839-1.8,6.322
				c-0.542,0.646-1.2,1.19-2.015,1.61c0,0,0.484-0.628,0.954-1.61c0.437-0.918,0.862-2.141,0.862-3.448
				c0-1.884-0.444-3.402-1.165-4.48c-0.787-1.176-1.895-1.824-3.138-1.824c-1.239,0-2.354,0.647-3.141,1.824
				c-0.721,1.078-1.164,2.597-1.164,4.48c0,1.304,0.452,2.526,0.928,3.448c0.51,0.992,1.039,1.633,1.039,1.633
				c-0.743-0.429-1.359-0.981-1.878-1.632c-1.182-1.483-1.812-3.552-1.812-6.323c0-0.544,0.078-1.085,0.201-1.606
				c0.181-0.782,0.478-1.531,0.842-2.244c0.949-1.84,2.346-3.412,3.32-4.532c0.334-0.385,0.507-1.759,0.635-3.4
				c0.054-0.714,0.098-1.482,0.145-2.24c0.113-1.807,0.229-3.553,0.486-4.421c0.05-0.191,0.11-0.329,0.177-0.426
				c0.035-0.055,0.075-0.096,0.115-0.123c0.008-0.002,0.008-0.002,0.013-0.002c0,0,0,0,0-0.008
				C125.932,200.193,125.965,200.181,125.997,200.181 M125.997,198.354c-0.265,0-0.523,0.054-0.773,0.158l-0.132,0.045l-0.088,0.056
				l-0.169,0.077l-0.13,0.131c-0.164,0.137-0.309,0.297-0.437,0.481c-0.175,0.261-0.317,0.575-0.424,0.951
				c-0.3,1.037-0.423,2.723-0.553,4.814l-0.004,0.102c-0.046,0.714-0.09,1.439-0.142,2.115c-0.127,1.652-0.257,2.271-0.317,2.493
				l-0.009,0.009c-1.021,1.175-2.416,2.78-3.428,4.734c-0.463,0.903-0.801,1.798-0.999,2.662c-0.164,0.706-0.245,1.369-0.245,2.024
				c0,3.115,0.74,5.625,2.205,7.46c0.684,0.852,1.485,1.548,2.396,2.074l1.532,0.886l-2.198,2.868l3.79-1.956l5.46,3.148
				l-3.422-4.195l1.412-0.729c0.99-0.509,1.856-1.202,2.578-2.063c1.496-1.793,2.228-4.246,2.228-7.492
				c0-0.651-0.082-1.327-0.236-2.001c-0.197-0.881-0.518-1.779-0.968-2.664c-0.983-1.986-2.388-3.646-3.358-4.761
				c-0.069-0.21-0.226-0.829-0.428-2.56c-0.068-0.629-0.138-1.303-0.207-1.974l-0.024-0.254c-0.217-2.091-0.409-3.777-0.755-4.805
				C127.625,198.593,126.574,198.355,125.997,198.354L125.997,198.354z M127.034,226.03L127.034,226.03l-0.942,1.226l-1.021-1.251
				c-0.004-0.01-0.425-0.527-0.826-1.313c-0.478-0.925-0.728-1.824-0.728-2.609c0-1.797,0.468-2.881,0.854-3.468
				c0.313-0.458,0.846-1.013,1.627-1.013c0.782,0,1.311,0.55,1.619,1.013c0.39,0.588,0.859,1.66,0.859,3.468
				c0,1.021-0.373,2.009-0.688,2.657C127.418,225.52,127.034,226.03,127.034,226.03L127.034,226.03z"/>
		</g>
	</g>
</g>
</svg>
