<?xml version="1.0" encoding="utf-8"?>
<!-- Generator: Adobe Illustrator 15.0.2, SVG Export Plug-In . SVG Version: 6.00 Build 0)  -->
<!DOCTYPE svg PUBLIC "-//W3C//DTD SVG 1.1//EN" "http://www.w3.org/Graphics/SVG/1.1/DTD/svg11.dtd">
<svg version="1.1" id="Layer_1" xmlns="http://www.w3.org/2000/svg" xmlns:xlink="http://www.w3.org/1999/xlink" x="0px" y="0px"
	 width="16px" height="16px" viewBox="0 0 16 16" enable-background="new 0 0 16 16" xml:space="preserve">
<g>
	<path fill="#FFFFFF" d="M14.608,9.231c0.444,1.232-1.739,3.766-5.191,5.032C6,15.531,2.739,15.023,2.296,13.789
		c-0.601-1.709,0.918-1.773,0.475-3.547C1.695,6.098,1.505,4.356,3.784,2.457C4.605,1.792,3.91,1.348,4.734,1.064
		c0.792-0.285,0.536,0.475,1.583,0.475c2.943-0.063,3.892,1.392,5.696,5.287C12.773,8.472,14.009,7.521,14.608,9.231z M13.534,9.61
		c-0.191-0.569-2.152-1.044-5.668,0.255c-3.513,1.298-4.684,3.006-4.495,3.512C3.466,13.696,6,14.358,9.069,13.219
		C12.14,12.08,13.66,9.958,13.534,9.61z M8.69,10.242c0,0,0,0,0,0.034c0.284,0.821-0.442,1.835-1.646,2.278
		c-0.949,0.378-1.899,0.255-2.405-0.223c0.696-0.601,1.835-1.296,3.449-1.868C8.279,10.371,8.5,10.307,8.69,10.242z"/>
</g>
</svg>
