<?xml version="1.0" encoding="utf-8"?>
<!-- Generator: Adobe Illustrator 15.0.2, SVG Export Plug-In . SVG Version: 6.00 Build 0)  -->
<!DOCTYPE svg PUBLIC "-//W3C//DTD SVG 1.1//EN" "http://www.w3.org/Graphics/SVG/1.1/DTD/svg11.dtd">
<svg version="1.1" id="Layer_1" xmlns="http://www.w3.org/2000/svg" xmlns:xlink="http://www.w3.org/1999/xlink" x="0px" y="0px"
	 width="24px" height="80px" viewBox="0 0 24 80" enable-background="new 0 0 24 80" xml:space="preserve">
<g>
	<g>
		<path fill="#FFFFFF" d="M12,30.598c-5.79,0-10.5-4.71-10.5-10.5c0-3.041,1.324-5.932,3.632-7.933
			c0.626-0.543,1.574-0.473,2.116,0.151c0.543,0.625,0.475,1.573-0.151,2.116c-1.65,1.43-2.597,3.495-2.597,5.665
			c0,4.136,3.364,7.5,7.5,7.5s7.5-3.364,7.5-7.5c0-2.17-0.945-4.235-2.598-5.665c-0.625-0.543-0.693-1.49-0.15-2.116
			c0.542-0.625,1.49-0.694,2.116-0.151c2.308,2.001,3.632,4.892,3.632,7.933C22.5,25.888,17.79,30.598,12,30.598z"/>
	</g>
	<g>
		<path fill="#FFFFFF" d="M12,21.098c-0.829,0-1.5-0.672-1.5-1.5v-8.687c0-0.828,0.671-1.5,1.5-1.5s1.5,0.672,1.5,1.5v8.687
			C13.5,20.426,12.829,21.098,12,21.098z"/>
	</g>
</g>
<g>
	<path fill="#FFFFFF" d="M20.008,66.677c-0.511,0-1.008-0.261-1.288-0.729c-0.086-0.135-1.617-2.438-6.216-2.438
		c-4.634,0-6.154,2.341-6.216,2.44c-0.434,0.694-1.353,0.921-2.052,0.5c-0.701-0.423-0.941-1.317-0.531-2.025
		c0.092-0.16,2.342-3.915,8.799-3.915c6.459,0,8.708,3.756,8.801,3.915c0.415,0.717,0.171,1.635-0.546,2.05
		C20.521,66.612,20.264,66.677,20.008,66.677z"/>
</g>
<circle fill="#FFFFFF" cx="8.333" cy="55.01" r="1.833"/>
<circle fill="#FFFFFF" cx="15.336" cy="55.01" r="1.833"/>
</svg>
