<?xml version="1.0" encoding="utf-8"?>
<!-- Generator: Adobe Illustrator 15.0.2, SVG Export Plug-In . SVG Version: 6.00 Build 0)  -->
<!DOCTYPE svg PUBLIC "-//W3C//DTD SVG 1.1//EN" "http://www.w3.org/Graphics/SVG/1.1/DTD/svg11.dtd">
<svg version="1.1" id="Layer_1" xmlns="http://www.w3.org/2000/svg" xmlns:xlink="http://www.w3.org/1999/xlink" x="0px" y="0px"
	 width="16px" height="16px" viewBox="0 0 16 16" enable-background="new 0 0 16 16" xml:space="preserve">
<g>
	<path fill="#FFFFFF" d="M15,7.909c0.03,3.867-3.044,7.031-6.908,7.094c-3.866,0.058-7.061-3.047-7.091-6.912
		c-0.061-3.864,3.012-7.03,6.878-7.09C11.743,0.94,14.938,4.043,15,7.909z M10.771,6.083c0-0.76-0.275-1.369-0.821-1.766
		C9.431,3.954,8.731,3.74,7.909,3.74c-0.608,0-1.156,0.151-1.582,0.425C5.658,4.592,5.292,5.323,5.231,6.356v0.092h1.674V6.356
		c0-0.273,0.092-0.547,0.274-0.822c0.153-0.244,0.426-0.365,0.792-0.365c0.394,0,0.668,0.092,0.82,0.305
		c0.153,0.213,0.213,0.456,0.213,0.701c0,0.181-0.06,0.364-0.243,0.608C8.699,6.875,8.609,6.997,8.488,7.057
		c-0.032,0.03-0.854,0.548-1.218,1.004C7.026,8.336,7.026,8.67,6.997,9.218v0.153h1.612V9.311c0-0.275,0.029-0.307,0.061-0.459
		c0.062-0.152,0.213-0.334,0.455-0.516l0.428-0.305c0.365-0.305,0.671-0.548,0.822-0.731C10.646,6.936,10.771,6.51,10.771,6.083z
		 M8.912,11.286c0-0.605-0.395-1.032-1.033-1.064h-0.03c-0.578,0-1.004,0.427-1.004,1.003C6.813,11.806,7.24,12.23,7.849,12.26h0.03
		C8.456,12.26,8.883,11.864,8.912,11.286z"/>
</g>
</svg>
