<?xml version="1.0" encoding="utf-8"?>
<!-- Generator: Adobe Illustrator 15.0.2, SVG Export Plug-In  -->
<!DOCTYPE svg PUBLIC "-//W3C//DTD SVG 1.1//EN" "http://www.w3.org/Graphics/SVG/1.1/DTD/svg11.dtd" [
	<!ENTITY ns_flows "http://ns.adobe.com/Flows/1.0/">
]>
<svg version="1.1"
	 xmlns="http://www.w3.org/2000/svg" xmlns:xlink="http://www.w3.org/1999/xlink" xmlns:a="http://ns.adobe.com/AdobeSVGViewerExtensions/3.0/"
	 x="0px" y="0px" width="32px" height="44px" viewBox="2.5 0 32 44" overflow="visible" enable-background="new 2.5 0 32 44"
	 xml:space="preserve">
<defs>
</defs>
<filter  filterUnits="objectBoundingBox" id="AI_Shadow_1">
	<feGaussianBlur  result="blur" in="SourceAlpha" stdDeviation="1"></feGaussianBlur>
	<feOffset  result="offsetBlurredAlpha" in="blur" dx="0" dy="1"></feOffset>
	<feMerge>
		<feMergeNode  in="offsetBlurredAlpha"></feMergeNode>
		<feMergeNode  in="SourceGraphic"></feMergeNode>
	</feMerge>
</filter>
<filter  id="AI_GaussianBlur_4">
	<feGaussianBlur  stdDeviation="2"></feGaussianBlur>
</filter>
<g opacity="0.33" filter="url(#AI_GaussianBlur_4)">
	<path fill="#010101" d="M19.4,29.4c-0.1,0-0.1,0-0.2,0c-0.1,0-0.1,0-0.2,0C8.9,29.2,3,30.1,3,31.2c0,1,2.3,4.9,4.5,6
		c2.1,1,8.5,2.1,8.5,2.1s7-1,9.5-2c2.7-1,7.1-4.6,7.7-5.6C34,30.6,29.1,29.6,19.4,29.4z"/>
</g>
<linearGradient id="SVGID_1_" gradientUnits="userSpaceOnUse" x1="557.4854" y1="1364.668" x2="557.4854" y2="1387.2797" gradientTransform="matrix(1 0 0 1 -541.7197 -1352.6621)">
	<stop  offset="0" style="stop-color:#BF3731"/>
	<stop  offset="1" style="stop-color:#962522"/>
</linearGradient>
<path fill="url(#SVGID_1_)" d="M15.9,0.5c-0.1,0-0.1,0-0.1,0c-0.1,0-0.1,0-0.1,0C7.6,0.5,3,3.4,3,6.8c0,3.5,2.1,17.7,4.1,22.2
	c2.1,4.5,8.6,9.5,8.6,9.5s6.5-5,8.6-9.5c2.1-4.5,4.1-18.8,4.1-22.2C28.5,3.4,23.9,0.5,15.9,0.5z"/>
<path fill="#5E1614" d="M15.8,39.2L15.5,39c-0.3-0.2-6.7-5.1-8.7-9.7C4.6,24.6,2.5,10.3,2.5,6.8c0-3.4,4-6.8,13.1-6.8h0.3
	C24.9,0,29,3.4,29,6.8c0,3.5-2.1,17.8-4.2,22.4c-2.1,4.6-8.5,9.5-8.7,9.7L15.8,39.2z M15.6,1C7.3,1,3.5,4,3.5,6.8
	c0,3.3,2.1,17.6,4.1,22c1.7,3.8,6.8,8.1,8.1,9.1c1.3-1,6.4-5.3,8.1-9.1c2-4.5,4.1-18.7,4.1-22C28,4,24.2,1,15.9,1L15.6,1L15.6,1
	C15.7,1,15.7,1,15.6,1z"/>
<g filter="url(#AI_Shadow_1)">
	<g>
		<path fill="#F8F8F3" d="M21.3,10.9V6.5h-2v2h-1v-2h-2v2h-1v-2h-2v2h-1v-2h-2v4h0l2,2.3v8.6l-2,1.9v1.9l3.6,0l7.4,0v-1.9l-2-1.9
			v-8.6L21.3,10.9z M14.3,22.5v-4.1c0-0.8,0.4-1.9,1.3-1.9h0.3c1,0,1.4,1,1.4,1.9v4.1H14.3z"/>
	</g>
</g>
</svg>
