<?xml version="1.0" encoding="utf-8"?>
<!-- Generator: Adobe Illustrator 15.0.2, SVG Export Plug-In  -->
<!DOCTYPE svg PUBLIC "-//W3C//DTD SVG 1.1//EN" "http://www.w3.org/Graphics/SVG/1.1/DTD/svg11.dtd" [
	<!ENTITY ns_flows "http://ns.adobe.com/Flows/1.0/">
]>
<svg version="1.1"
	 xmlns="http://www.w3.org/2000/svg" xmlns:xlink="http://www.w3.org/1999/xlink" xmlns:a="http://ns.adobe.com/AdobeSVGViewerExtensions/3.0/"
	 x="0px" y="0px" width="70px" height="70px" viewBox="-8.783 -8.613 70 70"
	 overflow="visible" enable-background="new -8.783 -8.613 70 70" xml:space="preserve">
<defs>
</defs>
<linearGradient id="SVGID_1_" gradientUnits="userSpaceOnUse" x1="-166.1338" y1="-293.9854" x2="-166.1338" y2="-228.1255" gradientTransform="matrix(0.7071 -0.7071 0.7071 0.7071 331.5327 96.6986)">
	<stop  offset="0" style="stop-color:#CC2C2D"/>
	<stop  offset="1" style="stop-color:#972222"/>
</linearGradient>
<path fill="url(#SVGID_1_)" d="M25.958,9.557c-1.188,0.092-3.807,1.533-7.781,4.313c-0.099,0.062-0.173,0.116-0.219,0.149
	c-0.404-0.128-1.804-1.67-2.736-2.688c-0.571-0.631-1.114-1.219-1.562-1.668c-1.042-1.04-2.916-2.561-4.291-3.658
	C8.785,5.531,8.282,5.127,7.971,4.86C6.969,3.996,6.383,3.273,4.998,1.153C4.5,0.394,3.888,0.006,3.184,0
	c-0.99,0.002-1.784,0.784-1.816,0.817L1.071,1.12C1.053,1.138,0.927,1.268,0.785,1.469L0.737,1.439c0,0-1.842,2.381,0.3,3.776
	c2.134,1.402,2.872,1.988,3.755,3.021c0.882,1.026,3.317,4.197,4.782,5.673c1.285,1.272,3.872,3.421,4.359,4.272
	c-2.618,3.641-4.054,6.056-4.391,7.359c-0.188,0.442-0.318,0.831-0.332,1.117c0,0,0.079-0.089,0.221-0.257l-0.023,0.315l0.495-0.563
	c1.771-2.025,3.726-4.125,4.776-5.073c0.942,0.555,11.529,10.106,17.895,15.854c3.521,3.184,6.298,5.699,6.882,6.182
	c1.005,0.844,10.821,8.475,12.293,9.354c0.076,0.061,0.139,0.087,0.166,0.097l0.373,0.078l-0.076-0.376
	c-0.002-0.033-0.033-0.099-0.098-0.192c-0.94-1.531-8.455-11.216-9.26-12.188c-0.489-0.574-2.996-3.352-6.174-6.866
	c-5.73-6.349-15.268-16.896-15.872-17.911c0.208-0.543,2.833-2.994,5.32-5.111l0.589-0.505L25.958,9.557z"/>
</svg>
