<?xml version="1.0" encoding="utf-8"?>
<!-- Generator: Adobe Illustrator 15.0.2, SVG Export Plug-In  -->
<!DOCTYPE svg PUBLIC "-//W3C//DTD SVG 1.1//EN" "http://www.w3.org/Graphics/SVG/1.1/DTD/svg11.dtd" [
	<!ENTITY ns_flows "http://ns.adobe.com/Flows/1.0/">
]>
<svg version="1.1"
	 xmlns="http://www.w3.org/2000/svg" xmlns:xlink="http://www.w3.org/1999/xlink" xmlns:a="http://ns.adobe.com/AdobeSVGViewerExtensions/3.0/"
	 x="0px" y="0px" width="32px" height="44px" viewBox="0.028 0 32 44" overflow="visible" enable-background="new 0.028 0 32 44"
	 xml:space="preserve">
<defs>
</defs>
<filter  id="AI_GaussianBlur_4">
	<feGaussianBlur  stdDeviation="2"></feGaussianBlur>
</filter>
<g opacity="0.33" filter="url(#AI_GaussianBlur_4)">
	<path fill="#010101" d="M19.429,29.4c-0.101,0-0.101,0-0.2,0c-0.101,0-0.101,0-0.2,0c-10.1-0.2-16,0.699-16,1.8
		c0,1,2.3,4.899,4.5,6c2.1,1,8.5,2.1,8.5,2.1s7-1,9.5-2c2.7-1,7.1-4.6,7.7-5.6C34.028,30.6,29.128,29.6,19.429,29.4z"/>
</g>
<linearGradient id="SVGID_1_" gradientUnits="userSpaceOnUse" x1="3.0283" y1="19.5" x2="28.4307" y2="19.5">
	<stop  offset="0" style="stop-color:#333333"/>
	<stop  offset="1" style="stop-color:#222222"/>
</linearGradient>
<path fill="url(#SVGID_1_)" d="M15.928,0.5c-0.1,0-0.1,0-0.1,0c-0.1,0-0.1,0-0.1,0c-8.1,0-12.7,2.9-12.7,6.3
	c0,3.5,2.1,17.7,4.1,22.2c2.1,4.5,8.6,9.5,8.6,9.5s6.5-5,8.6-9.5c2.101-4.5,4.101-18.8,4.101-22.2C28.528,3.4,23.929,0.5,15.928,0.5
	z"/>
<path d="M15.828,39.2l-0.3-0.2c-0.3-0.2-6.7-5.1-8.7-9.7c-2.2-4.7-4.3-19-4.3-22.5c0-3.4,4-6.8,13.1-6.8h0.3c9,0,13.1,3.4,13.1,6.8
	c0,3.5-2.1,17.8-4.2,22.4c-2.1,4.6-8.5,9.5-8.7,9.7L15.828,39.2z M15.628,1c-8.3,0-12.1,3-12.1,5.8c0,3.3,2.1,17.601,4.1,22
	c1.7,3.8,6.8,8.101,8.1,9.101c1.3-1,6.399-5.301,8.1-9.101c2-4.5,4.101-18.7,4.101-22c0.1-2.8-3.7-5.8-12-5.8H15.628L15.628,1
	C15.729,1,15.729,1,15.628,1z"/>
<g>
	<g>
		<g>
			<path fill="#F8F8F3" d="M21.328,10.9V6.5h-2v2h-1v-2h-2v2h-1v-2h-2v2h-1v-2h-2v4l0,0l2,2.3v8.6l-2,1.9v1.9h3.6h7.4v-1.9l-2-1.9
				v-8.6L21.328,10.9z M14.328,22.5v-4.1c0-0.8,0.4-1.9,1.3-1.9h0.3c1,0,1.4,1,1.4,1.9v4.1H14.328z"/>
		</g>
	</g>
</g>
</svg>
