<?xml version="1.0" encoding="utf-8"?>
<!-- Generator: Adobe Illustrator 15.0.2, SVG Export Plug-In  -->
<!DOCTYPE svg PUBLIC "-//W3C//DTD SVG 1.1//EN" "http://www.w3.org/Graphics/SVG/1.1/DTD/svg11.dtd" [
	<!ENTITY ns_flows "http://ns.adobe.com/Flows/1.0/">
]>
<svg version="1.1"
	 xmlns="http://www.w3.org/2000/svg" xmlns:xlink="http://www.w3.org/1999/xlink" xmlns:a="http://ns.adobe.com/AdobeSVGViewerExtensions/3.0/"
	 x="0px" y="0px" width="16px" height="16px" viewBox="0 0 16 16" overflow="visible" enable-background="new 0 0 16 16"
	 xml:space="preserve">
<defs>
</defs>
<g>
	<linearGradient id="SVGID_1_" gradientUnits="userSpaceOnUse" x1="0.4971" y1="7.9985" x2="7.8223" y2="7.9985">
		<stop  offset="0" style="stop-color:#FF3333"/>
		<stop  offset="0.5478" style="stop-color:#F2142B"/>
		<stop  offset="1" style="stop-color:#D91227"/>
	</linearGradient>
	<path fill="url(#SVGID_1_)" d="M4.159,15.5c-2.021,0-3.322-1.026-3.448-1.246c-0.02-0.064-0.005-0.103-0.005-0.103l0.347-0.347
		l-0.378-0.307c-0.49-0.51,0.049-2.008,1.441-4.006c1.252-1.793,0.948-3.338,0.848-3.846L2.923,5.438L2.73,5.246
		C1.988,4.767,1.545,3.957,1.545,3.081c0-1.423,1.158-2.58,2.581-2.58l0.117-0.004C5.616,0.5,6.774,1.658,6.774,3.081
		c0,0.876-0.443,1.686-1.187,2.166L5.404,5.366L5.367,5.582c-0.112,0.578-0.412,2.121,0.835,3.91
		c1.394,1.998,1.933,3.496,1.442,4.007L7.308,13.85l0.323,0.327c-0.002,0-0.003,0-0.003,0c-0.012,0-0.01,0.039-0.032,0.107
		C7.481,14.474,6.183,15.5,4.162,15.5H4.159z"/>
	<path fill="#B31020" d="M4.241,1c1.125,0.025,2.033,0.949,2.033,2.081c0,0.706-0.358,1.358-0.958,1.746L4.949,5.065L4.874,5.496
		L4.862,5.557c-0.291,1.498,0.021,2.918,0.93,4.222c1.637,2.346,1.59,3.271,1.491,3.374L6.61,13.854l0.329,0.334
		C6.479,14.512,5.479,15,4.159,15c-1.314,0-2.313-0.486-2.777-0.809l0.333-0.332l-0.679-0.707c-0.1-0.104-0.146-1.028,1.49-3.374
		C3.438,8.473,3.75,7.05,3.455,5.55L3.443,5.491L3.367,5.062L3.002,4.826c-0.6-0.387-0.957-1.04-0.957-1.745
		c0-1.131,0.907-2.054,2.032-2.08L4.1,1.004h0.059h0.046L4.241,1 M4.193,0C4.183,0,4.169,0.003,4.158,0.004
		c-0.01,0-0.021-0.002-0.032-0.003c-1.701,0-3.081,1.379-3.081,3.08c0,1.086,0.567,2.038,1.414,2.585
		C2.521,6.013,2.91,7.48,1.706,9.206c-1.293,1.854-2.22,3.776-1.392,4.639c0,0-0.198,0.198-0.066,0.596
		C0.381,14.839,1.939,16,4.159,16c0.001,0,0.002,0,0.003,0c2.221,0,3.774-1.161,3.908-1.56c0.131-0.396-0.065-0.596-0.065-0.596
		c0.827-0.862-0.101-2.786-1.393-4.639c-1.203-1.727-0.813-3.19-0.753-3.539c0.849-0.549,1.415-1.499,1.415-2.586
		C7.274,1.379,5.894,0,4.193,0L4.193,0z"/>
</g>
<rect x="10" y="12" fill="#B30F20" width="6" height="2"/>
</svg>
