<?xml version="1.0" encoding="utf-8"?>
<!-- Generator: Adobe Illustrator 15.0.2, SVG Export Plug-In  -->
<!DOCTYPE svg PUBLIC "-//W3C//DTD SVG 1.1//EN" "http://www.w3.org/Graphics/SVG/1.1/DTD/svg11.dtd" [
	<!ENTITY ns_flows "http://ns.adobe.com/Flows/1.0/">
]>
<svg version="1.1"
	 xmlns="http://www.w3.org/2000/svg" xmlns:xlink="http://www.w3.org/1999/xlink" xmlns:a="http://ns.adobe.com/AdobeSVGViewerExtensions/3.0/"
	 x="0px" y="0px" width="16px" height="16px" viewBox="-0.175 0 16 16" overflow="visible" enable-background="new -0.175 0 16 16"
	 xml:space="preserve">
<defs>
</defs>
<g>
	<path fill="#EDC82F" d="M7.825,15.5c-2.084,0-3.36-0.69-3.36-1.066c0-0.251,0.726-0.819,2.404-0.998l0.447-0.048v-1.597
		c0-1.567-1.28-2.419-2.762-3.407C2.748,7.179,0.5,5.68,0.5,2.226C0.5,2.154,0.554,2.1,0.626,2.1h3.288l0.142-0.261
		C4.409,1.192,5.584,0.5,7.825,0.5c2.267,0,3.452,0.692,3.805,1.339L11.772,2.1h3.287c0.031,0,0.091,0.049,0.091,0.126
		c0,3.503-2.246,4.974-4.051,6.155c-1.466,0.977-2.73,1.819-2.73,3.409v1.597l0.447,0.048c1.679,0.179,2.405,0.747,2.405,0.998
		C11.222,14.81,9.932,15.5,7.825,15.5z M0.754,2.861C0.981,5.443,2.53,6.726,4.097,7.818l1.529,1.066L4.835,7.196
		C4.294,6.04,4.002,4.602,3.942,2.801L3.926,2.317h-3.22L0.754,2.861z M11.708,2.809c-0.028,1.726-0.32,3.161-0.893,4.388
		l-0.769,1.648l1.503-1.024c1.498-1.02,3.115-2.329,3.347-4.96l0.048-0.544h-3.228L11.708,2.809z M7.825,0.578
		c-2.482,0-3.804,1.058-3.804,1.822s1.322,1.822,3.804,1.822c2.596,0,3.805-1.087,3.805-1.822S10.421,0.578,7.825,0.578z"/>
	<path fill="#D9B215" d="M11.151,3.882c-0.109,1.182-0.37,2.205-0.789,3.103l-0.909,1.95c-0.912,0.733-1.584,1.582-1.584,2.855
		v1.148v0.899l0.894,0.095c0.938,0.1,1.536,0.333,1.818,0.505C10.188,14.684,9.223,15,7.825,15c-1.379,0-2.332-0.315-2.721-0.562
		c0.281-0.172,0.878-0.405,1.818-0.506l0.894-0.095v-0.899v-1.148c0-1.262-0.686-2.113-1.614-2.854L5.289,6.984
		C4.891,6.135,4.635,5.118,4.514,3.896c0.74,0.488,1.871,0.826,3.312,0.826C9.353,4.722,10.448,4.362,11.151,3.882 M7.825,0
		C5.287,0,4.034,0.835,3.617,1.6H0.626C0.278,1.6,0,1.878,0,2.226C0,5.948,2.399,7.547,4.277,8.8
		c1.565,1.043,2.539,1.739,2.539,2.991v1.148c-1.635,0.174-2.852,0.766-2.852,1.495c0,0.87,1.738,1.566,3.86,1.566
		c2.157,0,3.896-0.696,3.896-1.566c0-0.729-1.218-1.321-2.853-1.495v-1.148c0-1.252,0.938-1.948,2.504-2.991
		c1.913-1.252,4.277-2.852,4.277-6.574c0-0.348-0.278-0.626-0.591-0.626h-2.99C11.652,0.835,10.399,0,7.825,0L7.825,0z M7.825,3.722
		c-2.365,0-3.304-0.974-3.304-1.322c0-0.348,0.938-1.322,3.304-1.322c2.4,0,3.305,0.974,3.305,1.322
		C11.13,2.748,10.226,3.722,7.825,3.722L7.825,3.722z M14.398,2.817c-0.208,2.365-1.599,3.548-3.13,4.591
		c0.486-1.043,0.904-2.469,0.939-4.591H14.398L14.398,2.817z M4.383,7.408C2.887,6.365,1.46,5.182,1.252,2.817h2.19
		C3.513,4.939,3.895,6.365,4.383,7.408L4.383,7.408z"/>
</g>
<g>
	<path fill="#EDC72F" d="M4.521,2.4c0,0.348,0.938,1.322,3.304,1.322c2.4,0,3.305-0.974,3.305-1.322
		c0-0.348-0.904-1.322-3.305-1.322C5.46,1.078,4.521,2.052,4.521,2.4z"/>
</g>
</svg>
