<?xml version="1.0" encoding="utf-8"?>
<!-- Generator: Adobe Illustrator 15.0.2, SVG Export Plug-In  -->
<!DOCTYPE svg PUBLIC "-//W3C//DTD SVG 1.1//EN" "http://www.w3.org/Graphics/SVG/1.1/DTD/svg11.dtd" [
	<!ENTITY ns_flows "http://ns.adobe.com/Flows/1.0/">
]>
<svg version="1.1"
	 xmlns="http://www.w3.org/2000/svg" xmlns:xlink="http://www.w3.org/1999/xlink" xmlns:a="http://ns.adobe.com/AdobeSVGViewerExtensions/3.0/"
	 x="0px" y="0px" width="16px" height="16px" viewBox="0 -0.867 16 16" overflow="visible" enable-background="new 0 -0.867 16 16"
	 xml:space="preserve">
<defs>
</defs>
<g>
	<linearGradient id="SVGID_1_" gradientUnits="userSpaceOnUse" x1="2.4551" y1="8.0166" x2="14.2437" y2="5.7251">
		<stop  offset="0" style="stop-color:#00A55B"/>
		<stop  offset="0.2304" style="stop-color:#1BA868"/>
		<stop  offset="0.2913" style="stop-color:#00A55B"/>
		<stop  offset="0.5043" style="stop-color:#009C56"/>
		<stop  offset="0.6304" style="stop-color:#00A65C"/>
	</linearGradient>
	<path fill="url(#SVGID_1_)" d="M3.628,14.633L0.597,2.61l1.276-0.443l0.061-0.044C3.422,1.031,4.535,0.5,5.338,0.5
		c0.785,0,1.247,0.519,1.934,1.365c0.863,1.062,1.937,2.383,4.313,2.384c1.008,0,2.157-0.235,3.498-0.715
		c-2.232,3.15-3.807,4.691-4.794,4.691c-0.423,0-0.792-0.287-1.221-0.62C8.518,7.176,7.833,6.643,6.835,6.643
		c-1.054,0-2.231,0.575-3.705,1.81L2.889,8.654l1.521,5.979H3.628z"/>
	<path fill="#008C4D" d="M5.338,1c0.534,0,0.864,0.342,1.546,1.18c0.88,1.083,2.086,2.568,4.701,2.568
		c0.674,0,1.402-0.098,2.205-0.298c-2.127,2.804-3.093,3.274-3.501,3.274c-0.239,0-0.503-0.195-0.913-0.515
		c-0.579-0.45-1.372-1.066-2.541-1.067c-1.178,0-2.457,0.612-4.026,1.926L2.545,8.291L1.193,2.932l0.772-0.269l0.142-0.049
		l0.121-0.088C3.609,1.513,4.655,1,5.338,1 M5.338,0c-0.846,0-1.989,0.464-3.7,1.719L0,2.288l3.238,12.845h1.813L3.451,8.835
		c1.52-1.273,2.576-1.693,3.384-1.693c1.566,0,2.196,1.582,3.454,1.582c1.084,0,2.634-1.174,5.651-5.547
		c0.139-0.223,0.018-0.401-0.194-0.401c-0.06,0-0.126,0.014-0.196,0.045c-1.667,0.665-2.949,0.927-3.965,0.927
		C7.751,3.749,7.743,0,5.338,0L5.338,0z"/>
</g>
<rect x="10" y="11.133" fill="#008C4D" width="6" height="2"/>
<rect x="12" y="9.133" fill="#008C4D" width="2" height="6"/>
</svg>
