<?xml version="1.0" encoding="utf-8"?>
<!-- Generator: Adobe Illustrator 15.0.2, SVG Export Plug-In . SVG Version: 6.00 Build 0)  -->
<!DOCTYPE svg PUBLIC "-//W3C//DTD SVG 1.1//EN" "http://www.w3.org/Graphics/SVG/1.1/DTD/svg11.dtd">
<svg version="1.1" id="Layer_1" xmlns="http://www.w3.org/2000/svg" xmlns:xlink="http://www.w3.org/1999/xlink" x="0px" y="0px"
	 width="16px" height="16px" viewBox="0 0 16 16" enable-background="new 0 0 16 16" xml:space="preserve">
<g>
	<path fill="#FFFFFF" d="M14.292,5.019v7.374c0,0.15-0.077,0.302-0.203,0.377c-0.049,0.025-0.125,0.051-0.199,0.051
		c-0.077,0-0.154-0.025-0.203-0.051l-2.741-1.712L8.227,12.77c-0.126,0.075-0.303,0.075-0.429,0L5.08,11.058L2.337,12.77
		c-0.126,0.075-0.276,0.075-0.402,0s-0.226-0.227-0.226-0.377V5.019c0-0.151,0.076-0.276,0.201-0.352l2.944-1.862
		c0.125-0.075,0.302-0.075,0.428,0L8,4.516l2.743-1.711c0.126-0.075,0.302-0.075,0.427,0l2.945,1.862
		C14.215,4.742,14.292,4.868,14.292,5.019z M4.652,3.937L2.538,5.271v6.368l2.114-1.335V3.937z M7.597,5.271L5.482,3.937v6.367
		l2.114,1.335V5.271z M10.543,3.937L8.428,5.271v6.368l2.115-1.335V3.937z M13.483,5.271l-2.112-1.334v6.367l2.112,1.335V5.271z"/>
</g>
</svg>
