<?xml version="1.0" encoding="utf-8"?>
<!-- Generator: Adobe Illustrator 15.0.2, SVG Export Plug-In . SVG Version: 6.00 Build 0)  -->
<!DOCTYPE svg PUBLIC "-//W3C//DTD SVG 1.1//EN" "http://www.w3.org/Graphics/SVG/1.1/DTD/svg11.dtd">
<svg version="1.1" id="Layer_1" xmlns="http://www.w3.org/2000/svg" xmlns:xlink="http://www.w3.org/1999/xlink" x="0px" y="0px"
	 width="512px" height="96px" viewBox="0 0 512 96" enable-background="new 0 0 512 96" xml:space="preserve">
<g>
	<path fill="#C1272D" d="M76.606,47.835l-4.923,1.278l-3.031,0.782l-0.39,0.102c-2.333-5.607-6.141-10.415-10.922-13.936l0.21-0.159
		l5.22-4.056l1.08-0.84l0.021-1.363l0.39-22.848L64.375,0l-4.931,4.677L36.317,26.61l-4.014,3.805
		C20.062,32.789,10.263,42.181,7.075,54.337l-1.28,1.213l-3.741,3.549L0,61.044l1.933,2.07l3.938,4.211l0.472,0.502
		c2.332,15.943,15.784,28.174,32.057,28.174c16.134,0,29.509-12.02,32.011-27.762l4.72-15.54L76.606,47.835z M67.596,67.688
		l-16.841-0.344l-1.766,24.043c0,0-2.934,1.404-7.916,1.881c-4.874,0.463-7.945-0.23-7.945-0.23L8.788,66.271l-0.832-0.895
		l-3.938-4.211l3.741-3.547L38.28,28.677L61.41,6.744L61.02,29.595l-5.225,4.057l-33.21,25.801c0,0,20.19,28.167,20.613,29.363
		c-0.036-0.541-2.775-21.664-2.775-21.664l-5.397-0.1l-0.083-5.465l34.424-8.932l3.032-0.782L67.596,67.688z"/>
	<g>
		<path fill="#C1272D" d="M121.89,59.777h20.659v13.925c-1.034,1.812-2.276,3.471-3.727,4.959c-1.443,1.489-3.054,2.77-4.82,3.855
			c-1.77,1.086-3.68,1.91-5.729,2.49c-2.057,0.58-4.177,0.875-6.381,0.875c-3.237,0-6.291-0.623-9.168-1.881
			c-2.872-1.249-5.378-2.947-7.518-5.081c-2.135-2.139-3.829-4.646-5.086-7.516c-1.247-2.875-1.875-5.954-1.875-9.237
			c0-3.277,0.628-6.355,1.875-9.22c1.257-2.884,2.948-5.376,5.086-7.513c2.139-2.14,4.646-3.83,7.518-5.084
			c2.876-1.248,5.93-1.883,9.168-1.883c4.187,0,7.995,0.988,11.432,2.95c3.431,1.976,6.225,4.565,8.386,7.802l-7.126,7.248
			c-1.127-2.459-2.807-4.443-5.05-5.955c-2.244-1.51-4.79-2.261-7.645-2.261c-1.901,0-3.69,0.368-5.376,1.099
			c-1.682,0.729-3.146,1.726-4.405,2.975c-1.254,1.254-2.241,2.725-2.979,4.409c-0.732,1.683-1.099,3.495-1.099,5.438
			c0,1.937,0.369,3.756,1.099,5.44c0.734,1.68,1.727,3.161,2.979,4.437c1.259,1.272,2.725,2.276,4.405,3.008
			c1.686,0.737,3.476,1.104,5.376,1.104c1.031,0,2.104-0.151,3.205-0.448c1.104-0.312,2.191-0.753,3.268-1.334
			c1.085-0.584,2.071-1.283,2.982-2.107c0.909-0.82,1.682-1.747,2.327-2.785h-11.782L121.89,59.777L121.89,59.777z"/>
		<path fill="#C1272D" d="M186.983,38.47v47.543h-9.979v-17.43h-16.515v17.428h-9.907V38.47h9.907v20.207h16.515V38.47H186.983
			L186.983,38.47z"/>
		<path fill="#C1272D" d="M207.195,48.254v9.638h21.374v9.916h-21.374v8.16h22.223v9.92H197.35V38.408h32.068v9.849L207.195,48.254
			L207.195,48.254z"/>
		<path fill="#C1272D" d="M272.227,38.414h10.107v47.539h-11.146l-20.46-30.847v30.847h-10.11V38.345h11.143l20.466,30.822V38.414z"
			/>
		<path fill="#C1272D" d="M317.896,41.129c1.427,0.648,2.88,1.505,4.374,2.56c1.483,1.058,2.823,2.42,4.017,4.076
			c1.188,1.662,2.171,3.666,2.946,6.021c0.773,2.355,1.168,5.15,1.168,8.383c0,3.979-0.61,7.312-1.816,10.01
			c-1.213,2.703-2.776,4.938-4.696,6.713c-1.922,1.772-4.068,3.131-6.442,4.08s-4.743,1.652-7.09,2.11
			c-2.356,0.445-4.575,0.712-6.67,0.772c-2.099,0.063-3.794,0.101-5.086,0.101h-4.857V38.351h4.857c1.379,0,2.861,0.014,4.436,0.031
			c1.576,0.026,3.21,0.118,4.887,0.299c1.686,0.17,3.369,0.446,5.057,0.838C314.655,39.903,316.289,40.437,317.896,41.129z
			 M303.515,76.037c3.062-0.218,5.678-0.64,7.837-1.269c2.155-0.617,3.936-1.496,5.306-2.615c1.384-1.126,2.389-2.512,3.013-4.149
			c0.627-1.639,0.939-3.586,0.939-5.829c0-2.636-0.336-4.814-1.034-6.546c-0.689-1.723-1.749-3.116-3.173-4.171
			c-1.425-1.057-3.204-1.826-5.341-2.299c-2.133-0.479-4.656-0.782-7.547-0.906V76.037L303.515,76.037z"/>
		<path fill="#C1272D" d="M349.366,48.254v9.638h21.375v9.916h-21.375v8.16h22.218v9.92h-32.058V38.408h32.058v9.849L349.366,48.254
			L349.366,48.254z"/>
		<path fill="#C1272D" d="M412.646,48.254h-11.012v37.699h-9.904V48.254h-11.016v-9.84h31.928L412.646,48.254L412.646,48.254z"/>
		<path fill="#C1272D" d="M451.762,48.254h-11.013v37.699h-9.913V48.254H419.83v-9.84h31.929L451.762,48.254L451.762,48.254z"/>
		<path fill="#C1272D" d="M487.896,85.953l-2.457-7.001h-19.172l-2.464,7.001h-10.75l16.972-47.539h11.655l16.974,47.539H487.896z
			 M469.768,69.167h12.176l-6.088-17.031L469.768,69.167z"/>
	</g>
</g>
</svg>
