<?xml version="1.0" encoding="utf-8"?>
<!-- Generator: Adobe Illustrator 15.0.2, SVG Export Plug-In . SVG Version: 6.00 Build 0)  -->
<!DOCTYPE svg PUBLIC "-//W3C//DTD SVG 1.1//EN" "http://www.w3.org/Graphics/SVG/1.1/DTD/svg11.dtd">
<svg version="1.1" id="Layer_1" xmlns="http://www.w3.org/2000/svg" xmlns:xlink="http://www.w3.org/1999/xlink" x="0px" y="0px"
	 width="512px" height="192.597px" viewBox="0.5 240.5 512 192.597" enable-background="new 0.5 240.5 512 192.597"
	 xml:space="preserve">
<path fill="#890000" d="M154.188,336.466l-9.878,2.559l-6.082,1.575l-0.776,0.2c-4.682-11.248-12.316-20.895-21.91-27.952
	l0.419-0.321l10.47-8.136l2.164-1.68l0.041-2.741l0.782-45.84l0.232-13.63l-9.891,9.383l-46.397,43.999l-8.052,7.634
	c-24.561,4.766-44.221,23.604-50.617,47.994l-2.568,2.435l-7.505,7.116L0.5,362.965l3.878,4.153l7.9,8.449l0.945,1.003
	c4.676,31.992,31.668,56.526,64.313,56.526c32.364,0,59.197-24.111,64.217-55.696l9.468-31.176L154.188,336.466z M136.112,376.291
	l-33.786-0.69l-3.547,48.236c0,0-5.884,2.821-15.876,3.772c-9.779,0.932-15.941-0.458-15.941-0.458l-48.83-53.706l-1.673-1.792
	l-7.898-8.446l7.505-7.115l61.233-58.064l46.401-43.998l-0.782,45.842l-10.475,8.134l-66.628,51.766
	c0,0,40.504,56.507,41.354,58.905c-0.075-1.08-5.568-43.462-5.568-43.462l-10.834-0.201l-0.163-10.962l69.062-17.915l6.082-1.573
	L136.112,376.291z"/>
<g>
	<path fill="#890000" d="M197.955,358.393h17.217v11.604c-0.864,1.511-1.899,2.892-3.105,4.132
		c-1.204,1.241-2.546,2.308-4.018,3.214c-1.475,0.904-3.067,1.592-4.776,2.075c-1.712,0.484-3.479,0.73-5.317,0.73
		c-2.697,0-5.242-0.521-7.64-1.568c-2.393-1.041-4.48-2.456-6.263-4.234c-1.78-1.783-3.191-3.871-4.239-6.263
		c-1.039-2.396-1.562-4.962-1.562-7.698c0-2.732,0.523-5.296,1.562-7.683c1.048-2.402,2.457-4.48,4.239-6.259
		c1.782-1.784,3.87-3.193,6.263-4.238c2.397-1.04,4.942-1.568,7.64-1.568c3.489,0,6.664,0.823,9.526,2.458
		c2.86,1.645,5.188,3.804,6.988,6.501l-5.938,6.041c-0.938-2.05-2.338-3.704-4.208-4.964c-1.87-1.257-3.991-1.883-6.369-1.883
		c-1.586,0-3.076,0.307-4.48,0.915c-1.402,0.609-2.623,1.439-3.672,2.48c-1.045,1.044-1.867,2.269-2.483,3.673
		c-0.611,1.403-0.916,2.913-0.916,4.532c0,1.614,0.308,3.13,0.916,4.535c0.611,1.399,1.438,2.634,2.483,3.696
		c1.049,1.061,2.27,1.898,3.672,2.507c1.404,0.614,2.895,0.92,4.48,0.92c0.859,0,1.752-0.127,2.671-0.374
		c0.92-0.26,1.826-0.627,2.721-1.113c0.905-0.486,1.727-1.07,2.487-1.754c0.758-0.685,1.4-1.457,1.939-2.323h-9.818V358.393z"/>
	<path fill="#890000" d="M252.2,340.637v39.618h-8.316V365.73h-13.762v14.524h-8.256v-39.618h8.256v16.839h13.762v-16.839H252.2z"/>
	<path fill="#890000" d="M269.044,348.789v8.031h17.812v8.263h-17.812v6.8h18.519v8.266h-26.725v-39.566h26.725v8.207H269.044
		L269.044,348.789z"/>
	<path fill="#890000" d="M323.237,340.589h8.423v39.616h-9.288l-17.05-25.705v25.705h-8.426v-39.674h9.287l17.054,25.686V340.589z"
		/>
	<path fill="#890000" d="M361.294,342.853c1.188,0.54,2.399,1.252,3.644,2.131c1.238,0.881,2.354,2.016,3.347,3.398
		c0.988,1.385,1.809,3.055,2.455,5.017c0.646,1.964,0.974,4.292,0.974,6.986c0,3.315-0.509,6.093-1.514,8.342
		c-1.01,2.251-2.314,4.115-3.915,5.592c-1.599,1.478-3.388,2.61-5.368,3.401c-1.979,0.792-3.953,1.378-5.908,1.759
		c-1.964,0.372-3.814,0.593-5.559,0.644c-1.748,0.053-3.161,0.083-4.238,0.083h-4.048v-39.671h4.048
		c1.149,0,2.386,0.011,3.696,0.027c1.315,0.021,2.675,0.098,4.072,0.248c1.406,0.141,2.808,0.374,4.214,0.699
		C358.594,341.83,359.955,342.274,361.294,342.853z M349.309,371.942c2.551-0.181,4.731-0.534,6.531-1.056
		c1.797-0.515,3.279-1.246,4.421-2.18c1.153-0.938,1.991-2.092,2.511-3.458c0.522-1.365,0.782-2.988,0.782-4.858
		c0-2.196-0.281-4.012-0.862-5.454c-0.575-1.436-1.457-2.598-2.643-3.476c-1.188-0.881-2.67-1.521-4.452-1.916
		c-1.777-0.397-3.879-0.651-6.288-0.755V371.942z"/>
	<path fill="#890000" d="M387.519,348.789v8.031h17.812v8.263h-17.812v6.8h18.514v8.266h-26.714v-39.566h26.714v8.207H387.519
		L387.519,348.789z"/>
	<path fill="#890000" d="M440.252,348.789h-9.176v31.416h-8.254v-31.416h-9.177v-8.2h26.606V348.789z"/>
	<path fill="#890000" d="M472.849,348.789h-9.177v31.416h-8.261v-31.416h-9.172v-8.2h26.609V348.789z"/>
	<path fill="#890000" d="M502.961,380.205l-2.047-5.834h-15.977l-2.051,5.834h-8.958l14.14-39.616h9.714l14.144,39.616H502.961z
		 M487.854,366.217H498l-5.073-14.194L487.854,366.217z"/>
</g>
<g>
	<path fill="#890000" d="M199.552,412.735c-0.47,0.765-1.024,1.457-1.669,2.082c-0.648,0.627-1.364,1.164-2.142,1.613
		c-0.783,0.451-1.624,0.795-2.525,1.043c-0.896,0.237-1.824,0.362-2.785,0.362c-1.483,0-2.875-0.278-4.178-0.849
		c-1.3-0.566-2.431-1.337-3.399-2.318c-0.968-0.974-1.733-2.108-2.302-3.413c-0.567-1.3-0.849-2.69-0.849-4.176
		c0-1.486,0.281-2.88,0.849-4.178c0.568-1.301,1.334-2.438,2.302-3.416c0.969-0.98,2.1-1.751,3.399-2.319
		c1.298-0.562,2.694-0.844,4.178-0.844c0.961,0,1.89,0.123,2.785,0.363c0.901,0.25,1.742,0.594,2.525,1.043
		c0.777,0.45,1.493,0.994,2.142,1.627c0.645,0.635,1.199,1.333,1.669,2.094l-3.282,3.281c-0.235-0.585-0.545-1.119-0.925-1.609
		c-0.38-0.487-0.826-0.909-1.332-1.265c-0.511-0.347-1.067-0.623-1.671-0.814c-0.606-0.198-1.243-0.291-1.911-0.291
		c-0.858,0-1.676,0.161-2.443,0.497c-0.775,0.325-1.443,0.787-2.013,1.359c-0.566,0.579-1.018,1.247-1.348,2.007
		c-0.333,0.763-0.501,1.58-0.501,2.465c0,0.876,0.163,1.702,0.501,2.465c0.33,0.755,0.781,1.43,1.348,2.003
		c0.567,0.577,1.235,1.031,2.013,1.359c0.768,0.336,1.585,0.501,2.443,0.501c0.668,0,1.3-0.098,1.911-0.289
		c0.604-0.198,1.16-0.473,1.671-0.823c0.508-0.353,0.954-0.766,1.332-1.248c0.38-0.473,0.689-1.008,0.925-1.595L199.552,412.735z"/>
	<path fill="#890000" d="M212.886,417.836c-1.485,0-2.877-0.278-4.177-0.849c-1.299-0.566-2.436-1.337-3.4-2.318
		c-0.967-0.974-1.733-2.108-2.299-3.413c-0.568-1.3-0.854-2.69-0.854-4.176c0-1.486,0.285-2.88,0.854-4.178
		c0.565-1.301,1.332-2.438,2.299-3.416c0.965-0.98,2.102-1.751,3.4-2.319c1.3-0.562,2.691-0.844,4.177-0.844s2.88,0.282,4.178,0.844
		c1.298,0.571,2.436,1.339,3.4,2.319c0.967,0.978,1.735,2.115,2.299,3.416c0.568,1.298,0.854,2.691,0.854,4.178
		c0,1.485-0.285,2.876-0.854,4.176c-0.563,1.305-1.332,2.439-2.299,3.413c-0.965,0.981-2.103,1.754-3.4,2.318
		C215.768,417.553,214.371,417.836,212.886,417.836z M212.886,400.742c-0.884,0-1.7,0.171-2.46,0.499
		c-0.761,0.333-1.425,0.79-1.992,1.362c-0.569,0.581-1.021,1.25-1.348,2.009c-0.335,0.766-0.503,1.583-0.503,2.462
		c0,0.882,0.168,1.708,0.503,2.463c0.327,0.763,0.78,1.435,1.348,2.011c0.567,0.577,1.227,1.028,1.992,1.359
		c0.764,0.336,1.581,0.501,2.46,0.501c0.858,0,1.672-0.165,2.436-0.501c0.761-0.331,1.431-0.784,2.007-1.359
		c0.576-0.58,1.031-1.248,1.364-2.011c0.331-0.755,0.495-1.581,0.495-2.463c0-0.879-0.164-1.696-0.495-2.462
		c-0.333-0.759-0.788-1.429-1.364-2.009c-0.576-0.572-1.246-1.029-2.007-1.362C214.558,400.913,213.751,400.742,212.886,400.742z"/>
	<path fill="#890000" d="M241.615,396.348h4.574v21.515h-5.042l-9.269-13.952v13.952h-4.571v-21.545h5.043l9.265,13.954V396.348
		L241.615,396.348z"/>
	<path fill="#890000" d="M273.278,407.046c0,1.155-0.169,2.251-0.513,3.285c-0.344,1.035-0.825,1.989-1.448,2.873l1.554,1.524
		l-3.115,3.14l-1.637-1.644c-0.825,0.487-1.697,0.868-2.628,1.142c-0.931,0.274-1.897,0.411-2.914,0.411
		c-1.468,0-2.849-0.285-4.15-0.849c-1.298-0.569-2.437-1.335-3.4-2.301c-0.965-0.965-1.733-2.103-2.301-3.402
		c-0.57-1.299-0.854-2.69-0.854-4.18c0-1.482,0.284-2.876,0.854-4.173c0.567-1.302,1.336-2.434,2.301-3.401
		c0.964-0.966,2.103-1.736,3.4-2.303c1.302-0.563,2.683-0.846,4.15-0.846s2.849,0.282,4.145,0.846
		c1.302,0.569,2.435,1.337,3.399,2.303c0.974,0.968,1.738,2.1,2.304,3.401C272.997,404.17,273.278,405.563,273.278,407.046z
		 M262.577,413.355c0.782,0,1.535-0.143,2.259-0.417l-1.203-1.2l3.111-3.137l1.375,1.408c0.491-0.939,0.729-1.925,0.729-2.964
		c0-0.873-0.164-1.698-0.494-2.462c-0.333-0.762-0.785-1.433-1.347-2.002c-0.568-0.574-1.234-1.031-1.994-1.362
		c-0.765-0.335-1.573-0.501-2.437-0.501c-0.857,0-1.673,0.166-2.445,0.501c-0.769,0.331-1.44,0.788-2.007,1.362
		c-0.572,0.575-1.016,1.24-1.353,2.002c-0.331,0.764-0.496,1.589-0.496,2.462c0,0.877,0.165,1.703,0.496,2.467
		c0.337,0.763,0.78,1.428,1.353,1.99c0.566,0.566,1.234,1.019,2.007,1.346C260.906,413.185,261.72,413.355,262.577,413.355z"/>
	<path fill="#890000" d="M296.47,396.348v11.726c0,0.565-0.06,1.2-0.175,1.889c-0.119,0.692-0.313,1.404-0.574,2.125
		c-0.267,0.726-0.612,1.436-1.054,2.134c-0.442,0.686-0.979,1.307-1.629,1.84c-0.641,0.537-1.401,0.967-2.27,1.289
		c-0.879,0.322-1.876,0.484-3.005,0.484h-0.034c-1.174,0-2.258-0.193-3.255-0.582c-0.995-0.391-1.864-0.97-2.611-1.735
		c-0.702-0.699-1.242-1.458-1.626-2.27c-0.38-0.812-0.657-1.583-0.835-2.317c-0.182-0.726-0.283-1.368-0.322-1.904
		c-0.039-0.539-0.062-0.864-0.062-0.985v-11.692h4.487v11.726c0,0.157,0.011,0.392,0.032,0.709c0.017,0.306,0.072,0.66,0.168,1.05
		c0.102,0.394,0.239,0.787,0.417,1.204c0.175,0.408,0.421,0.787,0.743,1.143c0.322,0.352,0.719,0.634,1.188,0.853
		c0.471,0.212,1.039,0.315,1.707,0.315c0.999,0,1.773-0.229,2.326-0.7c0.559-0.468,0.978-1.005,1.262-1.61
		c0.283-0.608,0.461-1.204,0.531-1.794c0.07-0.583,0.102-0.981,0.102-1.202v-11.692H296.47L296.47,396.348z"/>
	<path fill="#890000" d="M306.296,400.806v4.366h9.673v4.483h-9.673v3.7h10.049v4.48h-14.511v-21.488h14.511v4.458H306.296
		L306.296,400.806z"/>
	<path fill="#890000" d="M336.952,410.215c0.567,0.505,1.054,1.08,1.47,1.717c0.408,0.631,0.743,1.288,1.01,1.961
		c0.265,0.681,0.45,1.352,0.57,2.042c0.115,0.682,0.175,1.325,0.175,1.934h-2.2h-2.225c0-0.139-0.017-0.37-0.045-0.69
		c-0.029-0.323-0.098-0.681-0.192-1.067c-0.096-0.396-0.245-0.792-0.438-1.207c-0.2-0.407-0.47-0.791-0.812-1.142
		c-0.339-0.354-0.764-0.637-1.273-0.854c-0.508-0.213-1.123-0.322-1.845-0.322h-5.306v5.277h-4.396v-21.545h9.701
		c0.075,0,0.295,0.015,0.645,0.048c0.353,0.032,0.779,0.115,1.275,0.263c0.501,0.148,1.041,0.368,1.626,0.666
		c0.586,0.287,1.152,0.708,1.699,1.258c1.624,1.623,2.438,3.849,2.438,6.681c0,1.113-0.169,2.081-0.512,2.9
		C337.973,408.955,337.52,409.646,336.952,410.215z M331.147,408.161c0.235,0,0.536-0.034,0.905-0.099
		c0.374-0.066,0.738-0.211,1.089-0.415c0.348-0.203,0.646-0.496,0.895-0.88c0.245-0.375,0.365-0.894,0.365-1.538
		c0-1.014-0.136-1.824-0.396-2.416c-0.263-0.601-0.58-1.047-0.938-1.352c-0.365-0.303-0.729-0.495-1.104-0.584
		c-0.369-0.084-0.652-0.136-0.843-0.136h-5.283v7.419H331.147L331.147,408.161z"/>
	<path fill="#890000" d="M347.385,396.379v21.483h-4.456v-21.483H347.385z"/>
	<path fill="#890000" d="M367.058,396.348h4.572v21.515h-5.047l-9.26-13.952v13.952h-4.574v-21.545h5.045l9.264,13.954V396.348z"/>
	<path fill="#890000" d="M386.161,406.025h9.354v6.3c-0.472,0.82-1.031,1.567-1.684,2.248c-0.655,0.67-1.384,1.251-2.188,1.737
		c-0.798,0.491-1.661,0.871-2.587,1.131c-0.931,0.262-1.889,0.395-2.895,0.395c-1.46,0-2.841-0.278-4.144-0.849
		c-1.298-0.566-2.433-1.333-3.397-2.301c-0.974-0.968-1.736-2.102-2.304-3.398c-0.567-1.301-0.85-2.693-0.85-4.18
		s0.282-2.878,0.85-4.181c0.569-1.297,1.33-2.43,2.304-3.396c0.965-0.968,2.1-1.736,3.397-2.299
		c1.303-0.568,2.684-0.852,4.144-0.852c1.899,0,3.623,0.442,5.172,1.334c1.559,0.893,2.824,2.063,3.8,3.534l-3.226,3.281
		c-0.509-1.113-1.272-2.017-2.288-2.693c-1.016-0.69-2.169-1.031-3.458-1.031c-0.858,0-1.671,0.165-2.432,0.497
		c-0.76,0.333-1.426,0.785-1.993,1.352c-0.568,0.569-1.012,1.229-1.35,1.992c-0.328,0.761-0.494,1.579-0.494,2.457
		c0,0.883,0.166,1.703,0.494,2.467c0.338,0.761,0.783,1.431,1.35,2.007c0.567,0.579,1.233,1.027,1.993,1.361
		c0.761,0.336,1.573,0.499,2.432,0.499c0.468,0,0.949-0.067,1.447-0.208c0.497-0.135,0.995-0.332,1.483-0.6
		c0.489-0.26,0.935-0.58,1.346-0.948c0.416-0.376,0.762-0.792,1.061-1.262h-5.337V406.025L386.161,406.025z"/>
	<path fill="#890000" d="M420.398,406.025h9.354v6.3c-0.473,0.82-1.032,1.567-1.689,2.248c-0.657,0.67-1.379,1.251-2.181,1.737
		c-0.801,0.491-1.665,0.871-2.596,1.131c-0.929,0.258-1.89,0.395-2.889,0.395c-1.461,0-2.842-0.278-4.146-0.849
		c-1.3-0.566-2.428-1.333-3.398-2.301c-0.97-0.968-1.735-2.102-2.302-3.398c-0.566-1.301-0.849-2.693-0.849-4.18
		s0.282-2.878,0.849-4.181c0.566-1.297,1.332-2.43,2.302-3.396c0.971-0.968,2.099-1.736,3.398-2.299
		c1.305-0.568,2.686-0.852,4.146-0.852c1.898,0,3.62,0.442,5.173,1.334c1.554,0.893,2.821,2.063,3.799,3.534l-3.229,3.281
		c-0.505-1.113-1.272-2.017-2.284-2.693c-1.019-0.69-2.169-1.031-3.459-1.031c-0.861,0-1.671,0.165-2.433,0.497
		c-0.762,0.333-1.429,0.785-1.996,1.352c-0.562,0.569-1.012,1.229-1.347,1.992c-0.328,0.761-0.495,1.579-0.495,2.457
		c0,0.883,0.167,1.703,0.495,2.467c0.335,0.761,0.785,1.431,1.347,2.007c0.567,0.579,1.234,1.027,1.996,1.361
		c0.762,0.336,1.571,0.499,2.433,0.499c0.469,0,0.948-0.067,1.448-0.208c0.497-0.135,0.992-0.332,1.479-0.6
		c0.491-0.26,0.939-0.58,1.35-0.948c0.407-0.376,0.764-0.792,1.054-1.262h-5.334v-4.395H420.398z"/>
	<path fill="#890000" d="M449.859,396.379v21.517h-4.512v-7.886h-7.478v7.886h-4.487v-21.517h4.487v9.147h7.478v-9.147H449.859z"/>
	<path fill="#890000" d="M459.418,400.806v4.366h9.67v4.483h-9.67v3.7h10.057v4.48h-14.511v-21.488h14.511v4.458H459.418
		L459.418,400.806z"/>
	<path fill="#890000" d="M488.843,396.348h4.574v21.515h-5.039l-9.267-13.952v13.952h-4.572v-21.545h5.044l9.264,13.954v-13.924
		H488.843z"/>
	<path fill="#890000" d="M512.5,400.806h-4.984v17.062h-4.485v-17.062h-4.979v-4.458H512.5V400.806z"/>
</g>
</svg>
