<?xml version="1.0" encoding="utf-8"?>
<!-- Generator: Adobe Illustrator 15.0.2, SVG Export Plug-In . SVG Version: 6.00 Build 0)  -->
<!DOCTYPE svg PUBLIC "-//W3C//DTD SVG 1.1//EN" "http://www.w3.org/Graphics/SVG/1.1/DTD/svg11.dtd">
<svg version="1.1" id="Layer_1" xmlns="http://www.w3.org/2000/svg" xmlns:xlink="http://www.w3.org/1999/xlink" x="0px" y="0px"
	 width="512px" height="96px" viewBox="244.5 108.799 512 96" enable-background="new 244.5 108.799 512 96" xml:space="preserve">
<g>
	<path fill="#C1272D" d="M327.779,156.633l-4.923,1.278l-3.031,0.782l-0.389,0.102c-2.333-5.607-6.141-10.415-10.922-13.936
		l0.21-0.159l5.219-4.055l1.08-0.84l0.021-1.363l0.39-22.848l0.114-6.796l-4.931,4.677l-23.127,21.933l-4.013,3.805
		c-12.243,2.374-22.042,11.766-25.229,23.922l-1.28,1.213l-3.741,3.548l-2.054,1.946l1.933,2.07l3.938,4.211l0.471,0.502
		c2.332,15.944,15.785,28.174,32.058,28.174c16.133,0,29.508-12.019,32.01-27.762l4.72-15.54L327.779,156.633z M318.769,176.486
		l-16.841-0.343l-1.766,24.043c0,0-2.934,1.404-7.916,1.881c-4.874,0.463-7.945-0.231-7.945-0.231l-24.34-26.768l-0.832-0.894
		l-3.938-4.211l3.74-3.547l30.522-28.941l23.13-21.933l-0.391,22.851l-5.224,4.056l-33.21,25.801c0,0,20.19,28.167,20.613,29.364
		c-0.036-0.541-2.775-21.665-2.775-21.665l-5.398-0.1l-0.083-5.464l34.424-8.932l3.032-0.782L318.769,176.486z"/>
	<g>
		<path fill="#C1272D" d="M373.062,168.575h20.66V182.5c-1.035,1.813-2.277,3.471-3.727,4.959c-1.443,1.489-3.054,2.77-4.82,3.856
			c-1.77,1.085-3.68,1.91-5.73,2.49c-2.056,0.58-4.176,0.875-6.381,0.875c-3.237,0-6.291-0.624-9.168-1.881
			c-2.872-1.249-5.377-2.947-7.517-5.081c-2.135-2.139-3.829-4.646-5.086-7.516c-1.247-2.875-1.875-5.954-1.875-9.237
			c0-3.278,0.628-6.355,1.875-9.22c1.257-2.883,2.948-5.376,5.086-7.512c2.139-2.14,4.645-3.83,7.517-5.084
			c2.876-1.248,5.93-1.883,9.168-1.883c4.187,0,7.996,0.988,11.432,2.95c3.431,1.976,6.225,4.565,8.386,7.801l-7.126,7.249
			c-1.127-2.459-2.807-4.444-5.05-5.956c-2.244-1.509-4.79-2.26-7.644-2.26c-1.902,0-3.691,0.368-5.376,1.099
			c-1.682,0.729-3.147,1.725-4.406,2.974c-1.254,1.254-2.241,2.725-2.979,4.409c-0.733,1.683-1.099,3.495-1.099,5.438
			c0,1.937,0.369,3.757,1.099,5.441c0.734,1.68,1.726,3.161,2.979,4.436c1.259,1.273,2.725,2.277,4.406,3.009
			c1.685,0.737,3.475,1.104,5.376,1.104c1.031,0,2.103-0.152,3.205-0.448c1.104-0.312,2.191-0.753,3.267-1.335
			c1.085-0.583,2.071-1.283,2.983-2.106c0.909-0.821,1.681-1.748,2.327-2.786h-11.782V168.575z"/>
		<path fill="#C1272D" d="M438.156,147.268v47.542h-9.979v-17.429h-16.515v17.428h-9.907v-47.542h9.907v20.207h16.515v-20.207
			L438.156,147.268L438.156,147.268z"/>
		<path fill="#C1272D" d="M458.368,157.052v9.637h21.374v9.916h-21.374v8.16h22.223v9.92h-32.069v-47.479h32.069v9.849
			L458.368,157.052L458.368,157.052z"/>
		<path fill="#C1272D" d="M523.399,147.212h10.108v47.539h-11.146l-20.46-30.846v30.846h-10.11v-47.608h11.143l20.465,30.822
			V147.212z"/>
		<path fill="#C1272D" d="M569.068,149.927c1.427,0.648,2.88,1.504,4.374,2.559c1.484,1.058,2.824,2.42,4.017,4.077
			c1.187,1.661,2.171,3.666,2.946,6.021c0.774,2.356,1.168,5.15,1.168,8.383c0,3.979-0.61,7.312-1.816,10.01
			c-1.213,2.702-2.777,4.938-4.697,6.712c-1.921,1.773-4.068,3.131-6.442,4.08c-2.374,0.95-4.743,1.653-7.09,2.111
			c-2.356,0.445-4.575,0.712-6.67,0.773c-2.098,0.063-3.794,0.1-5.086,0.1h-4.857v-47.604h4.857c1.379,0,2.862,0.013,4.436,0.031
			c1.576,0.026,3.21,0.118,4.887,0.298c1.685,0.17,3.369,0.447,5.056,0.838C565.828,148.701,567.462,149.234,569.068,149.927z
			 M554.687,184.835c3.062-0.218,5.678-0.64,7.837-1.269c2.156-0.617,3.936-1.495,5.306-2.615c1.384-1.126,2.389-2.512,3.013-4.149
			c0.627-1.639,0.939-3.586,0.939-5.83c0-2.635-0.336-4.814-1.034-6.545c-0.689-1.723-1.749-3.117-3.173-4.171
			c-1.425-1.057-3.204-1.826-5.341-2.299c-2.132-0.478-4.656-0.782-7.547-0.906V184.835L554.687,184.835z"/>
		<path fill="#C1272D" d="M600.539,157.052v9.637h21.375v9.916h-21.375v8.16h22.218v9.92h-32.058v-47.479h32.058v9.849
			L600.539,157.052L600.539,157.052z"/>
		<path fill="#C1272D" d="M663.818,157.052h-11.011v37.699h-9.905v-37.699h-11.015v-9.84h31.928L663.818,157.052L663.818,157.052z"
			/>
		<path fill="#C1272D" d="M702.935,157.052h-11.013v37.699h-9.913v-37.699h-11.006v-9.84h31.929L702.935,157.052L702.935,157.052z"
			/>
		<path fill="#C1272D" d="M739.069,194.751l-2.457-7.001H717.44l-2.463,7.001h-10.75l16.971-47.539h11.656l16.973,47.539H739.069z
			 M720.94,177.965h12.176l-6.088-17.031L720.94,177.965z"/>
	</g>
</g>
</svg>
